<svg id="ico_gjart_youtube" xmlns="http://www.w3.org/2000/svg" width="23.212" height="16.266" viewBox="0 0 23.212 16.266">
  <path id="패스_236" data-name="패스 236" d="M195.468,181.915a2.706,2.706,0,0,1-1.784-1.73c-.771-2.123-1-11,.486-12.745a2.881,2.881,0,0,1,1.941-1.03c4-.43,16.373-.37,17.8.145a2.79,2.79,0,0,1,1.75,1.684c.845,2.193.873,10.172-.112,12.285a2.7,2.7,0,0,1-1.253,1.266C212.8,182.572,197.432,182.563,195.468,181.915Zm6.358-4.16,7.208-3.737-7.208-3.762Z" transform="translate(-193.079 -166.123)" fill="#561908" fill-rule="evenodd"/>
</svg>
