<svg xmlns="http://www.w3.org/2000/svg" width="20.896" height="20.896" viewBox="0 0 20.896 20.896">
  <g id="ico_gjfac" transform="translate(13768.559 24606.449)">
    <g id="그룹_48" data-name="그룹 48" transform="translate(-13768.559 -24606.449)">
      <path id="패스_102" data-name="패스 102" d="M666.435,508.226l.126-.239a10.448,10.448,0,0,1,17.359-1.71l.17.209-.269,0a98.518,98.518,0,0,0-17.12,1.687Zm9.37-5.556a10.17,10.17,0,0,0-8.884,5.2,98.83,98.83,0,0,1,16.622-1.637,10.149,10.149,0,0,0-7.738-3.561Z" transform="translate(-665.358 -502.407)" fill="#210000"/>
      <path id="패스_2461" data-name="패스 2461" d="M684.706,515.08a10.47,10.47,0,0,0-2.07-4.246l-.04-.049h-.063a98.77,98.77,0,0,0-17.165,1.691l-.062.012-.03.056a10.469,10.469,0,0,0-.735,7.969l.042.137.13-.055a83.766,83.766,0,0,1,11.115-3.63,1.257,1.257,0,0,1-.026-.26,83.981,83.981,0,0,0-11.055,3.6,10.212,10.212,0,0,1,.73-7.579,98.514,98.514,0,0,1,16.993-1.674A10.211,10.211,0,0,1,684.418,515c-2.02.289-4.026.659-6.017,1.093a1.281,1.281,0,0,1,.006.264c2.048-.448,4.112-.828,6.191-1.121l.14-.02Z" transform="translate(-664.074 -506.964)" fill="#210000"/>
      <path id="패스_2462" data-name="패스 2462" d="M685.223,520.066l-.027-.117-.119.016c-2.069.292-4.122.67-6.16,1.114a1.26,1.26,0,0,1,.006.265c2.009-.439,4.034-.814,6.073-1.1a10.189,10.189,0,0,1-19.652,5.3,83.724,83.724,0,0,1,11-3.584,1.254,1.254,0,0,1-.026-.261,84.015,84.015,0,0,0-11.185,3.65l-.11.046.035.114a10.4,10.4,0,0,0,9.979,7.346h0a10.454,10.454,0,0,0,10.184-12.78Z" transform="translate(-664.591 -511.949)" fill="#210000"/>
      <rect id="사각형_45" data-name="사각형 45" width="5.636" height="1.096" transform="translate(9.623 2.303)" fill="#210000"/>
      <path id="패스_105" data-name="패스 105" d="M674.251,520.75l-1.985-1.476-1.609-3.233-.016-.031-3.47-1.312-.063.166,3.406,1.288,1.6,3.221,2.089,1.563Z" transform="translate(-665.725 -509.092)" fill="#210000"/>
      <path id="패스_106" data-name="패스 106" d="M677.706,524.766a.482.482,0,1,1,.468-.5.482.482,0,0,1-.468.5Z" transform="translate(-671.22 -514.045)" fill="#210000"/>
      <path id="패스_107" data-name="패스 107" d="M673.881,517.6a.715.715,0,1,1,.693-.736h0a.714.714,0,0,1-.693.735Z" transform="translate(-669.008 -509.892)" fill="#210000"/>
      <path id="패스_108" data-name="패스 108" d="M666.616,514.785a.483.483,0,1,1,.468-.5A.483.483,0,0,1,666.616,514.785Z" transform="translate(-665.187 -508.615)" fill="#210000"/>
    </g>
    <path id="패스_109" data-name="패스 109" d="M689.668,524.015a21.164,21.164,0,0,0-1.032-7.08,17.472,17.472,0,0,1-.788-3.747,16.556,16.556,0,0,1-.153-2.625h-5.062a16.563,16.563,0,0,1-.152,2.625,17.533,17.533,0,0,1-.788,3.747c-.174.539-.319,1.056-.446,1.566l.4.3a.481.481,0,1,1,.453.817l.182,2.22a.456.456,0,0,1,.43.481c0,.011,0,.023,0,.034l2.467.657,1.38-2.058a.478.478,0,1,1,.361.145.474.474,0,0,1-.217-.042l-1.45,2.162-2.59-.69a.482.482,0,1,1-.558-.674l-.182-2.219a.476.476,0,0,1-.382-.689l-.34-.255a22.308,22.308,0,0,0-.542,5.33h-.69v.912H690.1v-.912Zm-2.787-7.13h-1.863v-1.863h1.862Z" transform="translate(-14441.278 -25113.293)" fill="#210000"/>
  </g>
</svg>
