<svg id="그룹_24" data-name="그룹 24" xmlns="http://www.w3.org/2000/svg" width="22.5" height="22.5" viewBox="0 0 22.5 22.5">
  <path id="패스_1" data-name="패스 1" d="M-201.3,402.792a11.317,11.317,0,0,0-10.009,6.007,108.449,108.449,0,0,1,18.8-1.841A11.311,11.311,0,0,0-201.3,402.792Z" transform="translate(212.572 -402.792)" fill="#ce983c"/>
  <path id="패스_2" data-name="패스 2" d="M-193.606,410.155a107.356,107.356,0,0,0-18.7,1.841,11.273,11.273,0,0,0-.791,8.582,91.5,91.5,0,0,1,21.721-5.851A11.211,11.211,0,0,0-193.606,410.155Z" transform="translate(213.602 -405.989)" fill="#c96100"/>
  <path id="패스_3" data-name="패스 3" d="M-201.956,432A11.262,11.262,0,0,0-190.7,420.731a11.253,11.253,0,0,0-.282-2.5,91.561,91.561,0,0,0-21.725,5.851A11.259,11.259,0,0,0-201.956,432Z" transform="translate(213.199 -409.499)" fill="#a34e00"/>
</svg>
