<svg xmlns="http://www.w3.org/2000/svg" width="16.947" height="13.791" viewBox="0 0 16.947 13.791">
  <path id="패스_234" data-name="패스 234" d="M59.224,175.878a3.492,3.492,0,0,1-3.24-2.417,3.467,3.467,0,0,0,1.493-.044.414.414,0,0,0,.049-.024,3.471,3.471,0,0,1-2.261-1.6,3.387,3.387,0,0,1-.51-1.852,3.419,3.419,0,0,0,1.549.423,3.5,3.5,0,0,1-1.433-2.113,3.45,3.45,0,0,1,.374-2.522,9.969,9.969,0,0,0,7.182,3.639c-.02-.138-.042-.26-.056-.381a3.39,3.39,0,0,1,.509-2.278,3.347,3.347,0,0,1,2.362-1.573,3.389,3.389,0,0,1,3.048.971.178.178,0,0,0,.186.055,7.024,7.024,0,0,0,2.026-.779l.046-.024.024,0a3.562,3.562,0,0,1-1.492,1.9,6.671,6.671,0,0,0,1.939-.522l.014.017c-.133.174-.262.352-.4.521a6.732,6.732,0,0,1-1.267,1.2.117.117,0,0,0-.056.11,9.522,9.522,0,0,1-.066,1.546,10.188,10.188,0,0,1-.9,3.1,10.009,10.009,0,0,1-1.882,2.745,9.306,9.306,0,0,1-4.785,2.667,10.461,10.461,0,0,1-1.94.23,9.834,9.834,0,0,1-5.573-1.5l-.081-.053a7.044,7.044,0,0,0,3.483-.48A6.914,6.914,0,0,0,59.224,175.878Z" transform="translate(-54.086 -165.086)" fill="#fff" fill-rule="evenodd"/>
</svg>
