<svg xmlns="http://www.w3.org/2000/svg" width="22" height="50" viewBox="0 0 22 50">
  <g id="그룹_5701" data-name="그룹 5701" transform="translate(13937 22013)">
    <g id="그룹_5699" data-name="그룹 5699">
      <path id="Icon_awesome-calendar-alt" data-name="Icon awesome-calendar-alt" d="M0,21.974a2.317,2.317,0,0,0,2.357,2.273H19.643A2.317,2.317,0,0,0,22,21.974V9.093H0Zm15.714-9.282a.581.581,0,0,1,.589-.568h1.964a.581.581,0,0,1,.589.568v1.894a.581.581,0,0,1-.589.568H16.3a.581.581,0,0,1-.589-.568Zm0,6.062a.581.581,0,0,1,.589-.568h1.964a.581.581,0,0,1,.589.568v1.894a.581.581,0,0,1-.589.568H16.3a.581.581,0,0,1-.589-.568ZM9.429,12.692a.581.581,0,0,1,.589-.568h1.964a.581.581,0,0,1,.589.568v1.894a.581.581,0,0,1-.589.568H10.018a.581.581,0,0,1-.589-.568Zm0,6.062a.581.581,0,0,1,.589-.568h1.964a.581.581,0,0,1,.589.568v1.894a.581.581,0,0,1-.589.568H10.018a.581.581,0,0,1-.589-.568ZM3.143,12.692a.581.581,0,0,1,.589-.568H5.7a.581.581,0,0,1,.589.568v1.894a.581.581,0,0,1-.589.568H3.732a.581.581,0,0,1-.589-.568Zm0,6.062a.581.581,0,0,1,.589-.568H5.7a.581.581,0,0,1,.589.568v1.894a.581.581,0,0,1-.589.568H3.732a.581.581,0,0,1-.589-.568Zm16.5-15.723H17.286V.758A.774.774,0,0,0,16.5,0H14.929a.774.774,0,0,0-.786.758V3.031H7.857V.758A.774.774,0,0,0,7.071,0H5.5a.774.774,0,0,0-.786.758V3.031H2.357A2.317,2.317,0,0,0,0,5.3V7.577H22V5.3A2.317,2.317,0,0,0,19.643,3.031Z" transform="translate(-13937 -22013)" fill="#404040"/>
      <rect id="사각형_1844" data-name="사각형 1844" width="22" height="25" transform="translate(-13937 -22013)" fill="none"/>
    </g>
    <g id="그룹_5700" data-name="그룹 5700" transform="translate(5 -14)">
      <g id="그룹_5698" data-name="그룹 5698" transform="translate(-15610 -22787)">
        <path id="Icon_awesome-calendar-alt-2" data-name="Icon awesome-calendar-alt" d="M0,21.974a2.317,2.317,0,0,0,2.357,2.273H19.643A2.317,2.317,0,0,0,22,21.974V9.093H0Zm15.714-9.282a.581.581,0,0,1,.589-.568h1.964a.581.581,0,0,1,.589.568v1.894a.581.581,0,0,1-.589.568H16.3a.581.581,0,0,1-.589-.568Zm0,6.062a.581.581,0,0,1,.589-.568h1.964a.581.581,0,0,1,.589.568v1.894a.581.581,0,0,1-.589.568H16.3a.581.581,0,0,1-.589-.568ZM9.429,12.692a.581.581,0,0,1,.589-.568h1.964a.581.581,0,0,1,.589.568v1.894a.581.581,0,0,1-.589.568H10.018a.581.581,0,0,1-.589-.568Zm0,6.062a.581.581,0,0,1,.589-.568h1.964a.581.581,0,0,1,.589.568v1.894a.581.581,0,0,1-.589.568H10.018a.581.581,0,0,1-.589-.568ZM3.143,12.692a.581.581,0,0,1,.589-.568H5.7a.581.581,0,0,1,.589.568v1.894a.581.581,0,0,1-.589.568H3.732a.581.581,0,0,1-.589-.568Zm0,6.062a.581.581,0,0,1,.589-.568H5.7a.581.581,0,0,1,.589.568v1.894a.581.581,0,0,1-.589.568H3.732a.581.581,0,0,1-.589-.568Zm16.5-15.723H17.286V.758A.774.774,0,0,0,16.5,0H14.929a.774.774,0,0,0-.786.758V3.031H7.857V.758A.774.774,0,0,0,7.071,0H5.5a.774.774,0,0,0-.786.758V3.031H2.357A2.317,2.317,0,0,0,0,5.3V7.577H22V5.3A2.317,2.317,0,0,0,19.643,3.031Z" transform="translate(1668 813)" fill="#fff"/>
      </g>
      <rect id="사각형_1845" data-name="사각형 1845" width="22" height="25" transform="translate(-13942 -21974)" fill="none"/>
    </g>
  </g>
</svg>
