<svg id="그룹_4338" data-name="그룹 4338" xmlns="http://www.w3.org/2000/svg" width="11.007" height="21.08" viewBox="0 0 11.007 21.08">
  <path id="패스_233" data-name="패스 233" d="M37.163,166.95c.652-.022,1.3-.006,1.959-.007h.27v-3.4c-.35-.035-.715-.086-1.079-.1-.67-.029-1.341-.062-2.012-.048a4.936,4.936,0,0,0-2.838.877,4.248,4.248,0,0,0-1.705,2.837,9.971,9.971,0,0,0-.119,1.457c-.019.763,0,1.525,0,2.288v.286H28.385v3.794h3.232v9.537h3.949V174.95h3.22c.166-1.261.327-2.51.5-3.811-.26,0-.492,0-.725,0-.915,0-3.018,0-3.018,0s.009-1.881.032-2.7C35.6,167.324,36.266,166.982,37.163,166.95Z" transform="translate(-28.385 -163.393)" fill="#561908" fill-rule="evenodd"/>
</svg>
