<svg xmlns="http://www.w3.org/2000/svg" width="9.961" height="19.074" viewBox="0 0 9.961 19.074">
  <path id="패스_233" data-name="패스 233" d="M36.328,166.612c.59-.02,1.18-.005,1.773-.007h.244v-3.073c-.317-.032-.647-.078-.977-.093-.606-.026-1.213-.057-1.82-.043a4.466,4.466,0,0,0-2.568.794,3.844,3.844,0,0,0-1.543,2.567,9.023,9.023,0,0,0-.108,1.318c-.017.69,0,1.38,0,2.07v.259H28.385v3.433h2.924v8.63h3.574V173.85H37.8c.15-1.141.3-2.271.45-3.449-.235,0-.446,0-.656,0-.828,0-2.731,0-2.731,0s.008-1.7.029-2.441C34.917,166.95,35.517,166.641,36.328,166.612Z" transform="translate(-28.385 -163.393)" fill="#fff" fill-rule="evenodd"/>
</svg>
