<svg xmlns="http://www.w3.org/2000/svg" width="19.612" height="15.959" viewBox="0 0 19.612 15.959">
  <g id="ico_gjcenter_twitter_2" transform="translate(0 -3.756)">
    <path id="패스_234" data-name="패스 234" d="M60.032,177.575a4.04,4.04,0,0,1-3.749-2.8,4.012,4.012,0,0,0,1.728-.051.481.481,0,0,0,.057-.028,4.017,4.017,0,0,1-2.616-1.848,3.919,3.919,0,0,1-.591-2.144,3.956,3.956,0,0,0,1.793.489,4.05,4.05,0,0,1-1.658-2.445,3.992,3.992,0,0,1,.433-2.919,11.536,11.536,0,0,0,8.311,4.211c-.024-.159-.049-.3-.065-.441a3.923,3.923,0,0,1,.589-2.636A3.873,3.873,0,0,1,67,165.147a3.922,3.922,0,0,1,3.527,1.123.206.206,0,0,0,.215.064,8.127,8.127,0,0,0,2.345-.9c.017-.01.035-.019.053-.028l.028,0a4.122,4.122,0,0,1-1.726,2.194,7.719,7.719,0,0,0,2.243-.6l.017.019c-.154.2-.3.408-.463.6a7.79,7.79,0,0,1-1.466,1.392.136.136,0,0,0-.065.128,11.019,11.019,0,0,1-.076,1.789,11.789,11.789,0,0,1-1.039,3.588,11.582,11.582,0,0,1-2.178,3.177,10.769,10.769,0,0,1-5.537,3.087,12.105,12.105,0,0,1-2.245.266,11.38,11.38,0,0,1-6.449-1.73l-.094-.061a8.151,8.151,0,0,0,4.031-.556A8,8,0,0,0,60.032,177.575Z" transform="translate(-54.085 -161.329)" fill="#561908" fill-rule="evenodd"/>
  </g>
</svg>
