<svg id="ico_gjcenter_band_2" xmlns="http://www.w3.org/2000/svg" width="15.751" height="19.957" viewBox="0 0 15.751 19.957">
  <g id="그룹_777" data-name="그룹 777">
    <path id="패스_237" data-name="패스 237" d="M-124.3,315.21a7.9,7.9,0,0,0-1.94.241v-1.493a.511.511,0,0,0-.011-.1A2.994,2.994,0,0,0-129.211,311a2.994,2.994,0,0,0-2.957,2.852c-.007.034-.011,5.6-.011,5.6v3.625c0,.026,0,.051,0,.076a7.876,7.876,0,0,0,7.875,7.8,7.876,7.876,0,0,0,7.876-7.876A7.876,7.876,0,0,0-124.3,315.21Zm0,14.542a6.666,6.666,0,0,1-6.665-6.666v-9.069a1.766,1.766,0,0,1,1.758-1.774,1.766,1.766,0,0,1,1.758,1.774l0,8.99a3.222,3.222,0,0,0,3.153,3.236,3.157,3.157,0,0,0,3.157-3.157,3.157,3.157,0,0,0-3.157-3.157,3.145,3.145,0,0,0-1.94.667v-1.351a4.282,4.282,0,0,1,1.94-.462,4.3,4.3,0,0,1,4.3,4.3,4.3,4.3,0,0,1-4.3,4.3,4.3,4.3,0,0,1-4.3-4.3v-9.127a.607.607,0,0,0-.6-.577.606.606,0,0,0-.6.577v9.127c0,.139.006.275.017.411a5.512,5.512,0,0,0,5.5,5.1,5.512,5.512,0,0,0,5.512-5.513,5.512,5.512,0,0,0-5.512-5.513,5.5,5.5,0,0,0-1.94.352v-1.218a6.658,6.658,0,0,1,1.94-.287,6.666,6.666,0,0,1,6.666,6.666A6.666,6.666,0,0,1-124.3,329.751Zm-1.94-6.666a1.94,1.94,0,0,1,1.94-1.94,1.94,1.94,0,0,1,1.94,1.94,1.939,1.939,0,0,1-1.94,1.939A1.939,1.939,0,0,1-126.244,323.085Z" transform="translate(132.18 -311.004)" fill="#561908"/>
  </g>
</svg>
