<svg id="그룹_4340" data-name="그룹 4340" xmlns="http://www.w3.org/2000/svg" width="19.02" height="19.01" viewBox="0 0 19.02 19.01">
  <g id="그룹_768" data-name="그룹 768">
    <path id="패스_235" data-name="패스 235" d="M100.866,168.681a5.039,5.039,0,0,0-1.538-3.245,5.268,5.268,0,0,0-3.486-1.416,68.692,68.692,0,0,0-9.408.1,4.8,4.8,0,0,0-4.114,3.694c-.453,1.618-.363,9.077-.1,10.676a4.815,4.815,0,0,0,3.82,4.148c1.5.386,8.873.337,10.528.07a4.822,4.822,0,0,0,4.166-3.8C101.171,177.248,101.019,170.18,100.866,168.681Zm-1.75,9.5a3.22,3.22,0,0,1-3.027,2.873c-1.534.168-8.385.26-9.809-.138a3.116,3.116,0,0,1-2.365-2.686,63.49,63.49,0,0,1,0-9.6,3.213,3.213,0,0,1,3.014-2.86,67.075,67.075,0,0,1,9.362.038,3.22,3.22,0,0,1,2.867,3.031A68.243,68.243,0,0,1,99.116,178.185Zm-7.6-9.642a4.876,4.876,0,1,0,4.873,4.879A4.876,4.876,0,0,0,91.513,168.543Zm-.033,8.027a3.154,3.154,0,1,1,3.181-3.126A3.155,3.155,0,0,1,91.48,176.569Zm6.241-8.211a1.142,1.142,0,1,1-1.139-1.145A1.142,1.142,0,0,1,97.721,168.358Z" transform="translate(-82.002 -163.912)" fill="#561908"/>
  </g>
</svg>
