<svg xmlns="http://www.w3.org/2000/svg" width="15.68" height="13.867" viewBox="0 0 15.68 13.867">
  <g id="ico_gjac" transform="translate(13612.254 24602.934)">
    <path id="패스_96" data-name="패스 96" d="M729.759,536.142l-.01,1.632h11.839v-1.632Z" transform="translate(-14338.802 -25126.84)" fill="#210000"/>
    <g id="그룹_43" data-name="그룹 43" transform="translate(-13611.497 -24602.934)">
      <path id="패스_97" data-name="패스 97" d="M724.117,508.226v.678h0c6.215-.912,11.12,5.7,11.12,5.7a3.8,3.8,0,0,1,3.764-1.1c.012-.059.025-.118.038-.176C731.66,506.755,725.3,507.929,724.117,508.226Z" transform="translate(-724.117 -507.954)" fill="#210000"/>
      <path id="패스_98" data-name="패스 98" d="M726.893,520.654l.645.035-.272-5.548-.743-.02A16.15,16.15,0,0,0,726.893,520.654Z" transform="translate(-725.428 -512.01)" fill="#210000"/>
      <path id="패스_99" data-name="패스 99" d="M726.695,511.624l-.01.953s2.069-.731,7.144,2.39l.056-.129A11.325,11.325,0,0,0,726.695,511.624Z" transform="translate(-725.57 -510.031)" fill="#210000"/>
      <path id="패스_100" data-name="패스 100" d="M747.275,525.97l.089,3.105H741.58l-.042-4.462,5.557.9C747.2,525.528,747.276,525.729,747.275,525.97Z" transform="translate(-733.977 -517.382)" fill="#210000"/>
    </g>
    <path id="패스_101" data-name="패스 101" d="M725.424,515.182l.27,5.871c0,.193-.059.214-.059.214l-.852-.037,0,.013h-.033v.941h-.725v.389h-.476v.246h-.424v.32h-.386v.533l-.368.057.007,1.529,2.59,0,0-1.483,4.992-.005-.034-5.271s-.007-.144.065-.144l2.826.494.03-.141C731.862,517.947,729.056,515.61,725.424,515.182Z" transform="translate(-14334.628 -25114.979)" fill="#210000"/>
  </g>
</svg>
