<svg xmlns="http://www.w3.org/2000/svg" width="21.04" height="22.035" viewBox="0 0 21.04 22.035">
  <g id="ico_gjcenter_kakao_2" transform="translate(0 -1.594)">
    <g id="그룹_781" data-name="그룹 781" transform="translate(0 1.593)">
      <path id="패스_244" data-name="패스 244" d="M240.274,376.2c-5.81,0-10.52,4.377-10.52,9.776a9.547,9.547,0,0,0,4.186,7.806v4.291a.162.162,0,0,0,.088.144.16.16,0,0,0,.074.018.163.163,0,0,0,.094-.03l3.765-2.689a11.325,11.325,0,0,0,2.314.238c5.81,0,10.52-4.377,10.52-9.777S246.084,376.2,240.274,376.2Z" transform="translate(-229.754 -376.205)" fill="#561908"/>
      <g id="그룹_780" data-name="그룹 780" transform="translate(3.417 5.583)">
        <path id="패스_245" data-name="패스 245" d="M273.917,397.032a2.039,2.039,0,0,0-1.57-.584,2.131,2.131,0,0,0-1.029.249,2.467,2.467,0,0,0-.59.438V393.97H269.24v8.386h1.478v-3.133a2.157,2.157,0,0,1,.106-.7,1.59,1.59,0,0,1,.284-.516,1.224,1.224,0,0,1,.413-.319,1.162,1.162,0,0,1,.5-.111.964.964,0,0,1,.707.246,1.274,1.274,0,0,1,.248.9v3.628h1.478v-3.569A2.525,2.525,0,0,0,273.917,397.032Z" transform="translate(-260.247 -393.97)" fill="#fff"/>
        <path id="패스_246" data-name="패스 246" d="M244.59,396.068a2.444,2.444,0,0,1,2.276,1.618h1.588a4,4,0,0,0-3.863-3.2,4.115,4.115,0,0,0,0,8.224,4,4,0,0,0,3.863-3.2h-1.587a2.445,2.445,0,0,1-2.276,1.618,2.534,2.534,0,0,1,0-5.064Z" transform="translate(-240.627 -394.325)" fill="#fff"/>
      </g>
    </g>
  </g>
</svg>
