<svg xmlns="http://www.w3.org/2000/svg" width="29" height="29" viewBox="0 0 29 29">
  <g id="ico_gjart_kakao" transform="translate(-1719.5 -919.5)">
    <rect id="사각형_186" data-name="사각형 186" width="29" height="29" rx="5" transform="translate(1719.5 919.5)" fill="#fed702"/>
    <g id="그룹_4014" data-name="그룹 4014" transform="translate(1725.96 925.959)">
      <path id="패스_244" data-name="패스 244" d="M237.257,376.2a7.253,7.253,0,0,0-7.5,6.973,6.809,6.809,0,0,0,2.985,5.567v3.06a.116.116,0,0,0,.063.1.114.114,0,0,0,.053.013.117.117,0,0,0,.067-.022l2.685-1.918a8.076,8.076,0,0,0,1.65.17,6.991,6.991,0,1,0,0-13.945Z" transform="translate(-229.214 -375.665)" fill="#302e16"/>
    </g>
  </g>
</svg>
