<svg xmlns="http://www.w3.org/2000/svg" width="35.371" height="35.367" viewBox="0 0 35.371 35.367">
  <g id="link1" transform="translate(0 -0.002)">
    <g id="그룹_24" data-name="그룹 24" transform="translate(0 0)" opacity="0.2">
      <path id="패스_1" data-name="패스 1" d="M-195.663,402.792a17.681,17.681,0,0,0-15.649,9.443,168.667,168.667,0,0,1,29.387-2.895A17.649,17.649,0,0,0-195.663,402.792Z" transform="translate(213.348 -402.792)" fill="#ce983c"/>
      <path id="패스_2" data-name="패스 2" d="M-182.179,410.155a168.67,168.67,0,0,0-29.386,2.895,17.725,17.725,0,0,0-1.243,13.49,143.76,143.76,0,0,1,34.135-9.2A17.625,17.625,0,0,0-182.179,410.155Z" transform="translate(213.602 -403.607)" fill="#c96100"/>
      <path id="패스_3" data-name="패스 3" d="M-195.817,439.871a17.7,17.7,0,0,0,17.685-17.712,17.7,17.7,0,0,0-.444-3.923,143.785,143.785,0,0,0-34.131,9.2A17.69,17.69,0,0,0-195.817,439.871Z" transform="translate(213.502 -404.501)" fill="#a34e00"/>
    </g>
    <g id="그룹_818" data-name="그룹 818" transform="translate(4.254 10.115)">
      <g id="그룹_816" data-name="그룹 816" transform="translate(13.432)">
        <path id="패스_488" data-name="패스 488" d="M-190.657,424.576a.384.384,0,0,1,.384.383v1.9a.383.383,0,0,0,.382.383h6.275a.384.384,0,0,0,.383-.383v-1.9a.383.383,0,0,1,.382-.383h.81V414.488a.594.594,0,0,0-.594-.594h-8.239a.594.594,0,0,0-.594.594v10.088Z" transform="translate(193.466 -413.893)" fill="#fff" stroke="#4e1d0e" stroke-miterlimit="10" stroke-width="1"/>
        <path id="패스_487" data-name="패스 487" d="M-183.479,426.561v1.9a.383.383,0,0,1-.382.382h-6.275a.382.382,0,0,1-.382-.382v-1.9a.384.384,0,0,0-.383-.383h-2.431a.384.384,0,0,0-.382.383v6.907a.383.383,0,0,0,.382.383h12.666a.383.383,0,0,0,.382-.383V426.56a.383.383,0,0,0-.382-.383H-183.1A.384.384,0,0,0-183.479,426.561Z" transform="translate(193.715 -415.495)" fill="#a1460f" stroke="#4e1d0e" stroke-miterlimit="10" stroke-width="1"/>
        <path id="사각형_85" data-name="사각형 85" d="M-189.14,415.9h5.292v4.177a1.045,1.045,0,0,1-1.081,1h-3.132a1.044,1.044,0,0,1-1.08-1V415.9Z" transform="translate(193.209 -415.895)" fill="#ce983c" stroke="#4e1d0e" stroke-miterlimit="10" stroke-width="1"/>
        <line id="선_18" data-name="선 18" x2="3.772" transform="translate(4.83 16.797)" fill="none" stroke="#4e1d0e" stroke-miterlimit="10" stroke-width="1"/>
        <g id="그룹_815" data-name="그룹 815" transform="translate(3.09 18.358)">
          <line id="선_19" data-name="선 19" y2="2.081" transform="translate(7.252)" fill="none" stroke="#4e1d0e" stroke-miterlimit="10" stroke-width="1"/>
          <line id="선_20" data-name="선 20" y2="2.081" fill="none" stroke="#4e1d0e" stroke-miterlimit="10" stroke-width="1"/>
        </g>
        <line id="선_21" data-name="선 21" x2="11.9" transform="translate(0.766 20.439)" fill="none" stroke="#4e1d0e" stroke-miterlimit="10" stroke-width="1"/>
      </g>
      <g id="그룹_817" data-name="그룹 817" transform="translate(0 0.001)">
        <path id="패스_488-2" data-name="패스 488-2" d="M-205.759,424.576a.383.383,0,0,1,.383.383v1.9a.383.383,0,0,0,.382.383h6.275a.383.383,0,0,0,.383-.383v-1.9a.384.384,0,0,1,.382-.383h.81V414.488a.594.594,0,0,0-.594-.594h-8.239a.594.594,0,0,0-.594.594v10.088Z" transform="translate(208.569 -413.894)" fill="#fff" stroke="#4e1d0e" stroke-miterlimit="10" stroke-width="1"/>
        <path id="패스_487-2" data-name="패스 487-2" d="M-198.581,426.561v1.9a.383.383,0,0,1-.383.382h-6.275a.383.383,0,0,1-.382-.382v-1.9a.384.384,0,0,0-.383-.383h-2.43a.384.384,0,0,0-.383.383v6.907a.383.383,0,0,0,.383.383h12.665a.383.383,0,0,0,.382-.383V426.56a.383.383,0,0,0-.382-.383h-2.43A.383.383,0,0,0-198.581,426.561Z" transform="translate(208.818 -415.496)" fill="#a1460f" stroke="#4e1d0e" stroke-miterlimit="10" stroke-width="1"/>
        <path id="사각형_85-2" data-name="사각형 85-2" d="M-204.243,415.9h5.292v4.176a1.044,1.044,0,0,1-1.08,1h-3.132a1.044,1.044,0,0,1-1.081-1V415.9Z" transform="translate(208.312 -415.894)" fill="#ce983c" stroke="#4e1d0e" stroke-miterlimit="10" stroke-width="1"/>
        <line id="선_18-2" data-name="선 18-2" x2="3.772" transform="translate(4.83 16.796)" fill="none" stroke="#4e1d0e" stroke-miterlimit="10" stroke-width="1"/>
        <g id="그룹_815-2" data-name="그룹 815-2" transform="translate(3.09 18.357)">
          <line id="선_19-2" data-name="선 19-2" y2="2.081" transform="translate(7.252)" fill="none" stroke="#4e1d0e" stroke-miterlimit="10" stroke-width="1"/>
          <line id="선_20-2" data-name="선 20-2" y2="2.081" fill="none" stroke="#4e1d0e" stroke-miterlimit="10" stroke-width="1"/>
        </g>
        <line id="선_21-2" data-name="선 21-2" x2="11.9" transform="translate(0.766 20.438)" fill="none" stroke="#4e1d0e" stroke-miterlimit="10" stroke-width="1"/>
      </g>
    </g>
  </g>
</svg>
