<svg xmlns="http://www.w3.org/2000/svg" xmlns:xlink="http://www.w3.org/1999/xlink" width="34.671" height="34.67" viewBox="0 0 34.671 34.67">
  <defs>
    <clipPath id="clip-path">
      <rect id="사각형_1170" data-name="사각형 1170" width="26.497" height="16.739" rx="0.824" fill="none"/>
    </clipPath>
  </defs>
  <g id="link2" transform="translate(87.733 -489.475)">
    <g id="그룹_24" data-name="그룹 24" transform="translate(-87.734 489.474)" opacity="0.2">
      <path id="패스_1" data-name="패스 1" d="M-70.1,489.474a17.332,17.332,0,0,0-15.339,9.257,165.232,165.232,0,0,1,28.8-2.838A17.3,17.3,0,0,0-70.1,489.474Z" transform="translate(87.44 -489.474)" fill="#ce983c"/>
      <path id="패스_2" data-name="패스 2" d="M-56.934,496.837a165.232,165.232,0,0,0-28.8,2.838,17.376,17.376,0,0,0-1.22,13.222A140.921,140.921,0,0,1-53.5,503.882,17.264,17.264,0,0,0-56.934,496.837Z" transform="translate(87.734 -490.418)" fill="#c96100"/>
      <path id="패스_3" data-name="패스 3" d="M-70.283,526.125a17.347,17.347,0,0,0,17.334-17.361,17.343,17.343,0,0,0-.434-3.845,140.9,140.9,0,0,0-33.456,9.015A17.34,17.34,0,0,0-70.283,526.125Z" transform="translate(87.619 -491.455)" fill="#a34e00"/>
    </g>
    <g id="그룹_4419" data-name="그룹 4419" transform="translate(-80.313 498.439)">
      <g id="그룹_4418" data-name="그룹 4418">
        <g id="그룹_4417" data-name="그룹 4417" clip-path="url(#clip-path)">
          <g id="그룹_4416" data-name="그룹 4416" transform="translate(-7.633 -6.367)">
            <g id="그룹_24-2" data-name="그룹 24">
              <rect id="사각형_1169" data-name="사각형 1169" width="51.588" height="14.382" fill="#ce983c"/>
              <path id="패스_1-2" data-name="패스 1" d="M-65.275,498.194a15.814,15.814,0,0,0-14,8.445,150.828,150.828,0,0,1,26.28-2.589A15.782,15.782,0,0,0-65.275,498.194Z" transform="translate(89.557 -495.355)" fill="#ce983c"/>
              <path id="패스_2-2" data-name="패스 2" d="M-53.295,504.5a184.134,184.134,0,0,0-29.029,3.077c-1.953,3.715-1.146,8.173.1,12.183a142.24,142.24,0,0,1,32.068-8.832A15.765,15.765,0,0,0-53.295,504.5Z" transform="translate(89.861 -495.81)" fill="#c96100"/>
              <path id="패스_3-2" data-name="패스 3" d="M-65.361,530.78a15.827,15.827,0,0,0,15.816-15.84,15.821,15.821,0,0,0-.4-3.508,128.519,128.519,0,0,0-30.523,8.225A15.821,15.821,0,0,0-65.361,530.78Z" transform="translate(89.643 -496.309)" fill="#a34e00"/>
            </g>
            <g id="그룹_25" data-name="그룹 25" transform="translate(21.697 10.357)">
              <rect id="사각형_10" data-name="사각형 10" width="5.907" height="1.149" transform="translate(2.487)" fill="#561908"/>
              <path id="패스_4" data-name="패스 4" d="M-56.808,522a22.2,22.2,0,0,0-1.081-7.422,18.326,18.326,0,0,1-.826-3.928,17.481,17.481,0,0,1-.16-2.751h-5.308a17.481,17.481,0,0,1-.16,2.751,18.326,18.326,0,0,1-.826,3.928A22.18,22.18,0,0,0-66.251,522h-.722v.955h10.621V522Z" transform="translate(66.973 -506.412)" fill="#561908"/>
              <rect id="사각형_11" data-name="사각형 11" width="1.953" height="1.952" transform="translate(5.291 6.16)" fill="#210000"/>
            </g>
            <g id="그룹_26" data-name="그룹 26" transform="translate(12.777 8.853)">
              <path id="패스_5" data-name="패스 5" d="M-65.131,515.694l-3.054-.814-.261-3.136-2.732-2.044-1.577-3.17-3.351-1.268.061-.162,3.417,1.292.015.03,1.584,3.182,2.752,2.047.257,3.093,2.815.75,1.621-2.417.145.1Z" transform="translate(76.552 -504.706)" fill="#fff"/>
              <path id="패스_6" data-name="패스 6" d="M-70.734,510.453a.475.475,0,0,1-.487-.461.474.474,0,0,1,.46-.487.475.475,0,0,1,.488.459A.476.476,0,0,1-70.734,510.453Z" transform="translate(76.2 -505.024)" fill="#fff"/>
              <path id="패스_7" data-name="패스 7" d="M-67.785,512.647a.476.476,0,0,1-.489-.46.475.475,0,0,1,.461-.489.475.475,0,0,1,.489.46h0A.475.475,0,0,1-67.785,512.647Z" transform="translate(75.987 -505.182)" fill="#fff"/>
              <path id="패스_8" data-name="패스 8" d="M-67.508,516A.474.474,0,0,1-68,515.54a.476.476,0,0,1,.461-.488.475.475,0,0,1,.488.46A.476.476,0,0,1-67.508,516Z" transform="translate(75.967 -505.423)" fill="#fff"/>
              <path id="패스_9" data-name="패스 9" d="M-64.343,516.846a.475.475,0,0,1-.488-.461.474.474,0,0,1,.46-.488.474.474,0,0,1,.488.46h0A.475.475,0,0,1-64.343,516.846Z" transform="translate(75.739 -505.484)" fill="#fff"/>
              <path id="패스_10" data-name="패스 10" d="M-62.558,514.2a.475.475,0,0,1-.488-.461.475.475,0,0,1,.461-.488.475.475,0,0,1,.488.46.475.475,0,0,1-.461.489Z" transform="translate(75.61 -505.293)" fill="#fff"/>
              <path id="패스_11" data-name="패스 11" d="M-72.464,507.218a.7.7,0,0,1-.724-.683.7.7,0,0,1,.683-.724.7.7,0,0,1,.724.683.7.7,0,0,1-.683.724Z" transform="translate(76.341 -504.758)" fill="#fff"/>
              <path id="패스_12" data-name="패스 12" d="M-76.1,505.625a.475.475,0,0,1-.489-.46.476.476,0,0,1,.461-.489.475.475,0,0,1,.488.461A.475.475,0,0,1-76.1,505.625Z" transform="translate(76.586 -504.676)" fill="#fff"/>
            </g>
          </g>
        </g>
        <g id="그룹_4428" data-name="그룹 4428" clip-path="url(#clip-path)">
          <g id="그룹_4427" data-name="그룹 4427" transform="translate(-7.633 -6.367)">
            <g id="그룹_24-3" data-name="그룹 24">
              <rect id="사각형_1179" data-name="사각형 1179" width="51.588" height="14.382" fill="#ce983c"/>
              <path id="패스_1-3" data-name="패스 1" d="M-65.275,498.194a15.814,15.814,0,0,0-14,8.445,150.828,150.828,0,0,1,26.28-2.589A15.782,15.782,0,0,0-65.275,498.194Z" transform="translate(89.557 -495.355)" fill="#ce983c"/>
              <path id="패스_2-3" data-name="패스 2" d="M-53.295,504.5a184.134,184.134,0,0,0-29.029,3.077c-1.953,3.715-1.146,8.173.1,12.183a142.24,142.24,0,0,1,32.068-8.832A15.765,15.765,0,0,0-53.295,504.5Z" transform="translate(89.861 -495.81)" fill="#c96100"/>
              <path id="패스_3-3" data-name="패스 3" d="M-65.361,530.78a15.827,15.827,0,0,0,15.816-15.84,15.821,15.821,0,0,0-.4-3.508,128.519,128.519,0,0,0-30.523,8.225A15.821,15.821,0,0,0-65.361,530.78Z" transform="translate(89.643 -496.309)" fill="#a34e00"/>
            </g>
            <g id="그룹_25-2" data-name="그룹 25" transform="translate(21.697 10.357)">
              <rect id="사각형_10-2" data-name="사각형 10" width="5.907" height="1.149" transform="translate(2.487)" fill="#561908"/>
              <path id="패스_4-2" data-name="패스 4" d="M-56.808,522a22.2,22.2,0,0,0-1.081-7.422,18.326,18.326,0,0,1-.826-3.928,17.481,17.481,0,0,1-.16-2.751h-5.308a17.481,17.481,0,0,1-.16,2.751,18.326,18.326,0,0,1-.826,3.928A22.18,22.18,0,0,0-66.251,522h-.722v.955h10.621V522Z" transform="translate(66.973 -506.412)" fill="#561908"/>
              <rect id="사각형_11-2" data-name="사각형 11" width="1.953" height="1.952" transform="translate(5.291 6.16)" fill="#210000"/>
            </g>
            <g id="그룹_26-2" data-name="그룹 26" transform="translate(12.777 8.853)">
              <path id="패스_5-2" data-name="패스 5" d="M-65.131,515.694l-3.054-.814-.261-3.136-2.732-2.044-1.577-3.17-3.351-1.268.061-.162,3.417,1.292.015.03,1.584,3.182,2.752,2.047.257,3.093,2.815.75,1.621-2.417.145.1Z" transform="translate(76.552 -504.706)" fill="#fff"/>
              <path id="패스_6-2" data-name="패스 6" d="M-70.734,510.453a.475.475,0,0,1-.487-.461.474.474,0,0,1,.46-.487.475.475,0,0,1,.488.459A.476.476,0,0,1-70.734,510.453Z" transform="translate(76.2 -505.024)" fill="#fff"/>
              <path id="패스_7-2" data-name="패스 7" d="M-67.785,512.647a.476.476,0,0,1-.489-.46.475.475,0,0,1,.461-.489.475.475,0,0,1,.489.46h0A.475.475,0,0,1-67.785,512.647Z" transform="translate(75.987 -505.182)" fill="#fff"/>
              <path id="패스_8-2" data-name="패스 8" d="M-67.508,516A.474.474,0,0,1-68,515.54a.476.476,0,0,1,.461-.488.475.475,0,0,1,.488.46A.476.476,0,0,1-67.508,516Z" transform="translate(75.967 -505.423)" fill="#fff"/>
              <path id="패스_9-2" data-name="패스 9" d="M-64.343,516.846a.475.475,0,0,1-.488-.461.474.474,0,0,1,.46-.488.474.474,0,0,1,.488.46h0A.475.475,0,0,1-64.343,516.846Z" transform="translate(75.739 -505.484)" fill="#fff"/>
              <path id="패스_10-2" data-name="패스 10" d="M-62.558,514.2a.475.475,0,0,1-.488-.461.475.475,0,0,1,.461-.488.475.475,0,0,1,.488.46.475.475,0,0,1-.461.489Z" transform="translate(75.61 -505.293)" fill="#fff"/>
              <path id="패스_11-2" data-name="패스 11" d="M-72.464,507.218a.7.7,0,0,1-.724-.683.7.7,0,0,1,.683-.724.7.7,0,0,1,.724.683.7.7,0,0,1-.683.724Z" transform="translate(76.341 -504.758)" fill="#fff"/>
              <path id="패스_12-2" data-name="패스 12" d="M-76.1,505.625a.475.475,0,0,1-.489-.46.476.476,0,0,1,.461-.489.475.475,0,0,1,.488.461A.475.475,0,0,1-76.1,505.625Z" transform="translate(76.586 -504.676)" fill="#fff"/>
            </g>
          </g>
        </g>
      </g>
      <rect id="사각형_1171" data-name="사각형 1171" width="26.497" height="16.739" rx="0.824" fill="none" stroke="#4e1d0e" stroke-miterlimit="10" stroke-width="1"/>
      <rect id="사각형_1181" data-name="사각형 1181" width="26.497" height="16.739" rx="0.824" fill="none" stroke="#4e1d0e" stroke-miterlimit="10" stroke-width="1"/>
    </g>
    <path id="패스_2468" data-name="패스 2468" d="M-73.741,515.98a2.916,2.916,0,0,0,.825-2.033,2.93,2.93,0,0,0-2.93-2.93,2.93,2.93,0,0,0-2.93,2.93,2.919,2.919,0,0,0,.825,2.033,3.805,3.805,0,0,0-1.705,3.173v2.814h7.62v-2.814A3.8,3.8,0,0,0-73.741,515.98Z" transform="translate(-4.973 -1.893)" fill="#fff" stroke="#4e1d0e" stroke-linejoin="round" stroke-width="1"/>
    <path id="패스_2469" data-name="패스 2469" d="M-73.741,515.98a2.916,2.916,0,0,0,.825-2.033,2.93,2.93,0,0,0-2.93-2.93,2.93,2.93,0,0,0-2.93,2.93,2.919,2.919,0,0,0,.825,2.033,3.805,3.805,0,0,0-1.705,3.173v2.814h7.62v-2.814A3.8,3.8,0,0,0-73.741,515.98Z" transform="translate(-1.021 -1.893)" fill="#fff" stroke="#4e1d0e" stroke-linejoin="round" stroke-width="1"/>
  </g>
</svg>
