<svg xmlns="http://www.w3.org/2000/svg" width="293.833" height="41.248" viewBox="0 0 293.833 41.248">
  <g id="그룹_7878" data-name="그룹 7878" transform="translate(-162.927 -688.037)">
    <g id="그룹_7878-2" data-name="그룹 7878" transform="translate(216.803 688.037)">
      <path id="패스_3101" data-name="패스 3101" d="M248.163,703.152H271.6a1.881,1.881,0,0,0,1.7-1.851V689.2H246.456v12.1A1.884,1.884,0,0,0,248.163,703.152Zm19.272-9.641v5.331h-15.11v-5.331Z" transform="translate(-160.423 -687.253)" fill="#302d2c"/>
      <path id="패스_3102" data-name="패스 3102" d="M224.97,710.466h3.476a1.879,1.879,0,0,0,1.7-1.853V688.726H224.28v4.4h-8.805c.005-.231.018-.462.013-.693h-.007l.007-.407a1.947,1.947,0,0,0-1.99-2.2h-16.57v4.31h12.82c-.643,6.239-10.053,11.219-14.656,12.351l1.161,3.4c5.373-1.2,15.331-4.5,18.378-12.458h9.65v3.75h-10.9v4.3h10.9v4.645a17.537,17.537,0,0,0-7.105-1.432c-7.4,0-13.2,4.122-13.2,9.383s5.794,9.38,13.2,9.38,13.2-4.119,13.2-9.38C230.375,714.911,228.265,712.161,224.97,710.466Zm-7.8,12.8c-5.1,0-7.6-2.9-7.6-5.182s2.5-5.182,7.6-5.182,7.489,2.9,7.489,5.182S222.275,723.267,217.175,723.267Z" transform="translate(-195.092 -687.572)" fill="#302d2c"/>
      <path id="패스_3103" data-name="패스 3103" d="M219.413,703.314l1.737,3.479c3.814-.578,11.209-2.365,16.338-6.008a27.739,27.739,0,0,1,14.52,6.356l3.322-4.658a32.75,32.75,0,0,0-14.614-4.665,9.707,9.707,0,0,0,2.3-6.387h-.008l.008-.357c0-2.015-2.219-1.933-2.219-1.933H221.339v3.791h15.279C235.9,698.423,224.543,702.314,219.413,703.314Z" transform="translate(-178.676 -687.291)" fill="#302d2c"/>
      <path id="패스_3104" data-name="패스 3104" d="M307.539,706.763v-4.31h-6.845V689.191h-5.869v25.52H282.862v-3.323c4.127-1.074,7.14-4.338,7.14-8.2a8.118,8.118,0,0,0-3.6-6.556h5.4v-4.3h-8.946v-3.516c0-.7-1.7-.779-1.7-.779h-4.164v4.295h-9.3v4.3h5.754a8.115,8.115,0,0,0-3.6,6.556c0,3.857,3.015,7.122,7.14,8.2v3.323H267.06v4.31h27.764v7.988h4.164a1.882,1.882,0,0,0,1.705-1.853V706.763Zm-32.32-3.871c0-2.082,1.812-3.851,4.71-3.851s4.71,1.769,4.71,3.851-1.807,3.848-4.71,3.848S275.219,704.976,275.219,702.892Z" transform="translate(-146.516 -688.037)" fill="#302d2c"/>
      <path id="패스_3105" data-name="패스 3105" d="M243.3,703.735h16.832v7.552h4.162s1.7-.139,1.7-1.383v-6.169h15.035v-4.311H243.3Z" transform="translate(-162.553 -680.351)" fill="#302d2c"/>
      <path id="패스_3106" data-name="패스 3106" d="M218.688,705.843h16.138v11.951h4.164s1.7-.136,1.7-1.377V705.843h15.721v-4.308H218.688Z" transform="translate(-179.165 -678.926)" fill="#302d2c"/>
      <path id="패스_3107" data-name="패스 3107" d="M252.325,703.853h-5.869v10.229c0,1.447,1.707,1.6,1.707,1.6h25.986v-4.311H252.325Z" transform="translate(-160.423 -677.362)" fill="#302d2c"/>
      <path id="패스_3108" data-name="패스 3108" d="M343.333,700.164h-6.491V688.853h-5.869v26.739h4.161a1.881,1.881,0,0,0,1.708-1.848v-9.271h6.491Z" transform="translate(-103.376 -687.486)" fill="#302d2c"/>
      <path id="패스_3109" data-name="패스 3109" d="M335.865,708.256v-4.311l-14.8.521v-10.1h13.983v-4.31H315.2v16.864a1.877,1.877,0,0,0,1.705,1.849h4.164Z" transform="translate(-114.023 -686.672)" fill="#302d2c"/>
      <path id="패스_3110" data-name="패스 3110" d="M324.026,703.726H318.16v10.442c0,1.447,1.7,1.6,1.7,1.6h25.493v-4.311H324.026Z" transform="translate(-112.025 -677.447)" fill="#302d2c"/>
      <path id="패스_3111" data-name="패스 3111" d="M312.316,702.868h-2.941V688.726h-5.869v37.818h4.164a1.882,1.882,0,0,0,1.705-1.853V707.177h2.941v19.366h4.164a1.88,1.88,0,0,0,1.7-1.853V688.726h-5.866Z" transform="translate(-121.916 -687.572)" fill="#302d2c"/>
      <path id="패스_3112" data-name="패스 3112" d="M303.74,707.661a27.289,27.289,0,0,0,3.472-14.751h-.007c0-.124.01-.248.007-.37h-.01l.007-.4a1.949,1.949,0,0,0-1.99-2.2H292.841v4.31h8.628c0,.012-.007.022-.007.032h.236a20.305,20.305,0,0,1-10.914,19.436l2.018,3.7a23.258,23.258,0,0,0,9.311-7.323,15.072,15.072,0,0,1,5.745,7.549l.171.038,3.388-3.507c.534-.533-.069-1.182-.069-1.182A16.318,16.318,0,0,0,303.74,707.661Z" transform="translate(-130.503 -686.753)" fill="#302d2c"/>
    </g>
    <g id="그룹_7879" data-name="그룹 7879" transform="translate(162.927 690.7)">
      <path id="패스_3113" data-name="패스 3113" d="M187.807,704.576h-5.772V690.093h-2.911v35.936h2.065s.846-.176.846-1.762v-16.81h5.772v18.572h2.067s.844-.176.844-1.762V690.093h-2.911Z" transform="translate(-151.994 -689.313)" fill="#302d2c"/>
      <path id="패스_3114" data-name="패스 3114" d="M190.136,689.627l-1.653.74c.059.137,6.072,14.072-.052,37.389l1.755.456C196.486,704.233,190.4,690.215,190.136,689.627Z" transform="translate(-145.712 -689.627)" fill="#302d2c"/>
      <path id="패스_3115" data-name="패스 3115" d="M167.478,690.367l-1.658-.74c-.26.588-6.348,14.606-.047,38.585l1.757-.456C161.4,704.439,167.416,690.5,167.478,690.367Z" transform="translate(-162.926 -689.627)" fill="#302d2c"/>
      <path id="패스_3116" data-name="패스 3116" d="M176.284,705.185a53.707,53.707,0,0,0,3.295-14.331H168.606v2.888h7.737c-.812,5.117-3.219,15.316-9.964,22.125l2.03,2.012a34.65,34.65,0,0,0,6.723-9.963,32.153,32.153,0,0,1,7.688,8.747l2.506-1.377A35.5,35.5,0,0,0,176.284,705.185Z" transform="translate(-160.597 -688.799)" fill="#302d2c"/>
    </g>
  </g>
</svg>
