<svg xmlns="http://www.w3.org/2000/svg" width="269.571" height="41.247" viewBox="0 0 269.571 41.247">
  <g id="그룹_7880" data-name="그룹 7880" transform="translate(-46.763 -40.663)">
    <g id="그룹_7880-2" data-name="그룹 7880" transform="translate(239.769 42.374)">
      <path id="패스_3117" data-name="패스 3117" d="M187.29,69.061h4a1.861,1.861,0,0,0,1.635-1.9V41.724H187.29v9.319h-8.071v4.422h8.071Z" transform="translate(-158.626 -41.724)" fill="#404345"/>
      <path id="패스_3118" data-name="패스 3118" d="M177.084,65.713V57.66h-5.628V68.5c0,1.484,1.635,1.642,1.635,1.642h24.8V65.713Z" transform="translate(-163.382 -31.962)" fill="#404345"/>
      <path id="패스_3119" data-name="패스 3119" d="M178.913,58.7c4.733,2.983,6.268,8.766,6.268,8.766l3.985-4.525c-3.045-4.348-6.371-6.038-8.5-6.7a20.415,20.415,0,0,0,2.408-10.979h-.006c0-.113.01-.224.006-.339h-.006l.006-.374a1.851,1.851,0,0,0-1.924-2.037H168.124V46.51h9.364c.613,12.722-10.524,14.144-11.04,14.339l1.864,3.5C168.739,64.2,174.7,63.522,178.913,58.7Z" transform="translate(-166.449 -41.237)" fill="#404345"/>
    </g>
    <g id="그룹_7881" data-name="그룹 7881" transform="translate(278.62 42.493)">
      <path id="패스_3120" data-name="패스 3120" d="M211.023,54.11H196.171V47.25h14.068V42.828h-19.7V56.635a1.862,1.862,0,0,0,1.635,1.9h18.846Z" transform="translate(-190.541 -41.167)" fill="#404345"/>
      <path id="패스_3121" data-name="패스 3121" d="M225.934,51.358h-6.279V41.8h-5.628V63.413A15.73,15.73,0,0,0,207,61.833c-7.1,0-12.667,4.23-12.667,9.634S199.892,81.1,207,81.1s12.659-4.231,12.659-9.634a8.84,8.84,0,0,0-4.394-7.347h2.761a1.862,1.862,0,0,0,1.634-1.9V55.779h6.279ZM207,76.43c-4.9,0-7.732-2.614-7.732-4.964S202.1,66.5,207,66.5s7.729,2.614,7.729,4.964S211.884,76.43,207,76.43Z" transform="translate(-188.22 -41.798)" fill="#404345"/>
    </g>
    <path id="패스_3122" data-name="패스 3122" d="M75.891,63.9h3.351A1.856,1.856,0,0,0,80.876,62V41.575H75.25v4.517h-8.8c.01-.235.018-.469.016-.71h-.006l0-.416c0-2.353-1.856-2.256-1.856-2.256H49.132v4.422H61.1c-.6,6.407-10.038,11.43-14.341,12.594l1.374,3.588C53.218,62.055,63.07,58.6,65.768,50.193H75.25v3.632H64.794V57.93H75.25v5.636a15.883,15.883,0,0,0-6.82-1.48c-7.1,0-12.664,4.233-12.664,9.635s5.563,9.63,12.664,9.63S81.1,77.123,81.1,71.721C81.1,68.46,79.06,65.632,75.891,63.9ZM68.43,77.225c-4.889,0-7.728-3.156-7.728-5.5s2.838-5.505,7.728-5.505,7.732,3.159,7.732,5.505S73.326,77.225,68.43,77.225Z" transform="translate(0 0.559)" fill="#404345"/>
    <g id="그룹_7882" data-name="그룹 7882" transform="translate(84.559 42.852)">
      <path id="패스_3123" data-name="패스 3123" d="M70.976,56.567l1.667,3.575c3.656-.59,10.74-2.422,15.66-6.157A26.047,26.047,0,0,1,102.246,60.5l3.188-4.783a30.065,30.065,0,0,0-14.023-4.793,10.357,10.357,0,0,0,2.206-6.555H93.61L93.617,44a1.972,1.972,0,0,0-2.129-1.982H72.826v3.888H87.483C86.8,51.545,75.9,55.544,70.976,56.567Z" transform="translate(-69.726 -42.021)" fill="#404345"/>
      <path id="패스_3124" data-name="패스 3124" d="M106.394,55.369H70.2V59.58H85.482V72.385h4s1.632-.134,1.632-1.414V59.58h15.284Z" transform="translate(-70.201 -33.843)" fill="#404345"/>
    </g>
    <g id="그룹_7883" data-name="그룹 7883" transform="translate(123.587 42.155)">
      <path id="패스_3125" data-name="패스 3125" d="M112.491,41.588V80.419h3.994a1.857,1.857,0,0,0,1.632-1.9V41.588Z" transform="translate(-83.322 -41.588)" fill="#404345"/>
      <path id="패스_3126" data-name="패스 3126" d="M115.246,48.306h-5.307c-1.521-3.619-4.031-5.892-6.989-5.892-4.872,0-8.547,6.17-8.547,14.352s3.675,14.351,8.547,14.351c3.067,0,5.66-2.453,7.16-6.313h5.136V80.419h3.869a1.86,1.86,0,0,0,1.637-1.9V41.588h-5.505Zm-12.3,18.7c-1.253,0-3.546-4.562-3.546-10.243s2.293-10.243,3.546-10.243,3.543,4.556,3.543,10.243S104.2,67.009,102.95,67.009Zm8.29-6.626a26.095,26.095,0,0,0-.063-7.653h4.069v7.653Z" transform="translate(-94.403 -41.588)" fill="#404345"/>
    </g>
    <g id="그룹_7884" data-name="그룹 7884" transform="translate(161.877 40.663)">
      <path id="패스_3127" data-name="패스 3127" d="M154.352,54.4V49.968h-36.2V54.4h15.294v2.725H121.453v4.42H144.64v2.387H121.835v9.281c0,1.484,1.634,1.642,1.634,1.642H150.98V70.425H127.466V68.355h22.809V58.763c0-1.484-1.637-1.642-1.637-1.642h-9.576V54.4Z" transform="translate(-118.147 -34.963)" fill="#404345"/>
      <path id="패스_3128" data-name="패스 3128" d="M135.5,48.266a26.125,26.125,0,0,1,12.973,6.365l2.68-4c.679-.731-.334-1.324-.334-1.324a30.164,30.164,0,0,0-11.935-4.111c.142-.171.282-.343.419-.522a.772.772,0,0,0-.09-1.108l-3.864-2.9c-3.035,5.692-13.194,8.166-16.729,8.537l.882,3.765C120,52.917,128.984,52.741,135.5,48.266Z" transform="translate(-117.859 -40.663)" fill="#404345"/>
    </g>
    <g id="그룹_7885" data-name="그룹 7885" transform="translate(201.823 42.708)">
      <path id="패스_3129" data-name="패스 3129" d="M162.935,77.679V41.931h-2.849V79.519h2.021S162.935,79.342,162.935,77.679Z" transform="translate(-132.401 -41.931)" fill="#404345"/>
      <rect id="사각형_2104" data-name="사각형 2104" width="28.087" height="3.018" transform="translate(0 26.286)" fill="#404345"/>
      <path id="패스_3130" data-name="패스 3130" d="M143.465,52.5c0,4.954,4.485,8.987,9.993,8.987s9.99-4.033,9.99-8.987-4.483-8.99-9.99-8.99S143.465,47.54,143.465,52.5Zm2.853,0c0-3.277,3.2-5.941,7.141-5.941S160.6,49.223,160.6,52.5s-3.2,5.936-7.144,5.936S146.318,55.774,146.318,52.5Z" transform="translate(-142.583 -40.964)" fill="#404345"/>
    </g>
  </g>
</svg>
