<?xml version="1.0" encoding="utf-8"?>
<!-- Generator: Adobe Illustrator 25.4.1, SVG Export Plug-In . SVG Version: 6.00 Build 0)  -->
<svg version="1.1" id="레이어_1" xmlns="http://www.w3.org/2000/svg" xmlns:xlink="http://www.w3.org/1999/xlink" x="0px"
	 y="0px" viewBox="0 0 184 184" style="enable-background:new 0 0 184 184;" xml:space="preserve">
<style type="text/css">
	.st0{fill:#D3A851;}
	.st1{fill:#D27700;}
	.st2{fill:#B16400;}
	.st3{fill:#692407;}
	.st4{fill:#2C0000;}
	.st5{fill:#FFFFFF;}
</style>
<g>
	<g>
		<path class="st0" d="M92,0C56.7,0,26,19.9,10.6,49.1c49.6-9.3,100.7-14.5,152.9-15.1C146.7,13.3,120.9,0,92,0z"/>
		<path class="st1" d="M163.5,34.1c-52.2,0.6-103.3,5.7-152.9,15.1C3.8,62,0,76.6,0,92c0,9.5,1.4,18.7,4.1,27.3
			c56.2-22.9,115.7-39.1,177.7-47.9C178.6,57.5,172.3,44.8,163.5,34.1z"/>
		<path class="st2" d="M92,184c50.8,0,92-41.2,92-92c0-7.1-0.8-13.9-2.3-20.6c-62,8.7-121.5,25-177.7,47.9
			C15.8,156.9,50.7,184,92,184z"/>
	</g>
	<g>
		<rect x="84.7" y="19.4" class="st3" width="50.3" height="9.8"/>
		<path class="st3" d="M150,152c0-24.5-2.4-41.9-9.2-63.2c-3.5-10.9-5.7-20.6-7-33.4c-1.8-17.2-1.4-21-1.4-23.4H87.3
			c0,2.5,0.5,6.2-1.4,23.4c-1.4,12.8-3.5,22.5-7,33.4c-6.9,21.3-9.2,38.7-9.2,63.2h-6.1v8.1h90.4V152H150z"/>
		<rect x="108.6" y="71.8" class="st4" width="16.6" height="16.6"/>
	</g>
	<g>
		<polygon class="st5" points="110.7,144.9 83,137.5 80.6,109 56,90.7 41.6,61.8 11.2,50.3 11.7,48.8 42.7,60.5 57.2,89.6 
			82.1,108.2 84.5,136.2 110,143 124.7,121.1 126,122 		"/>
		<path class="st5" d="M56.7,94.5c-2.4,0.1-4.4-1.8-4.4-4.2c-0.1-2.4,1.8-4.4,4.2-4.4c2.4-0.1,4.4,1.8,4.4,4.2
			C60.9,92.4,59.1,94.4,56.7,94.5z"/>
		<path class="st5" d="M81.5,112.9c-2.4,0.1-4.4-1.8-4.4-4.2c-0.1-2.4,1.8-4.4,4.2-4.4c2.4-0.1,4.4,1.8,4.4,4.2
			C85.8,110.9,83.9,112.9,81.5,112.9z"/>
		<path class="st5" d="M83.8,141.1c-2.4,0.1-4.4-1.8-4.4-4.2c-0.1-2.4,1.8-4.4,4.2-4.4c2.4-0.1,4.4,1.8,4.4,4.2
			C88.1,139.1,86.2,141.1,83.8,141.1z"/>
		<path class="st5" d="M110.5,148.2c-2.4,0.1-4.4-1.8-4.4-4.2c-0.1-2.4,1.8-4.4,4.2-4.4c2.4-0.1,4.4,1.8,4.4,4.2
			C114.7,146.2,112.8,148.2,110.5,148.2z"/>
		<path class="st5" d="M125.5,125.9c-2.4,0.1-4.4-1.8-4.4-4.2c-0.1-2.4,1.8-4.4,4.2-4.4c2.4-0.1,4.4,1.8,4.4,4.2
			C129.7,123.9,127.9,125.9,125.5,125.9z"/>
		<path class="st5" d="M42.3,67.6c-3.5,0.1-6.5-2.7-6.6-6.2c-0.1-3.5,2.7-6.5,6.2-6.6c3.5-0.1,6.5,2.7,6.6,6.2
			C48.6,64.5,45.8,67.5,42.3,67.6z"/>
		<path class="st5" d="M11.6,53.9c-2.4,0.1-4.4-1.8-4.4-4.2c-0.1-2.4,1.8-4.4,4.2-4.4c2.4-0.1,4.4,1.8,4.4,4.2
			C15.8,51.8,14,53.8,11.6,53.9z"/>
	</g>
</g>
</svg>
