<?xml version="1.0" encoding="utf-8"?>
<!-- Generator: Adobe Illustrator 25.4.1, SVG Export Plug-In . SVG Version: 6.00 Build 0)  -->
<svg version="1.1" id="레이어_1" xmlns="http://www.w3.org/2000/svg" xmlns:xlink="http://www.w3.org/1999/xlink" x="0px"
	 y="0px" viewBox="0 0 271.6 105.5" style="enable-background:new 0 0 271.6 105.5;" xml:space="preserve">
<style type="text/css">
	.st0{fill:#712311;}
	.st1{fill:#D3A851;}
	.st2{fill:#EA5A35;}
	.st3{fill:#B05B17;}
</style>
<g>
	<g>
		<polygon class="st0" points="50.2,93.6 50,105.5 260.5,105.5 260.5,93.6 		"/>
		<g>
			<path class="st1" d="M13.1,2v4.9l0,0c107.6-6.6,192.6,41.6,192.6,41.6s30.5-13.1,65.2-8c0.2-0.4,0.4-0.9,0.7-1.3
				C143.7-8.7,33.6-0.2,13.1,2z"/>
			<path class="st2" d="M41,66l11.2,0.2l-4.7-40.4l-12.9-0.1C34.6,25.6,28.3,48,41,66z"/>
			<path class="st1" d="M34.8,11.6l-0.2,6.9c0,0,35.2-4.6,121.5,18.1l0.9-0.9C141,29,96,12.6,34.8,11.6z"/>
			<path class="st3" d="M243.4,64.6l1.5,23.8H137.2l-0.7-33.7l103.9,6.5C240.3,61.3,243.4,61.5,243.4,64.6z"/>
		</g>
		<path class="st3" d="M52.8,26l4.7,42.8c0,1.4-1,1.6-1,1.6l-14.8-0.3l0,0.1h-0.6v6.9H28.7v2.8h-8.2v1.8h-7.3V84H6.4v3.9L0,88.3
			l0.1,11.1l44.9,0l0.1-10.8l86.5,0l-0.6-38.4c0,0-0.1-1.1,1.1-1.1l49,3.6l0.5-1C164.3,46.2,98.2,26,52.8,26z"/>
	</g>
</g>
</svg>
