<?xml version="1.0" encoding="utf-8"?>
<!-- Generator: Adobe Illustrator 25.4.1, SVG Export Plug-In . SVG Version: 6.00 Build 0)  -->
<svg version="1.1" id="레이어_1" xmlns="http://www.w3.org/2000/svg" xmlns:xlink="http://www.w3.org/1999/xlink" x="0px"
	 y="0px" viewBox="0 0 371.4 47.5" style="enable-background:new 0 0 371.4 47.5;" xml:space="preserve">
<style type="text/css">
	.st0{fill:#767676;}
	.st1{fill:#712311;}
	.st2{fill:#D3A851;}
	.st3{fill:#EA5A35;}
	.st4{fill:#B05B17;}
</style>
<g id="그룹_7876" transform="translate(-1181.682 -515.896)">
	<g id="그룹_7864">
		<path id="패스_3075" class="st0" d="M1323.8,541.5l-0.2,2.8c-1.4-0.6-2.9-0.9-4.4-0.8c-1.7-0.1-3.4,0.5-4.6,1.7
			c-2.1,2.4-2.1,6,0,8.4c1.1,1.1,2.6,1.7,4.2,1.6c0.8,0,1.5-0.1,2.2-0.2v-4.3h-3.6v-2.6h6.9v8.8c-1.8,0.5-3.7,0.8-5.5,0.9
			c-2.4,0.1-4.8-0.6-6.8-2c-1.8-1.5-2.8-3.8-2.6-6.2c-0.1-2.4,0.8-4.8,2.5-6.5c1.9-1.6,4.4-2.4,6.9-2.3
			C1320.5,540.8,1322.2,541.1,1323.8,541.5z"/>
		<path id="패스_3076" class="st0" d="M1329.8,545.4l3,8.8h0l3-8.8h3.3l-4.7,12c-0.4,1.3-1,2.5-1.7,3.7c-0.8,1.1-2.1,1.7-3.5,1.6
			c-0.8,0-1.6-0.1-2.3-0.3l0.2-2.3c0.5,0.2,1.1,0.3,1.7,0.2c0.6,0,1.1-0.2,1.6-0.6c0.4-0.4,0.6-1,0.6-1.6l-4.8-12.7L1329.8,545.4z"
			/>
		<path id="패스_3077" class="st0" d="M1351.4,554.3v2.6c-1.3,0.7-2.8,1-4.3,1c-1.8,0.1-3.5-0.5-4.9-1.6c-1.2-1.2-1.8-2.9-1.7-4.6
			c-0.1-1.6,0.5-3.2,1.5-4.5c1.1-1.3,2.7-2,4.4-1.9c2.2,0,3.8,0.7,4.8,2.1c0.9,1.6,1.4,3.4,1.3,5.2h-8.7c0,0.9,0.4,1.7,1.1,2.3
			c0.7,0.6,1.6,0.9,2.5,0.8C1348.6,555.5,1350.1,555,1351.4,554.3z M1343.6,550.3h5.6c-0.1-1.9-1-2.9-2.7-2.8
			C1344.7,547.4,1343.8,548.4,1343.6,550.3L1343.6,550.3z"/>
		<path id="패스_3078" class="st0" d="M1354.1,551.6c-0.1-1.8,0.6-3.5,1.9-4.7c1.3-1.2,2.9-1.8,4.7-1.7c1.7-0.1,3.4,0.6,4.7,1.7
			c1.3,1.2,2,2.9,1.9,4.7c0.1,1.6-0.6,3.2-1.7,4.4c-2.8,2.4-6.9,2.4-9.7,0C1354.6,554.8,1354,553.2,1354.1,551.6z M1357.5,551.2
			c0,2.8,1.1,4.2,3.2,4.2c2.1,0,3.2-1.4,3.2-4.2c0-0.9-0.2-1.8-0.8-2.5c-0.6-0.7-1.5-1.1-2.4-1.1c-0.9,0-1.8,0.4-2.4,1.1
			C1357.7,549.4,1357.4,550.3,1357.5,551.2L1357.5,551.2z"/>
		<path id="패스_3079" class="st0" d="M1369.8,557.5v-12.1h3.1v1.7h0c1-1.3,2.5-2,4.1-1.9c1.2-0.1,2.4,0.4,3.3,1.3
			c0.7,1,1.1,2.2,1,3.4v7.6h-3.3v-6.4c0-0.8-0.1-1.6-0.3-2.3c-0.3-0.8-1.1-1.2-1.9-1.2c-1,0-1.9,0.5-2.3,1.4
			c-0.4,0.8-0.6,1.7-0.6,2.6v5.9L1369.8,557.5z"/>
		<path id="패스_3080" class="st0" d="M1393.3,545.4h3.1v11c0,4.2-2.2,6.4-6.7,6.4c-1.5,0-3-0.3-4.4-0.8l0.3-2.7
			c1.1,0.6,2.4,1,3.7,1.1c1.3,0.1,2.6-0.5,3.3-1.6c0.4-1,0.6-2.1,0.5-3.1h-0.1c-0.4,0.6-0.9,1-1.5,1.3c-0.7,0.4-1.6,0.6-2.4,0.6
			c-1.5,0.1-3-0.6-4-1.8c-0.8-1.3-1.2-2.8-1.2-4.3c0-1.5,0.4-3,1.2-4.2c0.9-1.3,2.5-2.1,4.1-2c1.5-0.1,3,0.6,3.9,2h0.1L1393.3,545.4
			z M1390.2,555.1c0.9,0,1.7-0.4,2.2-1.1c0.9-1.6,0.9-3.6,0-5.3c-0.4-0.7-1.2-1.1-2.1-1.1c-0.9-0.1-1.8,0.4-2.3,1.2
			c-0.5,0.8-0.7,1.7-0.6,2.6c0,0.9,0.2,1.7,0.7,2.4C1388.6,554.6,1389.4,555.1,1390.2,555.1L1390.2,555.1z"/>
		<path id="패스_3081" class="st0" d="M1397.7,562.6l0.1-2.3c0.9,0,1.5-0.2,1.8-0.6c0.2-0.5,0.3-1.1,0.3-1.7v-12.6h3.3v13
			c0,2.9-1.3,4.3-3.8,4.3C1398.8,562.8,1398.3,562.7,1397.7,562.6z M1399.9,543.2v-3h3.3v3L1399.9,543.2z"/>
		<path id="패스_3082" class="st0" d="M1418.1,545.4v12.1h-3.1v-1.6h-0.1c-1,1.2-2.5,2-4.1,1.9c-1.2,0.1-2.5-0.4-3.3-1.4
			c-0.7-1-1.1-2.2-1-3.4v-7.6h3.3v6.5c0,0.8,0.1,1.6,0.3,2.3c0.3,0.8,1.1,1.3,1.9,1.2c1,0,1.9-0.5,2.3-1.4c0.4-0.8,0.6-1.7,0.6-2.6
			v-5.9L1418.1,545.4z"/>
	</g>
	<g id="그룹_7865">
		<path id="패스_3083" class="st0" d="M1425.9,557.5l6.7-16.4h3.9l6.7,16.4h-3.8l-1.5-3.7h-6.9l-1.5,3.7H1425.9z M1436.9,551.2
			l-2.5-6.8h0l-2.5,6.8H1436.9z"/>
		<path id="패스_3084" class="st0" d="M1445.1,557.5v-12.1h2.9v2.8h0.1c0.1-0.8,0.5-1.4,1.1-2c0.6-0.7,1.5-1.1,2.4-1.1
			c0.3,0,0.7,0,1,0.1v3.2c-0.5-0.2-1-0.3-1.5-0.2c-1.1,0-2.1,0.7-2.3,1.8c-0.3,1-0.4,2.1-0.3,3.1v4.4L1445.1,557.5z"/>
		<path id="패스_3085" class="st0" d="M1455.6,553.9v-6.2h-2.4v-2.3h2.4V543l3.3-1v3.5h2.9v2.3h-2.9v5.7c0,1.3,0.5,2,1.5,2
			c0.5,0,1-0.1,1.5-0.3l0.1,2.5c-0.8,0.2-1.6,0.3-2.4,0.3c-1.1,0.1-2.1-0.3-2.9-1C1455.9,556,1455.6,554.9,1455.6,553.9z"/>
		<path id="패스_3086" class="st0" d="M1471.8,545.6l-0.2,2.4c-0.9-0.3-1.9-0.5-3-0.5c-1.3,0-1.9,0.4-1.9,1.3
			c0,0.5,0.5,0.9,1.5,1.2c1,0.2,1.9,0.6,2.8,1.1c1,0.6,1.5,1.7,1.5,2.8c0,1.2-0.6,2.4-1.6,3c-1.1,0.6-2.4,1-3.6,0.9
			c-1.3,0-2.5-0.2-3.7-0.5l0.2-2.6c1,0.5,2.1,0.8,3.2,0.8c0.5,0,1-0.1,1.4-0.3c0.5-0.2,0.8-0.7,0.8-1.2c0-0.6-0.5-1.1-1.5-1.4
			c-1.6-0.5-2.6-0.9-2.8-1c-1-0.6-1.5-1.6-1.5-2.8c0-1.2,0.5-2.2,1.5-2.9c1-0.6,2.2-0.9,3.4-0.9
			C1469.4,545.2,1470.6,545.3,1471.8,545.6z"/>
		<path id="패스_3087" class="st0" d="M1491.4,554.6l0.1,2.7c-1.3,0.3-2.6,0.5-3.9,0.5c-2.4,0.1-4.8-0.6-6.8-2
			c-1.8-1.5-2.8-3.8-2.6-6.2c-0.1-2.4,0.8-4.8,2.5-6.5c1.9-1.6,4.4-2.4,6.9-2.3c1.3,0,2.6,0.2,3.9,0.7l-0.2,2.8
			c-1.1-0.6-2.4-0.9-3.7-0.8c-1.6-0.1-3.1,0.5-4.2,1.7c-1.1,1.2-1.6,2.7-1.6,4.3c-0.1,1.5,0.5,3,1.6,4.2c1.1,1.1,2.7,1.7,4.2,1.6
			C1488.9,555.2,1490.2,555,1491.4,554.6z"/>
		<path id="패스_3088" class="st0" d="M1503.9,554.3v2.6c-1.3,0.7-2.8,1-4.3,1c-1.8,0.1-3.5-0.5-4.9-1.6c-1.2-1.2-1.8-2.9-1.7-4.6
			c-0.1-1.6,0.5-3.2,1.5-4.5c1.1-1.3,2.7-2,4.4-1.9c2.2,0,3.8,0.7,4.8,2.1c0.9,1.6,1.4,3.4,1.2,5.2h-8.7c0,0.9,0.4,1.7,1.1,2.3
			c0.7,0.6,1.6,0.9,2.5,0.8C1501.2,555.5,1502.6,555,1503.9,554.3z M1496.1,550.3h5.6c-0.1-1.9-1-2.9-2.7-2.8
			C1497.3,547.4,1496.3,548.4,1496.1,550.3L1496.1,550.3z"/>
		<path id="패스_3089" class="st0" d="M1507.4,557.5v-12.1h3.1v1.7h0.1c1-1.3,2.5-2,4.1-1.9c1.2-0.1,2.4,0.4,3.3,1.3
			c0.7,1,1.1,2.2,1,3.4v7.6h-3.3v-6.4c0-0.8-0.1-1.6-0.3-2.3c-0.3-0.8-1-1.2-1.9-1.2c-1,0-1.9,0.5-2.3,1.4c-0.4,0.8-0.6,1.7-0.6,2.6
			v5.9L1507.4,557.5z"/>
		<path id="패스_3090" class="st0" d="M1523.4,553.9v-6.2h-2.4v-2.3h2.4V543l3.3-1v3.5h2.9v2.3h-2.9v5.7c0,1.3,0.5,2,1.5,2
			c0.5,0,1-0.1,1.5-0.3l0.1,2.5c-0.8,0.2-1.6,0.3-2.4,0.3c-1.1,0.1-2.1-0.3-2.9-1C1523.8,556,1523.4,554.9,1523.4,553.9z"/>
		<path id="패스_3091" class="st0" d="M1542,554.3v2.6c-1.3,0.7-2.8,1-4.3,1c-1.8,0.1-3.5-0.5-4.9-1.6c-1.2-1.2-1.8-2.9-1.7-4.6
			c-0.1-1.6,0.5-3.2,1.5-4.5c1.1-1.3,2.7-2,4.4-1.9c2.2,0,3.8,0.7,4.8,2.1c0.9,1.6,1.4,3.4,1.3,5.2h-8.7c0,0.9,0.4,1.7,1.1,2.3
			c0.7,0.6,1.6,0.9,2.5,0.8C1539.3,555.5,1540.8,555,1542,554.3z M1534.2,550.3h5.6c-0.1-1.9-1-2.9-2.7-2.8
			C1535.4,547.4,1534.4,548.4,1534.2,550.3L1534.2,550.3z"/>
		<path id="패스_3092" class="st0" d="M1545.6,557.5v-12.1h2.9v2.8h0c0.1-0.8,0.5-1.4,1.1-2c0.6-0.7,1.5-1.1,2.4-1.1
			c0.3,0,0.7,0,1,0.1v3.2c-0.5-0.2-1-0.3-1.5-0.2c-1.1,0-2.1,0.7-2.3,1.8c-0.3,1-0.4,2.1-0.3,3.1v4.4L1545.6,557.5z"/>
	</g>
	<g>
		<g>
			<polygon class="st1" points="1204.3,558 1204.2,563.4 1298.9,563.4 1298.9,558 			"/>
			<g>
				<path class="st2" d="M1187.6,516.8v2.2l0,0c48.4-3,86.7,18.7,86.7,18.7s13.7-5.9,29.3-3.6c0.1-0.2,0.2-0.4,0.3-0.6
					C1246.4,512,1196.8,515.8,1187.6,516.8z"/>
				<path class="st3" d="M1200.1,545.6l5,0.1l-2.1-18.2l-5.8-0.1C1197.2,527.4,1194.4,537.5,1200.1,545.6z"/>
				<path class="st2" d="M1197.3,521.1l-0.1,3.1c0,0,15.8-2.1,54.7,8.2l0.4-0.4C1245.1,528.9,1224.9,521.6,1197.3,521.1z"/>
				<path class="st4" d="M1291.3,545l0.7,10.7h-48.5l-0.3-15.1l46.8,2.9C1289.9,543.5,1291.3,543.6,1291.3,545z"/>
			</g>
			<path class="st4" d="M1205.5,527.6l2.1,19.3c0,0.6-0.5,0.7-0.5,0.7l-6.6-0.1l0,0h-0.3v3.1h-5.7v1.3h-3.7v0.8h-3.3v1.1h-3v1.8
				l-2.9,0.2l0.1,5l20.2,0l0-4.9l38.9,0l-0.3-17.3c0,0-0.1-0.5,0.5-0.5l22,1.6l0.2-0.5C1255.7,536.7,1225.9,527.6,1205.5,527.6z"/>
		</g>
	</g>
</g>
</svg>
