<?xml version="1.0" encoding="utf-8"?>
<!-- Generator: Adobe Illustrator 25.4.1, SVG Export Plug-In . SVG Version: 6.00 Build 0)  -->
<svg version="1.1" id="그룹_7874" xmlns="http://www.w3.org/2000/svg" xmlns:xlink="http://www.w3.org/1999/xlink" x="0px"
	 y="0px" viewBox="0 0 299.9 60.6" style="enable-background:new 0 0 299.9 60.6;" xml:space="preserve">
<style type="text/css">
	.st0{fill:#767676;}
	.st1{fill:#404345;}
	.st2{fill:#712311;}
	.st3{fill:#D3A851;}
	.st4{fill:#EA5A35;}
	.st5{fill:#B05B17;}
</style>
<g id="그룹_42" transform="translate(157.385 21.162)">
	<g id="그룹_34" transform="translate(4.803 27.327)">
		<path id="패스_64" class="st0" d="M7.7,0.7L7.6,2.2C6.8,1.9,6,1.7,5.2,1.8C4.3,1.7,3.4,2,2.8,2.7c-1.1,1.3-1.1,3.2,0,4.5
			C3.4,7.7,4.2,8.1,5,8c0.4,0,0.8,0,1.2-0.1V5.6H4.3V4.3H8V9C7,9.2,6,9.4,5,9.4C3.7,9.5,2.4,9.1,1.4,8.4C0.4,7.5-0.1,6.3,0,5
			c-0.1-1.3,0.4-2.6,1.3-3.5c1-0.9,2.3-1.3,3.7-1.2C5.9,0.3,6.8,0.5,7.7,0.7z"/>
		<path id="패스_65" class="st0" d="M10.9,2.8l1.6,4.7h0l1.6-4.7H16l-2.5,6.4c-0.2,0.7-0.5,1.3-0.9,2c-0.4,0.6-1.1,0.9-1.9,0.9
			c-0.4,0-0.8-0.1-1.2-0.2l0.1-1.3c0.3,0.1,0.6,0.1,0.9,0.1c0.3,0,0.6-0.1,0.8-0.3c0.2-0.2,0.3-0.5,0.3-0.9L9,2.8L10.9,2.8z"/>
		<path id="패스_66" class="st0" d="M22.5,7.5v1.4c-0.7,0.4-1.5,0.5-2.3,0.5c-0.9,0.1-1.9-0.3-2.6-0.9c-0.6-0.7-1-1.6-0.9-2.5
			c0-0.9,0.2-1.7,0.8-2.4c1.3-1.3,3.4-1.3,4.8,0c0,0,0.1,0.1,0.1,0.1C22.8,4.6,23,5.6,23,6.6h-4.7c0,0.5,0.2,0.9,0.6,1.2
			c0.4,0.3,0.9,0.5,1.4,0.4C21,8.2,21.8,7.9,22.5,7.5z M18.3,5.4h3c-0.1-1-0.5-1.5-1.4-1.5c-0.8-0.1-1.5,0.5-1.6,1.3
			C18.3,5.3,18.3,5.3,18.3,5.4z"/>
		<path id="패스_67" class="st0" d="M23.9,6.1c0-0.9,0.3-1.9,1-2.5c0.7-0.6,1.6-1,2.5-0.9c0.9,0,1.8,0.3,2.5,0.9
			c0.7,0.6,1,1.6,1,2.5C31,7,30.7,7.8,30,8.4c-1.5,1.3-3.7,1.3-5.2,0C24.2,7.8,23.9,7,23.9,6.1z M25.7,5.9c0,1.5,0.6,2.3,1.7,2.3
			c1.1,0,1.7-0.8,1.7-2.3c0-0.5-0.1-0.9-0.4-1.3c-0.3-0.4-0.8-0.6-1.3-0.6c-0.5,0-1,0.2-1.3,0.6C25.9,4.9,25.7,5.4,25.7,5.9
			L25.7,5.9z"/>
		<path id="패스_68" class="st0" d="M32.3,9.3V2.8H34v0.9h0c0.5-0.7,1.3-1.1,2.2-1c0.7,0,1.3,0.2,1.7,0.7c0.4,0.5,0.6,1.2,0.5,1.8
			v4.1h-1.7V5.8c0-0.4,0-0.8-0.1-1.2c-0.2-0.4-0.6-0.7-1-0.6c-0.5,0-1,0.3-1.3,0.8c-0.2,0.4-0.3,0.9-0.3,1.4v3.2L32.3,9.3z"/>
		<path id="패스_69" class="st0" d="M44.9,2.8h1.7v5.9c0,2.3-1.2,3.4-3.6,3.4c-0.8,0-1.6-0.1-2.3-0.4l0.1-1.4
			c0.6,0.3,1.3,0.5,2,0.6c0.7,0.1,1.4-0.3,1.7-0.9c0.2-0.5,0.3-1.1,0.3-1.7h0C44.6,8.6,44.3,8.8,44,9c-0.4,0.2-0.8,0.3-1.3,0.3
			c-0.8,0.1-1.6-0.3-2.1-1c-0.9-1.4-0.8-3.2,0-4.6C41.1,3,42,2.6,42.8,2.6c0.8-0.1,1.6,0.3,2.1,1h0L44.9,2.8z M43.3,8
			c0.5,0,0.9-0.2,1.2-0.6c0.5-0.9,0.5-1.9,0-2.8C44.3,4.2,43.8,4,43.4,4c-0.5,0-1,0.2-1.2,0.7c-0.2,0.4-0.4,0.9-0.3,1.4
			c0,0.5,0.1,0.9,0.4,1.3C42.4,7.7,42.8,8,43.3,8z"/>
		<path id="패스_70" class="st0" d="M47.3,12l0.1-1.2c0.5,0,0.8-0.1,0.9-0.3c0.1-0.3,0.2-0.6,0.1-0.9V2.8h1.8v7
			c0,1.5-0.7,2.3-2,2.3C47.9,12.1,47.6,12.1,47.3,12z M48.4,1.6V0h1.8v1.6H48.4z"/>
		<path id="패스_71" class="st0" d="M58.2,2.8v6.5h-1.7V8.4h0c-0.5,0.7-1.4,1-2.2,1c-0.7,0-1.3-0.2-1.7-0.7
			C52.2,8.2,52,7.5,52,6.9V2.8h1.8v3.5c0,0.4,0,0.8,0.1,1.2c0.2,0.4,0.6,0.7,1,0.6c0.5,0,1-0.3,1.3-0.8c0.2-0.4,0.3-0.9,0.3-1.4V2.8
			L58.2,2.8z"/>
		<path id="패스_72" class="st0" d="M62.4,9.3l3.6-8.8H68l3.6,8.8h-2l-0.8-2h-3.7l-0.8,2H62.4z M68.3,5.9L67,2.3h0l-1.3,3.6H68.3z
			"/>
		<path id="패스_73" class="st0" d="M72.7,9.3V2.8h1.6v1.5h0c0.1-0.4,0.3-0.8,0.6-1c0.3-0.4,0.8-0.6,1.3-0.6c0.2,0,0.4,0,0.5,0.1
			v1.7c-0.3-0.1-0.5-0.1-0.8-0.1c-0.6,0-1.1,0.4-1.3,1c-0.1,0.5-0.2,1.1-0.2,1.7v2.4L72.7,9.3z"/>
		<path id="패스_74" class="st0" d="M78.3,7.3V4H77V2.8h1.3V1.5L80.1,1v1.9h1.6V4h-1.6v3c0,0.7,0.3,1.1,0.8,1.1
			c0.3,0,0.6,0,0.8-0.2l0.1,1.3c-0.4,0.1-0.9,0.2-1.3,0.1c-0.6,0-1.2-0.2-1.6-0.6C78.5,8.5,78.3,7.9,78.3,7.3z"/>
		<path id="패스_75" class="st0" d="M87,2.9l-0.1,1.3c-0.5-0.2-1-0.3-1.6-0.3c-0.7,0-1,0.2-1,0.7c0,0.3,0.3,0.5,0.8,0.6
			c0.5,0.1,1,0.3,1.5,0.6c0.5,0.3,0.8,0.9,0.8,1.5c0,0.7-0.3,1.3-0.9,1.6c-0.6,0.3-1.3,0.5-1.9,0.5c-0.7,0-1.3-0.1-2-0.3l0.1-1.4
			c0.5,0.3,1.1,0.4,1.7,0.4c0.3,0,0.5,0,0.7-0.2c0.3-0.1,0.4-0.4,0.4-0.6c0-0.3-0.3-0.6-0.8-0.8c-0.9-0.3-1.4-0.5-1.5-0.5
			c-0.5-0.3-0.8-0.9-0.8-1.5c0-0.6,0.3-1.2,0.8-1.5c0.6-0.3,1.2-0.5,1.8-0.5C85.7,2.7,86.3,2.8,87,2.9z"/>
		<path id="패스_76" class="st0" d="M97.5,7.7l0.1,1.5c-0.7,0.2-1.4,0.3-2.1,0.3c-1.3,0.1-2.6-0.3-3.6-1.1c-1-0.8-1.5-2.1-1.4-3.3
			c-0.1-1.3,0.4-2.6,1.3-3.5c1-0.9,2.3-1.3,3.7-1.2c0.7,0,1.4,0.1,2.1,0.4l-0.1,1.5c-0.6-0.3-1.3-0.5-2-0.4c-0.8,0-1.6,0.3-2.2,0.9
			c-0.6,0.6-0.9,1.4-0.8,2.3c0,0.8,0.3,1.6,0.8,2.2c0.6,0.6,1.4,0.9,2.3,0.9C96.1,8.1,96.8,7.9,97.5,7.7z"/>
		<path id="패스_77" class="st0" d="M104.2,7.5v1.4c-0.7,0.4-1.5,0.5-2.3,0.5c-0.9,0.1-1.9-0.3-2.6-0.9c-0.6-0.7-1-1.6-0.9-2.5
			c0-0.9,0.2-1.7,0.8-2.4c1.3-1.3,3.4-1.3,4.8,0c0,0,0.1,0.1,0.1,0.1c0.5,0.8,0.7,1.8,0.7,2.8H100c0,0.5,0.2,0.9,0.6,1.2
			c0.4,0.3,0.9,0.5,1.4,0.4C102.7,8.2,103.5,7.9,104.2,7.5z M100,5.4h3c-0.1-1-0.5-1.5-1.4-1.5c-0.8-0.1-1.5,0.5-1.6,1.3
			C100,5.3,100,5.3,100,5.4z"/>
		<path id="패스_78" class="st0" d="M106,9.3V2.8h1.7v0.9h0c0.5-0.7,1.3-1.1,2.2-1c0.7,0,1.3,0.2,1.7,0.7c0.4,0.5,0.6,1.2,0.5,1.8
			v4.1h-1.7V5.8c0-0.4,0-0.8-0.1-1.2c-0.2-0.4-0.6-0.7-1-0.6c-0.5,0-1,0.3-1.3,0.8c-0.2,0.4-0.3,0.9-0.3,1.4v3.2L106,9.3z"/>
		<path id="패스_79" class="st0" d="M114.6,7.3V4h-1.3V2.8h1.3V1.5l1.8-0.6v1.9h1.6V4h-1.6v3c0,0.7,0.3,1.1,0.8,1.1
			c0.3,0,0.6,0,0.8-0.2l0.1,1.3c-0.4,0.1-0.9,0.2-1.3,0.1c-0.6,0-1.2-0.2-1.6-0.6C114.8,8.5,114.6,7.9,114.6,7.3z"/>
		<path id="패스_80" class="st0" d="M124.6,7.5v1.4c-0.7,0.4-1.5,0.5-2.3,0.5c-0.9,0.1-1.9-0.3-2.6-0.9c-0.6-0.7-1-1.6-0.9-2.5
			c0-0.9,0.2-1.7,0.8-2.4c1.3-1.3,3.4-1.3,4.8,0c0,0,0.1,0.1,0.1,0.1c0.5,0.8,0.7,1.8,0.7,2.8h-4.7c0,0.5,0.2,0.9,0.6,1.2
			c0.4,0.3,0.9,0.5,1.3,0.4C123.1,8.2,123.9,7.9,124.6,7.5z M120.4,5.4h3c-0.1-1-0.5-1.5-1.4-1.5c-0.8-0.1-1.5,0.5-1.6,1.3
			C120.4,5.3,120.4,5.3,120.4,5.4z"/>
		<path id="패스_81" class="st0" d="M126.5,9.3V2.8h1.6v1.5h0c0.1-0.4,0.3-0.8,0.6-1c0.3-0.4,0.8-0.6,1.3-0.6c0.2,0,0.4,0,0.5,0.1
			v1.7c-0.3-0.1-0.5-0.1-0.8-0.1c-0.6,0-1.1,0.4-1.3,1c-0.1,0.5-0.2,1.1-0.2,1.7v2.4L126.5,9.3z"/>
	</g>
	<g id="그룹_41" transform="translate(0)">
		<g id="그룹_35" transform="translate(102.07 0.905)">
			<path id="패스_82" class="st1" d="M15.2,14.5h2.1c0.5-0.1,0.9-0.5,0.9-1V0h-3v4.9h-4.3v2.3h4.3V14.5z"/>
			<path id="패스_83" class="st1" d="M7.2,17.8v-4.3h-3v5.7c0,0.8,0.9,0.9,0.9,0.9h13.1v-2.3H7.2z"/>
			<path id="패스_84" class="st1" d="M6.6,9.2c1.6,1.1,2.8,2.8,3.3,4.6l2.1-2.4C11,9.8,9.4,8.6,7.5,7.9c1-1.8,1.4-3.8,1.3-5.8l0,0
				c0-0.1,0-0.1,0-0.2l0,0V1.8c0.1-0.5-0.3-1-0.9-1.1c0,0-0.1,0-0.1,0H0.9v2.1h5c0.4,3.7-2.2,7-5.8,7.6l1,1.9
				C3.1,11.9,5.1,10.8,6.6,9.2z"/>
		</g>
		<g id="그룹_36" transform="translate(122.617 0.968)">
			<path id="패스_85" class="st1" d="M10.8,6.8H3V3.2h7.4V0.9H0v7.3c0,0.5,0.4,0.9,0.9,1h10L10.8,6.8z"/>
			<path id="패스_86" class="st1" d="M19.9,5.1h-3.3V0h-3v11.4c-1.2-0.6-2.4-0.8-3.7-0.8c-3.8,0-6.7,2.2-6.7,5.1s2.9,5.1,6.7,5.1
				s6.7-2.2,6.7-5.1c-0.1-1.6-0.9-3.1-2.3-3.9h1.5c0.5-0.1,0.9-0.5,0.9-1V7.4h3.3L19.9,5.1z M9.9,18.3c-2.6,0-4.1-1.4-4.1-2.6
				s1.5-2.6,4.1-2.6s4.1,1.4,4.1,2.6S12.5,18.3,9.9,18.3L9.9,18.3z"/>
		</g>
		<path id="패스_87" class="st1" d="M15.4,12.6h1.8c0.5-0.1,0.9-0.5,0.9-1V0.8h-3v2.4h-4.7c0-0.1,0-0.2,0-0.4l0,0V2.6
			c0-1.2-1-1.2-1-1.2H1.3v2.3h6.3c-0.3,3.4-5.3,6-7.6,6.7l0.7,1.9c2.7-0.7,7.9-2.5,9.3-6.9h5v1.9H9.5v2.2h5.5v3
			c-1.1-0.5-2.4-0.8-3.6-0.8c-3.8,0-6.7,2.2-6.7,5.1s2.9,5.1,6.7,5.1s6.7-2.2,6.7-5.1C18.1,14.9,17,13.3,15.4,12.6z M11.5,19.6
			c-2.6,0-4.1-1.7-4.1-2.9s1.5-2.9,4.1-2.9s4.1,1.7,4.1,2.9S14,19.6,11.5,19.6L11.5,19.6z"/>
		<g id="그룹_37" transform="translate(19.988 1.158)">
			<path id="패스_88" class="st1" d="M0.7,7.7l0.9,1.9c3-0.5,5.8-1.6,8.3-3.3c2.7,0.4,5.3,1.6,7.4,3.4l1.7-2.5
				c-2.2-1.4-4.8-2.3-7.4-2.5c0.8-1,1.2-2.2,1.2-3.5l0,0V1c0-0.6-0.5-1-1-1.1c0,0-0.1,0-0.1,0H1.6v2.1h7.8C9,5,3.3,7.2,0.7,7.7z"/>
			<path id="패스_89" class="st1" d="M19.1,11.4H0v2.2h8.1v6.8h2.1c0,0,0.9-0.1,0.9-0.7v-6h8.1L19.1,11.4z"/>
		</g>
		<g id="그룹_38" transform="translate(40.628 0.789)">
			<path id="패스_90" class="st1" d="M15.4,0v20.5h2.1c0.5-0.1,0.9-0.5,0.9-1V0H15.4z"/>
			<path id="패스_91" class="st1" d="M11,3.6H8.2C7.4,1.6,6.1,0.4,4.5,0.4C1.9,0.4,0,3.7,0,8s1.9,7.6,4.5,7.6c1.6,0,3-1.3,3.8-3.3
				H11v8.3h2c0.5-0.1,0.9-0.5,0.9-1V0H11L11,3.6z M4.5,13.4C3.9,13.4,2.6,11,2.6,8s1.2-5.4,1.9-5.4S6.4,5,6.4,8S5.2,13.4,4.5,13.4
				L4.5,13.4z M8.9,9.9c0.2-1.3,0.2-2.7,0-4H11v4H8.9z"/>
		</g>
		<g id="그룹_39" transform="translate(60.878)">
			<path id="패스_92" class="st1" d="M19.1,10.3V7.9H0v2.3h8.1v1.4H1.7v2.3H14v1.3H2v4.9c0,0.8,0.9,0.9,0.9,0.9h14.5v-2.3H4.9
				v-1.1H17v-5.1c0-0.8-0.9-0.9-0.9-0.9h-5.1v-1.4L19.1,10.3z"/>
			<path id="패스_93" class="st1" d="M9.3,4c2.6,0.5,4.9,1.6,6.9,3.4l1.4-2.1c0.4-0.4-0.2-0.7-0.2-0.7c-1.9-1.2-4.1-1.9-6.3-2.2
				c0.1-0.1,0.1-0.2,0.2-0.3c0.1-0.2,0.1-0.4,0-0.6c0,0,0,0,0,0L9.2,0c-1.6,3-7,4.3-8.8,4.5l0.5,2C1.1,6.5,5.9,6.4,9.3,4z"/>
		</g>
		<g id="그룹_40" transform="translate(82.003 1.081)">
			<path id="패스_94" class="st1" d="M16.1,18.9V0h-1.5v19.9h1.1C15.7,19.9,16.1,19.8,16.1,18.9z"/>
			<rect id="사각형_40" x="0" y="13.9" class="st1" width="14.9" height="1.6"/>
			<path id="패스_95" class="st1" d="M0.5,6.1C0.2,9,2.3,11.6,5.2,11.9s5.5-1.8,5.8-4.7S9.2,1.7,6.3,1.4c-0.2,0-0.4,0-0.6,0
				C3,1.2,0.6,3.3,0.5,6.1z M2,6.1C2,4.4,3.7,3,5.8,3s3.8,1.4,3.8,3.1S7.8,9.2,5.8,9.2S2,7.8,2,6.1z"/>
		</g>
	</g>
</g>
<g>
	<g>
		<polygon class="st2" points="27.7,51.6 27.6,58.2 143.7,58.2 143.7,51.6 		"/>
		<g>
			<path class="st3" d="M7.2,1.1v2.7l0,0c59.4-3.7,106.2,22.9,106.2,22.9s16.8-7.2,36-4.4c0.1-0.2,0.2-0.5,0.4-0.7
				C79.3-4.8,18.6-0.1,7.2,1.1z"/>
			<path class="st4" d="M22.6,36.4l6.2,0.1l-2.6-22.3l-7.1-0.1C19.1,14.1,15.6,26.5,22.6,36.4z"/>
			<path class="st3" d="M19.2,6.4l-0.1,3.8c0,0,19.4-2.5,67,10l0.5-0.5C77.8,16,53,6.9,19.2,6.4z"/>
			<path class="st5" d="M134.3,35.7l0.8,13.1H75.7l-0.4-18.6l57.3,3.6C132.6,33.8,134.3,33.9,134.3,35.7z"/>
		</g>
		<path class="st5" d="M29.1,14.4L31.7,38c0,0.8-0.6,0.9-0.6,0.9L23,38.7l0,0.1h-0.3v3.8h-6.9v1.6h-4.5v1H7.2v1.3H3.5v2.1L0,48.7
			l0.1,6.1l24.7,0l0-6l47.7,0l-0.3-21.2c0,0-0.1-0.6,0.6-0.6l27,2l0.3-0.6C90.6,25.5,54.2,14.3,29.1,14.4z"/>
	</g>
</g>
</svg>
