<?xml version="1.0" encoding="utf-8"?>
<!-- Generator: Adobe Illustrator 25.4.1, SVG Export Plug-In . SVG Version: 6.00 Build 0)  -->
<svg version="1.1" id="레이어_1" xmlns="http://www.w3.org/2000/svg" xmlns:xlink="http://www.w3.org/1999/xlink" x="0px"
	 y="0px" viewBox="0 0 328.5 71.4" style="enable-background:new 0 0 328.5 71.4;" xml:space="preserve">
<style type="text/css">
	.st0{fill:#767676;}
	.st1{fill:#D3A851;}
	.st2{fill:#D27700;}
	.st3{fill:#B16400;}
	.st4{fill:#692407;}
	.st5{fill:#2C0000;}
	.st6{fill:#FFFFFF;}
</style>
<g id="그룹_7875" transform="translate(-1259.362 -480.686)">
	<g id="그룹_7862">
		<path id="패스_3040" class="st0" d="M1356.3,516.9c-1.8,0.6-3.8,1-5.7,1c-2.5,0.2-5-0.7-6.9-2.4c-1.7-1.7-2.6-4.1-2.5-6.5
			c0-5.6,4-9.2,9.8-9.2c1.6,0,3.2,0.2,4.7,0.8l-0.7,2.6c-1.3-0.5-2.7-0.8-4-0.8c-3.8,0-6.4,2.2-6.4,6.4c0,4,2.5,6.4,6.1,6.4
			c0.8,0,1.7-0.1,2.4-0.4v-4.4h-3.1v-2.5h6.3L1356.3,516.9z"/>
		<path id="패스_3041" class="st0" d="M1361.2,504.9l2.3,6.8c0.3,0.8,0.5,1.8,0.7,2.5h0.1c0.2-0.7,0.4-1.7,0.7-2.5l2-6.8h3.5
			l-3.2,8.7c-1.8,4.8-2.9,6.9-4.5,8.2c-0.9,0.9-2.1,1.4-3.4,1.7l-0.7-2.7c0.7-0.2,1.3-0.5,1.9-0.9c0.7-0.5,1.3-1.2,1.8-2
			c0.1-0.2,0.2-0.4,0.2-0.6c0-0.2-0.1-0.4-0.2-0.6l-4.7-11.7L1361.2,504.9z"/>
		<path id="패스_3042" class="st0" d="M1373.9,512.2c0.1,2.3,1.9,3.3,4,3.3c1.2,0,2.4-0.2,3.6-0.6l0.5,2.2c-1.4,0.6-3,0.8-4.5,0.8
			c-4.1,0-6.6-2.5-6.6-6.5c0-3.5,2.2-6.9,6.2-6.9c4.2,0,5.6,3.4,5.6,6.2c0,0.5,0,0.9-0.1,1.4H1373.9z M1379.6,510
			c0-1.2-0.5-3.1-2.7-3.1c-1.7,0.1-3,1.5-3,3.1H1379.6z"/>
		<path id="패스_3043" class="st0" d="M1397.1,511.2c0,4.7-3.3,6.8-6.6,6.8c-3.6,0-6.4-2.5-6.4-6.6c0-4.2,2.8-6.8,6.6-6.8
			C1394.6,504.6,1397.1,507.3,1397.1,511.2z M1387.5,511.3c0,2.5,1.2,4.3,3.2,4.3c1.8,0,3.1-1.8,3.1-4.4c0-2-0.9-4.3-3.1-4.3
			C1388.4,507,1387.5,509.2,1387.5,511.3L1387.5,511.3z"/>
		<path id="패스_3044" class="st0" d="M1399.5,508.7c0-1.5,0-2.7-0.1-3.8h2.8l0.2,1.9h0.1c0.9-1.4,2.4-2.3,4.1-2.2
			c2.2,0,4.5,1.4,4.5,5.5v7.6h-3.2v-7.2c0-1.8-0.7-3.2-2.4-3.2c-1.2,0-2.2,0.8-2.5,1.9c-0.1,0.3-0.1,0.7-0.1,1v7.5h-3.2
			L1399.5,508.7z"/>
		<path id="패스_3045" class="st0" d="M1426,504.9c-0.1,0.9-0.1,1.9-0.1,3.7v7.2c0,2.7-0.5,4.6-1.9,5.8c-1.4,1.1-3.2,1.6-4.9,1.5
			c-1.6,0-3.1-0.3-4.5-1l0.7-2.4c1.1,0.6,2.4,1,3.7,1c2.1,0,3.7-1.1,3.7-3.9v-1.1h0c-0.8,1.2-2.2,1.9-3.7,1.9
			c-3.2,0-5.4-2.6-5.4-6.3c0-4.2,2.7-6.8,5.8-6.8c1.5-0.1,2.9,0.7,3.7,2h0.1l0.1-1.7L1426,504.9z M1422.6,510c0-0.3,0-0.6-0.1-0.9
			c-0.3-1.2-1.4-2.1-2.6-2.1c-1.8,0-3.2,1.6-3.2,4.2c0,2.2,1.1,3.9,3.1,3.9c1.2,0,2.3-0.8,2.6-1.9c0.1-0.4,0.1-0.8,0.1-1.2V510z"/>
		<path id="패스_3046" class="st0" d="M1426.2,520.7c0.9,0,1.8-0.3,2.4-0.9c0.6-0.7,0.8-1.7,0.8-4.4v-10.4h3.2v11.3
			c0,2.6-0.5,4.3-1.6,5.5c-1.3,1-2.9,1.6-4.5,1.5L1426.2,520.7z M1432.9,501.4c0,0.9-0.7,1.7-1.7,1.7c-0.1,0-0.1,0-0.2,0
			c-0.9,0-1.7-0.7-1.8-1.6c0,0,0-0.1,0-0.1c0-0.9,0.7-1.7,1.7-1.8c0.1,0,0.1,0,0.2,0c0.9-0.1,1.7,0.7,1.8,1.6
			C1432.9,501.2,1432.9,501.3,1432.9,501.4z"/>
		<path id="패스_3047" class="st0" d="M1447.3,513.9c0,1.5,0,2.8,0.1,3.8h-2.8l-0.2-1.9h0c-0.9,1.4-2.4,2.3-4.1,2.2
			c-2.3,0-4.5-1.4-4.5-5.6v-7.5h3.2v7c0,2.1,0.7,3.5,2.4,3.5c1.1,0,2.1-0.7,2.5-1.7c0.1-0.3,0.2-0.7,0.2-1v-7.7h3.2L1447.3,513.9z"
			/>
		<path id="패스_3048" class="st0" d="M1343.7,527.2h7.2v1.9h-4.9v3.4h4.6v1.9h-4.6v5.3h-2.3V527.2z"/>
		<path id="패스_3049" class="st0" d="M1360.8,535.1c0.2,2.4-1.6,4.6-4.1,4.7c-0.2,0-0.3,0-0.5,0c-2.4,0.1-4.4-1.8-4.5-4.1
			c0-0.2,0-0.3,0-0.5c-0.2-2.4,1.7-4.6,4.1-4.7c0.2,0,0.4,0,0.6,0c2.4-0.1,4.4,1.8,4.5,4.1C1360.8,534.7,1360.8,534.9,1360.8,535.1z
			 M1354,535.1c0,1.7,0.9,3,2.2,3c1.3,0,2.2-1.3,2.2-3.1c0-1.4-0.6-3-2.2-3C1354.6,532.1,1354,533.7,1354,535.1z"/>
		<path id="패스_3050" class="st0" d="M1370.4,536.9c0,1.1,0,1.9,0.1,2.7h-2l-0.1-1.4h0c-0.6,1-1.7,1.6-2.9,1.6
			c-1.6,0-3.1-1-3.1-3.9v-5.3h2.3v4.9c0,1.5,0.5,2.4,1.7,2.4c0.8,0,1.4-0.5,1.7-1.2c0.1-0.2,0.1-0.5,0.1-0.7v-5.4h2.3V536.9z"/>
		<path id="패스_3051" class="st0" d="M1372.7,533.3c0-1,0-1.9-0.1-2.7h2l0.1,1.3h0.1c0.6-1,1.7-1.6,2.9-1.5c1.6,0,3.2,1,3.2,3.8
			v5.3h-2.3v-5.1c0-1.3-0.5-2.3-1.8-2.3c-0.8,0-1.5,0.6-1.8,1.3c-0.1,0.2-0.1,0.5-0.1,0.7v5.3h-2.3V533.3z"/>
		<path id="패스_3052" class="st0" d="M1391.3,526.6v10.5c0,0.9,0,1.9,0.1,2.5h-2l-0.1-1.4h0c-0.6,1-1.7,1.7-2.9,1.6
			c-2.1,0-3.8-1.8-3.8-4.6c0-3,1.9-4.8,4-4.8c1-0.1,1.9,0.4,2.5,1.2h0v-5.1H1391.3z M1389.1,534.4c0-0.2,0-0.4-0.1-0.6
			c-0.2-0.9-1-1.6-1.9-1.6c-1.5,0-2.3,1.3-2.3,3c0,1.6,0.8,2.8,2.2,2.8c0.9,0,1.8-0.7,1.9-1.6c0.1-0.2,0.1-0.4,0.1-0.7L1389.1,534.4
			z"/>
		<path id="패스_3053" class="st0" d="M1398.6,539.6l-0.2-1h-0.1c-0.7,0.8-1.6,1.2-2.7,1.2c-1.5,0.1-2.7-1-2.8-2.5
			c0-0.1,0-0.1,0-0.2c0-2.3,2-3.4,5.3-3.4v-0.1c0-0.6-0.2-1.6-1.8-1.6c-0.8,0-1.7,0.2-2.4,0.7l-0.4-1.5c1-0.5,2.1-0.8,3.2-0.8
			c2.9,0,3.7,1.8,3.7,3.8v3.2c0,0.7,0,1.4,0.1,2.2L1398.6,539.6z M1398.3,535.2c-1.6,0-3.1,0.3-3.1,1.7c-0.1,0.7,0.4,1.2,1.1,1.3
			c0.1,0,0.1,0,0.2,0c0.8,0,1.5-0.5,1.8-1.2c0.1-0.2,0.1-0.3,0.1-0.5L1398.3,535.2z"/>
		<path id="패스_3054" class="st0" d="M1405.2,528.1v2.6h2.2v1.7h-2.2v4c0,1.1,0.3,1.7,1.2,1.7c0.3,0,0.6,0,0.9-0.1l0,1.7
			c-0.5,0.2-1.1,0.2-1.6,0.2c-0.7,0-1.4-0.2-1.9-0.7c-0.5-0.7-0.8-1.6-0.7-2.5v-4.2h-1.3v-1.7h1.3v-2L1405.2,528.1z"/>
		<path id="패스_3055" class="st0" d="M1411.3,528.2c0,0.7-0.6,1.2-1.3,1.2c-0.7,0-1.2-0.6-1.2-1.2c0-0.7,0.6-1.3,1.3-1.3
			C1410.7,526.9,1411.3,527.5,1411.3,528.2z M1408.9,539.6v-9h2.3v9H1408.9z"/>
		<path id="패스_3056" class="st0" d="M1421.9,535.1c0.2,2.4-1.6,4.6-4.1,4.7c-0.2,0-0.3,0-0.5,0c-2.4,0.1-4.4-1.8-4.5-4.2
			c0-0.2,0-0.3,0-0.5c-0.2-2.4,1.6-4.6,4.1-4.7c0.2,0,0.4,0,0.5,0c2.4-0.1,4.4,1.8,4.5,4.1C1421.9,534.7,1421.9,534.9,1421.9,535.1z
			 M1415.2,535.1c0,1.7,0.8,3,2.2,3c1.3,0,2.2-1.3,2.2-3.1c0-1.4-0.6-3-2.2-3C1415.8,532.1,1415.2,533.7,1415.2,535.1L1415.2,535.1z
			"/>
		<path id="패스_3057" class="st0" d="M1423.6,533.3c0-1,0-1.9-0.1-2.7h2l0.1,1.3h0.1c0.6-1,1.7-1.6,2.8-1.5c1.6,0,3.2,1,3.2,3.8
			v5.3h-2.3v-5.1c0-1.3-0.5-2.3-1.7-2.3c-0.8,0-1.5,0.6-1.8,1.3c-0.1,0.2-0.1,0.5-0.1,0.7v5.3h-2.3L1423.6,533.3z"/>
		<path id="패스_3058" class="st0" d="M1437.8,539.6v-7.3h-1.2v-1.7h1.2v-0.4c-0.1-1.1,0.3-2.2,1.1-3c0.6-0.6,1.5-0.9,2.3-0.9
			c0.5,0,1,0.1,1.4,0.2l-0.2,1.7c-0.3-0.1-0.6-0.2-1-0.2c-1.1,0-1.5,0.9-1.5,2v0.5h2v1.7h-1.9v7.3H1437.8z"/>
		<path id="패스_3059" class="st0" d="M1451.5,535.1c0.2,2.4-1.6,4.6-4.1,4.8c-0.2,0-0.3,0-0.5,0c-2.4,0.1-4.4-1.8-4.5-4.2
			c0-0.2,0-0.3,0-0.5c-0.2-2.4,1.6-4.6,4.1-4.7c0.2,0,0.4,0,0.5,0c2.4-0.1,4.4,1.7,4.5,4.1C1451.5,534.7,1451.5,534.9,1451.5,535.1z
			 M1444.8,535.1c0,1.7,0.8,3,2.2,3c1.3,0,2.2-1.3,2.2-3.1c0-1.4-0.6-3-2.2-3C1445.4,532.1,1444.8,533.7,1444.8,535.1z"/>
		<path id="패스_3060" class="st0" d="M1453.2,533.5c0-1.2,0-2.1-0.1-2.9h2l0.1,1.7h0.1c0.3-1.1,1.3-1.9,2.4-1.9
			c0.2,0,0.4,0,0.5,0.1v2.1c-0.2,0-0.4-0.1-0.7-0.1c-1,0-1.9,0.7-2,1.7c0,0.2-0.1,0.5-0.1,0.7v4.6h-2.3L1453.2,533.5z"/>
		<path id="패스_3061" class="st0" d="M1465.7,536.1l-1.1,3.5h-2.3l4-12.4h2.9l4,12.4h-2.4l-1.1-3.5H1465.7z M1469.3,534.4l-1-3
			c-0.2-0.8-0.4-1.6-0.6-2.3h0c-0.2,0.7-0.4,1.6-0.6,2.3l-1,3H1469.3z"/>
		<path id="패스_3062" class="st0" d="M1474.6,533.5c0-1.2,0-2.1-0.1-2.9h2l0.1,1.7h0.1c0.3-1.1,1.3-1.9,2.4-1.9
			c0.2,0,0.4,0,0.5,0.1v2.1c-0.2,0-0.4-0.1-0.7-0.1c-1,0-1.9,0.7-2,1.7c0,0.2-0.1,0.5-0.1,0.7v4.6h-2.3L1474.6,533.5z"/>
		<path id="패스_3063" class="st0" d="M1483.9,528.1v2.6h2.1v1.7h-2.1v4c0,1.1,0.3,1.7,1.2,1.7c0.3,0,0.6,0,0.9-0.1l0,1.7
			c-0.5,0.2-1.1,0.2-1.6,0.2c-0.7,0-1.4-0.2-1.9-0.7c-0.5-0.7-0.8-1.6-0.7-2.5v-4.2h-1.3v-1.7h1.3v-2L1483.9,528.1z"/>
		<path id="패스_3064" class="st0" d="M1487.5,537.5c0.7,0.4,1.5,0.6,2.3,0.6c1,0,1.4-0.4,1.4-1s-0.4-0.9-1.5-1.3
			c-1.7-0.6-2.5-1.6-2.5-2.6c0-1.6,1.3-2.8,3.4-2.8c0.8,0,1.6,0.2,2.4,0.5l-0.4,1.6c-0.6-0.3-1.2-0.5-1.9-0.5
			c-0.8,0-1.2,0.4-1.2,0.9c0,0.6,0.4,0.8,1.6,1.2c1.6,0.6,2.4,1.4,2.4,2.7c0,1.6-1.3,2.8-3.6,2.8c-0.9,0-1.9-0.2-2.7-0.6
			L1487.5,537.5z"/>
		<path id="패스_3065" class="st0" d="M1503.8,539.6l-0.1-1h-0.1c-0.7,0.8-1.6,1.2-2.7,1.2c-1.5,0.1-2.7-1-2.8-2.5
			c0-0.1,0-0.1,0-0.2c0-2.3,2-3.4,5.3-3.4v-0.1c0-0.6-0.2-1.6-1.8-1.6c-0.8,0-1.7,0.2-2.4,0.7l-0.4-1.5c1-0.5,2.1-0.8,3.2-0.8
			c2.9,0,3.7,1.8,3.7,3.8v3.2c0,0.7,0,1.4,0.1,2.2L1503.8,539.6z M1503.5,535.2c-1.6,0-3.1,0.3-3.1,1.7c-0.1,0.7,0.4,1.2,1.1,1.3
			c0.1,0,0.1,0,0.2,0c0.8,0,1.5-0.5,1.8-1.2c0.1-0.2,0.1-0.3,0.1-0.5V535.2z"/>
		<path id="패스_3066" class="st0" d="M1507.9,533.3c0-1,0-1.9-0.1-2.7h2l0.1,1.3h0.1c0.6-1,1.7-1.6,2.8-1.5c1.6,0,3.2,1,3.2,3.8
			v5.3h-2.3v-5.1c0-1.3-0.5-2.3-1.7-2.3c-0.8,0-1.5,0.6-1.8,1.3c-0.1,0.2-0.1,0.5-0.1,0.7v5.3h-2.3L1507.9,533.3z"/>
		<path id="패스_3067" class="st0" d="M1526.5,526.6v10.5c0,0.9,0,1.9,0.1,2.5h-2l-0.1-1.4h0c-0.6,1-1.7,1.7-2.9,1.6
			c-2.1,0-3.8-1.8-3.8-4.6c0-3,1.9-4.8,4-4.8c1-0.1,1.9,0.4,2.5,1.2h0v-5.1H1526.5z M1524.2,534.4c0-0.2,0-0.4-0.1-0.6
			c-0.2-0.9-1-1.6-2-1.6c-1.5,0-2.3,1.3-2.3,3c0,1.6,0.8,2.8,2.2,2.8c0.9,0,1.8-0.7,1.9-1.6c0.1-0.2,0.1-0.4,0.1-0.7V534.4z"/>
		<path id="패스_3068" class="st0" d="M1541.3,539.2c-1,0.4-2.1,0.6-3.2,0.5c-3.9,0-6.3-2.5-6.3-6.2c0-4.1,2.8-6.5,6.6-6.5
			c1,0,2.1,0.1,3,0.5l-0.5,1.8c-0.8-0.3-1.6-0.5-2.4-0.5c-2.5,0-4.3,1.6-4.3,4.6c0,2.7,1.6,4.5,4.3,4.5c0.8,0,1.7-0.1,2.5-0.5
			L1541.3,539.2z"/>
		<path id="패스_3069" class="st0" d="M1550.7,536.9c0,1.1,0,1.9,0.1,2.7h-2l-0.1-1.4h0c-0.6,1-1.7,1.6-2.9,1.6
			c-1.6,0-3.1-1-3.1-3.9v-5.3h2.3v4.9c0,1.5,0.5,2.4,1.7,2.4c0.8,0,1.5-0.5,1.7-1.2c0.1-0.2,0.1-0.5,0.1-0.7v-5.4h2.3L1550.7,536.9z
			"/>
		<path id="패스_3070" class="st0" d="M1552.9,526.6h2.3v13h-2.3V526.6z"/>
		<path id="패스_3071" class="st0" d="M1560,528.1v2.6h2.2v1.7h-2.2v4c0,1.1,0.3,1.7,1.2,1.7c0.3,0,0.6,0,0.9-0.1l0,1.7
			c-0.5,0.2-1.1,0.2-1.6,0.2c-0.7,0-1.4-0.2-1.9-0.7c-0.5-0.7-0.8-1.6-0.7-2.5v-4.2h-1.3v-1.7h1.3v-2L1560,528.1z"/>
		<path id="패스_3072" class="st0" d="M1571.7,536.9c0,1.1,0,1.9,0.1,2.7h-2l-0.1-1.4h0c-0.6,1-1.7,1.6-2.9,1.6
			c-1.6,0-3.1-1-3.1-3.9v-5.3h2.3v4.9c0,1.5,0.5,2.4,1.7,2.4c0.8,0,1.4-0.5,1.7-1.2c0.1-0.2,0.1-0.5,0.1-0.7v-5.4h2.3V536.9z"/>
		<path id="패스_3073" class="st0" d="M1574,533.5c0-1.2,0-2.1-0.1-2.9h2l0.1,1.7h0.1c0.3-1.3,1.6-2.1,3-1.9v2.1
			c-0.2,0-0.4-0.1-0.7-0.1c-1,0-1.9,0.7-2,1.7c0,0.2-0.1,0.5-0.1,0.7v4.6h-2.3V533.5z"/>
		<path id="패스_3074" class="st0" d="M1581.8,535.8c0.1,1.6,1.3,2.3,2.8,2.3c0.8,0,1.7-0.1,2.5-0.4l0.3,1.6
			c-1,0.4-2.1,0.6-3.1,0.5c-2.3,0.2-4.4-1.5-4.6-3.8c0-0.2,0-0.5,0-0.7c0-2.5,1.5-4.8,4.4-4.8c2.9,0,3.9,2.4,3.9,4.4
			c0,0.3,0,0.6-0.1,1L1581.8,535.8z M1585.7,534.2c0.1-1-0.6-2-1.6-2.2c-0.1,0-0.1,0-0.2,0c-1.2,0.1-2.1,1-2.1,2.2H1585.7z"/>
	</g>
</g>
<g>
	<g>
		<path class="st1" d="M35.7,0C22,0,10.1,7.7,4.1,19.1c19.2-3.6,39-5.6,59.3-5.8C56.8,5.2,46.9,0,35.7,0z"/>
		<path class="st2" d="M63.4,13.2c-20.2,0.2-40,2.2-59.3,5.8C1.5,24,0,29.7,0,35.7c0,3.7,0.6,7.2,1.6,10.6
			c21.8-8.9,44.8-15.2,68.9-18.6C69.2,22.3,66.8,17.4,63.4,13.2z"/>
		<path class="st3" d="M35.7,71.3c19.7,0,35.7-16,35.7-35.7c0-2.7-0.3-5.4-0.9-8c-24,3.4-47.1,9.7-68.9,18.6
			C6.1,60.8,19.7,71.3,35.7,71.3z"/>
	</g>
	<g>
		<rect x="32.8" y="7.5" class="st4" width="19.5" height="3.8"/>
		<path class="st4" d="M58.2,58.9c0-9.5-0.9-16.2-3.6-24.5c-1.4-4.2-2.2-8-2.7-13c-0.7-6.7-0.5-8.1-0.5-9.1H33.8
			c0,1,0.2,2.4-0.5,9.1c-0.5,5-1.4,8.7-2.7,13c-2.7,8.2-3.6,15-3.6,24.5h-2.4v3.2h35v-3.2H58.2z"/>
		<rect x="42.1" y="27.8" class="st5" width="6.4" height="6.4"/>
	</g>
	<g>
		<polygon class="st6" points="42.9,56.1 32.2,53.3 31.3,42.3 21.7,35.2 16.1,23.9 4.3,19.5 4.5,18.9 16.6,23.5 22.2,34.7 
			31.8,41.9 32.7,52.8 42.6,55.4 48.3,46.9 48.8,47.3 		"/>
		<path class="st6" d="M22,36.6c-0.9,0-1.7-0.7-1.7-1.6c0-0.9,0.7-1.7,1.6-1.7c0.9,0,1.7,0.7,1.7,1.6C23.6,35.8,22.9,36.6,22,36.6z"
			/>
		<path class="st6" d="M31.6,43.8c-0.9,0-1.7-0.7-1.7-1.6c0-0.9,0.7-1.7,1.6-1.7c0.9,0,1.7,0.7,1.7,1.6C33.2,43,32.5,43.7,31.6,43.8
			z"/>
		<path class="st6" d="M32.5,54.7c-0.9,0-1.7-0.7-1.7-1.6c0-0.9,0.7-1.7,1.6-1.7c0.9,0,1.7,0.7,1.7,1.6
			C34.1,53.9,33.4,54.7,32.5,54.7z"/>
		<path class="st6" d="M42.8,57.5c-0.9,0-1.7-0.7-1.7-1.6c0-0.9,0.7-1.7,1.6-1.7c0.9,0,1.7,0.7,1.7,1.6
			C44.5,56.7,43.7,57.4,42.8,57.5z"/>
		<path class="st6" d="M48.6,48.8c-0.9,0-1.7-0.7-1.7-1.6c0-0.9,0.7-1.7,1.6-1.7c0.9,0,1.7,0.7,1.7,1.6C50.3,48,49.6,48.8,48.6,48.8
			z"/>
		<path class="st6" d="M16.4,26.2c-1.4,0-2.5-1-2.5-2.4c0-1.4,1-2.5,2.4-2.5c1.4,0,2.5,1,2.5,2.4C18.8,25,17.8,26.1,16.4,26.2z"/>
		<path class="st6" d="M4.5,20.9c-0.9,0-1.7-0.7-1.7-1.6c0-0.9,0.7-1.7,1.6-1.7c0.9,0,1.7,0.7,1.7,1.6C6.1,20.1,5.4,20.9,4.5,20.9z"
			/>
	</g>
</g>
</svg>
