<?xml version="1.0" encoding="utf-8"?>
<!-- Generator: Adobe Illustrator 25.4.1, SVG Export Plug-In . SVG Version: 6.00 Build 0)  -->
<svg version="1.1" id="그룹_7915" xmlns="http://www.w3.org/2000/svg" xmlns:xlink="http://www.w3.org/1999/xlink" x="0px"
	 y="0px" viewBox="0 0 295.1 71.3" style="enable-background:new 0 0 295.1 71.3;" xml:space="preserve">
<style type="text/css">
	.st0{fill:#302D2C;}
	.st1{fill:#767676;}
	.st2{fill:#D3A851;}
	.st3{fill:#D27700;}
	.st4{fill:#B16400;}
	.st5{fill:#692407;}
	.st6{fill:#2C0000;}
	.st7{fill:#FFFFFF;}
</style>
<g id="그룹_32" transform="translate(81.809 18.539)">
	<g id="그룹_30" transform="translate(0)">
		<g id="그룹_28" transform="translate(39.114)">
			<path id="패스_13" class="st0" d="M63.7,11.5h17c0.7-0.1,1.2-0.6,1.2-1.3V1.4H62.5v8.8C62.5,10.9,63,11.5,63.7,11.5z M77.7,4.5
				v3.9h-11V4.5H77.7z"/>
			<path id="패스_14" class="st0" d="M21.7,16.6h2.5c0.7-0.1,1.2-0.6,1.2-1.3V0.8h-4.3V4h-6.4c0-0.2,0-0.3,0-0.5l0,0V3.2
				c0.1-0.8-0.4-1.5-1.2-1.6c-0.1,0-0.1,0-0.2,0h-12v3.1h9.3c-0.5,4.5-7.3,8.1-10.6,9l0.8,2.5c3.9-0.9,11.1-3.3,13.3-9h7v2.7h-7.9
				V13h7.9v3.4c-1.6-0.7-3.4-1.1-5.2-1c-5.4,0-9.6,3-9.6,6.8S10.7,29,16,29s9.6-3,9.6-6.8C25.6,19.8,24.1,17.8,21.7,16.6z M16,25.9
				c-3.7,0-5.5-2.1-5.5-3.8s1.8-3.8,5.5-3.8s5.4,2.1,5.4,3.8S19.7,25.9,16,25.9z"/>
			<path id="패스_15" class="st0" d="M29.6,11.6l1.3,2.5c2.8-0.4,8.1-1.7,11.9-4.4c3.9,0.5,7.6,2.1,10.5,4.6l2.4-3.4
				c-3.2-2-6.9-3.1-10.6-3.4c1.1-1.3,1.7-2.9,1.7-4.6h0V2.7c0-1.5-1.6-1.4-1.6-1.4H31v2.8h11.1C41.5,8.1,33.3,10.9,29.6,11.6z"/>
			<path id="패스_16" class="st0" d="M116.9,13.6v-3.1h-5V0.8h-4.3v18.5H99V17c3-0.8,5.2-3.2,5.2-6c0-1.9-1-3.7-2.6-4.8h3.9V3.1
				H99V0.6C99,0.1,97.8,0,97.8,0h-3v3.1H88v3.1h4.2c-1.6,1.1-2.6,2.8-2.6,4.8c0,2.8,2.2,5.2,5.2,6v2.4h-7.2v3.1h20.2v5.8h3
				c0.7-0.1,1.2-0.6,1.2-1.3V13.6H116.9z M93.4,10.8c0-1.5,1.3-2.8,3.4-2.8s3.4,1.3,3.4,2.8s-1.3,2.8-3.4,2.8S93.4,12.3,93.4,10.8z"
				/>
			<path id="패스_17" class="st0" d="M58.6,17h12.2v5.5h3c0,0,1.2-0.1,1.2-1V17H86v-3.1H58.6V17z"/>
			<path id="패스_18" class="st0" d="M28.7,19.5h11.7v8.7h3c0,0,1.2-0.1,1.2-1v-7.7h11.4v-3.1H28.7V19.5z"/>
			<path id="패스_19" class="st0" d="M66.7,19.2h-4.3v7.4c0,1,1.2,1.2,1.2,1.2h18.9v-3.1H66.7V19.2z"/>
			<path id="패스_20" class="st0" d="M174.2,9.2h-4.7V1h-4.3v19.4h3c0.7-0.1,1.2-0.6,1.2-1.3v-6.7h4.7L174.2,9.2z"/>
			<path id="패스_21" class="st0" d="M161.1,15.7v-3.1l-10.7,0.4V5.6h10.1V2.5h-14.4v12.2c0,0.7,0.5,1.3,1.2,1.3h3L161.1,15.7z"/>
			<path id="패스_22" class="st0" d="M153.9,19.1h-4.3v7.6c0,1,1.2,1.2,1.2,1.2h18.5v-3.1h-15.5V19.1z"/>
			<path id="패스_23" class="st0" d="M138.2,11.1h-2.1V0.8h-4.3v27.5h3c0.7-0.1,1.2-0.6,1.2-1.3V14.2h2.1v14.1h3
				c0.7-0.1,1.2-0.6,1.2-1.3V0.8h-4.3V11.1z"/>
			<path id="패스_24" class="st0" d="M125.8,15.2c1.8-3.3,2.7-7,2.5-10.7l0,0c0-0.1,0-0.2,0-0.3l0,0V3.9c0.1-0.8-0.4-1.5-1.2-1.6
				c-0.1,0-0.2,0-0.2,0h-9v3.1h6.3c0,0,0,0,0,0h0.2c0.4,5.9-2.7,11.4-7.9,14.1l1.5,2.7c2.7-1.2,5-3,6.8-5.3c1.9,1.3,3.4,3.3,4.2,5.5
				l0.1,0l2.5-2.5c0.4-0.4,0-0.9,0-0.9C129.9,17.2,128,15.9,125.8,15.2z"/>
		</g>
		<g id="그룹_29" transform="translate(0 1.933)">
			<path id="패스_25" class="st0" d="M26,11.1h-4.2V0.6h-2.1v26.1h1.5c0,0,0.6-0.1,0.6-1.3V13.2H26v13.5h1.5c0,0,0.6-0.1,0.6-1.3
				V0.6H26L26,11.1z"/>
			<path id="패스_26" class="st0" d="M32.3,0l-1.2,0.5c0,0.1,4.4,10.2,0,27.1l1.3,0.3C36.9,10.6,32.4,0.4,32.3,0z"/>
			<path id="패스_27" class="st0" d="M3.3,0.5L2.1,0c-0.2,0.4-4.6,10.6,0,28l1.3-0.3C-1.1,10.8,3.3,0.6,3.3,0.5z"/>
			<path id="패스_28" class="st0" d="M11.4,11.9c1.3-3.3,2.1-6.8,2.4-10.4h-8v2.1h5.6c-0.6,3.7-2.3,11.1-7.2,16.1l1.5,1.5
				c2-2.1,3.7-4.6,4.9-7.2c2.2,1.8,4.1,3.9,5.6,6.3l1.8-1C16.3,16.4,14,13.9,11.4,11.9z"/>
		</g>
	</g>
	<g id="그룹_31" transform="translate(1.752 33.504)">
		<path id="패스_29" class="st1" d="M6.7,8.1C5.9,8.4,5.1,8.5,4.2,8.5C3.1,8.6,1.9,8.2,1.1,7.5C0.3,6.7,0,5.6,0,4.6
			c0-2.5,1.8-4.1,4.4-4.1c0.7,0,1.4,0.1,2.1,0.4L6.2,2C5.6,1.8,5,1.6,4.4,1.7C2.9,1.5,1.6,2.6,1.5,4.1c0,0.1,0,0.3,0,0.4
			C1.4,5.9,2.4,7.2,3.9,7.3c0.1,0,0.3,0,0.4,0c0.4,0,0.7,0,1.1-0.2v-2H3.9V4.1h2.8L6.7,8.1z"/>
		<path id="패스_30" class="st1" d="M8.9,2.7l1,3.1c0.1,0.4,0.2,0.8,0.3,1.1h0c0.1-0.3,0.2-0.7,0.3-1.1l0.9-3H13l-1.4,3.9
			c-0.8,2.1-1.3,3.1-2,3.7c-0.4,0.4-0.9,0.6-1.5,0.7L7.8,9.8C8.5,9.6,9,9.1,9.4,8.5c0.1-0.1,0.1-0.2,0.1-0.3c0-0.1,0-0.2-0.1-0.3
			L7.3,2.7L8.9,2.7z"/>
		<path id="패스_31" class="st1" d="M14.6,6c0,0.9,0.8,1.5,1.6,1.5c0,0,0.1,0,0.1,0c0.5,0,1.1-0.1,1.6-0.3l0.2,1
			c-0.6,0.2-1.3,0.4-2,0.4c-1.5,0.1-2.8-1-2.9-2.4c0-0.1,0-0.3,0-0.4c-0.1-1.6,1-2.9,2.6-3.1c0.1,0,0.1,0,0.2,0
			c1.4,0,2.5,1.1,2.5,2.5c0,0.1,0,0.2,0,0.3c0,0.2,0,0.4,0,0.6L14.6,6z M17.1,5c0.1-0.7-0.4-1.3-1-1.4c0,0-0.1,0-0.1,0
			c-0.7,0-1.3,0.7-1.3,1.4H17.1z"/>
		<path id="패스_32" class="st1" d="M24.9,5.5c0.1,1.6-1.1,2.9-2.6,3c-0.1,0-0.2,0-0.3,0c-1.5,0.1-2.8-1.1-2.9-2.6
			c0-0.1,0-0.2,0-0.3c-0.1-1.5,1-2.9,2.6-3c0.1,0,0.2,0,0.4,0c1.5-0.1,2.8,1.1,2.8,2.6C24.9,5.3,24.9,5.4,24.9,5.5z M20.6,5.6
			c0,1.1,0.5,1.9,1.4,1.9c0.8,0,1.4-0.8,1.4-2c0-0.9-0.4-1.9-1.4-1.9C21,3.7,20.6,4.6,20.6,5.6L20.6,5.6z"/>
		<path id="패스_33" class="st1" d="M26,4.4c0-0.7,0-1.2,0-1.7h1.3l0.1,0.9h0c0.4-0.6,1.1-1,1.8-1c1,0,2,0.6,2,2.4v3.4h-1.4V5.2
			c0-0.8-0.3-1.4-1.1-1.4c-0.5,0-1,0.4-1.1,0.8c0,0.2-0.1,0.3-0.1,0.5v3.3H26V4.4z"/>
		<path id="패스_34" class="st1" d="M37.8,2.7c0,0.4,0,0.9,0,1.6v3.2c0.3,1.5-0.6,2.9-2.1,3.2c-0.3,0.1-0.6,0.1-0.9,0
			c-0.7,0-1.4-0.1-2-0.5L33,9.3c0.5,0.3,1.1,0.4,1.7,0.4c0.8,0.1,1.6-0.5,1.6-1.4c0-0.1,0-0.2,0-0.4V7.6h0c-0.4,0.5-1,0.9-1.7,0.8
			c-1.4-0.1-2.5-1.2-2.4-2.6c0-0.1,0-0.1,0-0.2c-0.2-1.5,0.9-2.8,2.4-3c0.1,0,0.1,0,0.2,0c0.7,0,1.3,0.3,1.7,0.9h0l0.1-0.8L37.8,2.7
			z M36.3,5c0-0.1,0-0.3,0-0.4c-0.1-0.5-0.6-0.9-1.2-0.9c-0.8,0-1.4,0.7-1.4,1.9c0,1,0.5,1.8,1.4,1.8c0.5,0,1-0.4,1.2-0.9
			c0-0.2,0.1-0.3,0.1-0.5L36.3,5z"/>
		<path id="패스_35" class="st1" d="M37.9,9.8c0.4,0,0.8-0.1,1.1-0.4c0.3-0.3,0.4-0.7,0.4-2V2.7h1.4v5c0.1,0.9-0.2,1.8-0.7,2.4
			c-0.6,0.5-1.3,0.7-2,0.7L37.9,9.8z M40.8,1.1c0,0.4-0.3,0.8-0.8,0.8c0,0,0,0-0.1,0c-0.4,0-0.8-0.3-0.8-0.7c0,0,0,0,0-0.1
			c0-0.4,0.3-0.8,0.7-0.8c0,0,0,0,0.1,0C40.5,0.3,40.8,0.7,40.8,1.1C40.8,1.1,40.8,1.1,40.8,1.1L40.8,1.1z"/>
		<path id="패스_36" class="st1" d="M47.3,6.7c0,0.7,0,1.2,0,1.7h-1.3L46,7.6h0c-0.4,0.6-1.1,1-1.8,1c-1,0-2-0.6-2-2.5V2.7h1.4
			v3.1c0,0.9,0.3,1.6,1.1,1.6c0.5,0,0.9-0.3,1.1-0.8c0.1-0.1,0.1-0.3,0.1-0.4V2.7h1.4V6.7z"/>
		<path id="패스_37" class="st1" d="M51.1,0.5h4.6v1.2h-3.1v2.2h2.9v1.2h-2.9v3.3h-1.4L51.1,0.5z"/>
		<path id="패스_38" class="st1" d="M61.9,5.5c0.1,1.6-1.1,2.9-2.6,3c-0.1,0-0.2,0-0.3,0c-1.5,0.1-2.8-1.1-2.9-2.6
			c0-0.1,0-0.2,0-0.3c-0.1-1.5,1-2.9,2.6-3c0.1,0,0.2,0,0.4,0c1.5-0.1,2.8,1.1,2.8,2.6C62,5.3,62,5.4,61.9,5.5z M57.7,5.6
			c0,1.1,0.5,1.9,1.4,1.9c0.8,0,1.4-0.8,1.4-2c0-0.9-0.4-1.9-1.4-1.9C58.1,3.7,57.7,4.6,57.7,5.6L57.7,5.6z"/>
		<path id="패스_39" class="st1" d="M68.1,6.7c0,0.7,0,1.2,0,1.7h-1.3l-0.1-0.9h0c-0.4,0.6-1.1,1-1.8,1c-1,0-2-0.6-2-2.5V2.7h1.4
			v3.1c0,0.9,0.3,1.6,1.1,1.6c0.5,0,0.9-0.3,1.1-0.8c0.1-0.1,0.1-0.3,0.1-0.4V2.7h1.4L68.1,6.7z"/>
		<path id="패스_40" class="st1" d="M69.6,4.4c0-0.7,0-1.2,0-1.7h1.3l0.1,0.9h0c0.4-0.6,1.1-1,1.8-1c1,0,2,0.6,2,2.4v3.4h-1.4V5.2
			c0-0.8-0.3-1.4-1.1-1.4c-0.5,0-1,0.4-1.1,0.8C71,4.8,71,4.9,71,5.1v3.3h-1.5L69.6,4.4z"/>
		<path id="패스_41" class="st1" d="M81.4,0.1v6.7c0,0.6,0,1.2,0,1.6h-1.3l-0.1-0.9h0c-0.4,0.7-1.1,1.1-1.9,1
			c-1.4,0-2.4-1.2-2.4-2.9c0-1.9,1.2-3,2.5-3c0.6,0,1.2,0.2,1.6,0.8h0V0.1L81.4,0.1z M79.9,5.1c0-0.1,0-0.3,0-0.4
			c-0.1-0.6-0.6-1-1.2-1c-0.9,0-1.4,0.8-1.4,1.9c0,1,0.5,1.8,1.4,1.8c0.6,0,1.1-0.4,1.2-1c0-0.1,0.1-0.3,0-0.4L79.9,5.1z"/>
		<path id="패스_42" class="st1" d="M86,8.4l-0.1-0.6h0c-0.4,0.5-1,0.8-1.7,0.8c-0.9,0.1-1.7-0.7-1.8-1.6c0,0,0-0.1,0-0.1
			c0-1.4,1.3-2.2,3.4-2.2V4.6c0-0.4-0.2-1-1.2-1c-0.5,0-1.1,0.1-1.5,0.4l-0.3-0.9c0.6-0.3,1.3-0.5,2.1-0.5c1.2-0.1,2.2,0.7,2.4,1.9
			c0,0.2,0,0.3,0,0.5v2.1c0,0.5,0,0.9,0.1,1.4L86,8.4z M85.8,5.6c-1,0-2,0.2-2,1.1c0,0.4,0.3,0.8,0.7,0.8c0,0,0.1,0,0.1,0
			c0.5,0,1-0.3,1.1-0.8c0-0.1,0-0.2,0-0.3L85.8,5.6z"/>
		<path id="패스_43" class="st1" d="M90.2,1.1v1.6h1.4v1.1h-1.4v2.5c0,0.7,0.2,1.1,0.7,1.1c0.2,0,0.4,0,0.6-0.1l0,1.1
			c-0.3,0.1-0.7,0.2-1,0.1c-0.5,0-0.9-0.1-1.2-0.5c-0.3-0.5-0.5-1-0.4-1.6V3.8H88V2.7h0.8V1.5L90.2,1.1z"/>
		<path id="패스_44" class="st1" d="M94.1,1.1c0,0.4-0.3,0.8-0.8,0.8c-0.4,0-0.8-0.3-0.8-0.8c0-0.4,0.3-0.8,0.8-0.8c0,0,0,0,0,0
			C93.7,0.3,94.1,0.7,94.1,1.1C94.1,1.1,94.1,1.1,94.1,1.1z M92.6,8.4V2.7H94v5.7H92.6z"/>
		<path id="패스_45" class="st1" d="M100.8,5.5c0.1,1.6-1.1,2.9-2.6,3c-0.1,0-0.2,0-0.3,0c-1.5,0.1-2.8-1.1-2.9-2.6
			c0-0.1,0-0.2,0-0.3c-0.1-1.5,1-2.9,2.6-3c0.1,0,0.2,0,0.4,0c1.5-0.1,2.8,1.1,2.8,2.6C100.9,5.3,100.9,5.4,100.8,5.5z M96.6,5.6
			c0,1.1,0.5,1.9,1.4,1.9c0.8,0,1.4-0.8,1.4-2c0-0.9-0.4-1.9-1.4-1.9C97,3.7,96.6,4.6,96.6,5.6L96.6,5.6z"/>
		<path id="패스_46" class="st1" d="M101.9,4.4c0-0.7,0-1.2,0-1.7h1.3l0.1,0.9h0c0.4-0.6,1.1-1,1.8-1c1,0,2,0.6,2,2.4v3.4h-1.4
			V5.2c0-0.8-0.3-1.4-1.1-1.4c-0.5,0-1,0.3-1.1,0.8c0,0.2-0.1,0.3-0.1,0.5v3.3h-1.5L101.9,4.4z"/>
		<path id="패스_47" class="st1" d="M111,8.4V3.8h-0.8V2.7h0.8V2.5c0-0.7,0.2-1.4,0.7-1.9c0.4-0.4,0.9-0.6,1.5-0.5
			c0.3,0,0.6,0,0.9,0.1l-0.1,1.1c-0.2-0.1-0.4-0.1-0.6-0.1c-0.7,0-1,0.6-1,1.3v0.3h1.3v1.1h-1.2v4.6L111,8.4z"/>
		<path id="패스_48" class="st1" d="M119.7,5.5c0.1,1.6-1.1,2.9-2.6,3c-0.1,0-0.2,0-0.3,0c-1.5,0.1-2.8-1.1-2.9-2.6
			c0-0.1,0-0.2,0-0.3c-0.1-1.5,1-2.9,2.6-3c0.1,0,0.2,0,0.4,0c1.5-0.1,2.8,1.1,2.8,2.6C119.7,5.3,119.7,5.4,119.7,5.5z M115.4,5.6
			c0,1.1,0.5,1.9,1.4,1.9c0.8,0,1.4-0.8,1.4-2c0-0.9-0.4-1.9-1.4-1.9C115.8,3.7,115.4,4.6,115.4,5.6L115.4,5.6z"/>
		<path id="패스_49" class="st1" d="M120.8,4.6c0-0.8,0-1.3,0-1.8h1.3l0,1.1h0c0.2-0.7,0.8-1.2,1.6-1.2c0.1,0,0.2,0,0.3,0V4
			c-0.1,0-0.3,0-0.4,0c-0.6,0-1.2,0.5-1.3,1.1c0,0.1,0,0.3,0,0.4v2.9h-1.4L120.8,4.6z"/>
		<path id="패스_50" class="st1" d="M128.7,6.2l-0.7,2.2h-1.5l2.5-7.9h1.8l2.6,7.9H132l-0.7-2.2H128.7z M131,5.1l-0.6-1.9
			c-0.2-0.5-0.3-1-0.4-1.5h0c-0.1,0.5-0.2,1-0.4,1.5L129,5.1H131z"/>
		<path id="패스_51" class="st1" d="M134.4,4.6c0-0.8,0-1.3,0-1.8h1.3l0,1.1h0c0.2-0.7,0.8-1.2,1.6-1.2c0.1,0,0.2,0,0.3,0V4
			c-0.1,0-0.3,0-0.4,0c-0.6,0-1.2,0.5-1.3,1.1c0,0.1,0,0.3,0,0.4v2.9h-1.4L134.4,4.6z"/>
		<path id="패스_52" class="st1" d="M140.3,1.1v1.6h1.4v1.1h-1.4v2.5c0,0.7,0.2,1.1,0.7,1.1c0.2,0,0.4,0,0.6-0.1l0,1.1
			c-0.3,0.1-0.7,0.2-1,0.1c-0.5,0-0.9-0.1-1.2-0.5c-0.3-0.5-0.5-1-0.4-1.6V3.8h-0.8V2.7h0.8V1.5L140.3,1.1z"/>
		<path id="패스_53" class="st1" d="M142.6,7.1c0.4,0.3,0.9,0.4,1.5,0.4c0.6,0,0.9-0.3,0.9-0.6s-0.2-0.6-0.9-0.8
			c-1.1-0.4-1.6-1-1.6-1.7c0.1-1.1,1-1.9,2-1.8c0,0,0.1,0,0.1,0c0.5,0,1,0.1,1.5,0.3l-0.3,1c-0.4-0.2-0.8-0.3-1.2-0.3
			c-0.5,0-0.8,0.2-0.8,0.6s0.3,0.5,1,0.8c1,0.4,1.5,0.9,1.5,1.7c0,1-0.8,1.8-2.3,1.8c-0.6,0-1.2-0.1-1.7-0.4L142.6,7.1z"/>
		<path id="패스_54" class="st1" d="M153,8.4l-0.1-0.6h0c-0.4,0.5-1,0.8-1.7,0.8c-0.9,0.1-1.7-0.7-1.8-1.6c0,0,0-0.1,0-0.1
			c0-1.4,1.3-2.2,3.4-2.2V4.6c0-0.4-0.2-1-1.2-1c-0.5,0-1.1,0.1-1.5,0.4l-0.3-0.9c0.6-0.3,1.3-0.5,2.1-0.5c1.2-0.1,2.2,0.7,2.4,1.9
			c0,0.2,0,0.3,0,0.5v2.1c0,0.5,0,0.9,0.1,1.4L153,8.4z M152.8,5.6c-1,0-2,0.2-2,1.1c0,0.4,0.3,0.8,0.7,0.8c0,0,0.1,0,0.1,0
			c0.5,0,1-0.3,1.1-0.8c0-0.1,0-0.2,0-0.3L152.8,5.6z"/>
		<path id="패스_55" class="st1" d="M155.6,4.4c0-0.7,0-1.2,0-1.7h1.3l0.1,0.9h0c0.4-0.6,1.1-1,1.8-1c1,0,2,0.6,2,2.4v3.4h-1.4
			V5.2c0-0.8-0.3-1.4-1.1-1.4c-0.5,0-1,0.3-1.1,0.8c0,0.2-0.1,0.3-0.1,0.5v3.3h-1.5L155.6,4.4z"/>
		<path id="패스_56" class="st1" d="M167.4,0.1v6.7c0,0.6,0,1.2,0,1.6h-1.3l-0.1-0.9h0c-0.4,0.7-1.1,1.1-1.9,1
			c-1.4,0-2.4-1.2-2.4-2.9c0-1.9,1.2-3,2.6-3c0.6,0,1.2,0.2,1.6,0.8h0V0.1L167.4,0.1z M166,5.1c0-0.1,0-0.3,0-0.4
			c-0.1-0.6-0.6-1-1.2-1c-0.9,0-1.4,0.8-1.4,1.9c0,1,0.5,1.8,1.4,1.8c0.6,0,1.1-0.4,1.2-1c0-0.1,0.1-0.3,0-0.4L166,5.1z"/>
		<path id="패스_57" class="st1" d="M176.8,8.2c-0.6,0.3-1.3,0.4-2,0.4c-2,0.2-3.8-1.3-4-3.4c0-0.2,0-0.4,0-0.6
			c-0.1-2.2,1.6-4.1,3.8-4.2c0.2,0,0.3,0,0.5,0c0.7,0,1.3,0.1,1.9,0.4l-0.3,1.1c-0.5-0.2-1-0.3-1.5-0.3c-1.4-0.1-2.7,1-2.8,2.5
			c0,0.1,0,0.3,0,0.4c-0.1,1.4,0.9,2.7,2.3,2.8c0.1,0,0.3,0,0.4,0c0.5,0,1.1-0.1,1.6-0.3L176.8,8.2z"/>
		<path id="패스_58" class="st1" d="M182.8,6.7c0,0.7,0,1.2,0,1.7h-1.3l-0.1-0.9h0c-0.4,0.6-1.1,1-1.8,1c-1,0-2-0.6-2-2.5V2.7h1.4
			v3.1c0,0.9,0.3,1.6,1.1,1.6c0.5,0,0.9-0.3,1.1-0.8c0.1-0.1,0.1-0.3,0.1-0.4V2.7h1.4V6.7z"/>
		<path id="패스_59" class="st1" d="M184.2,0.1h1.5v8.3h-1.5V0.1z"/>
		<path id="패스_60" class="st1" d="M188.8,1.1v1.6h1.4v1.1h-1.4v2.5c0,0.7,0.2,1.1,0.7,1.1c0.2,0,0.4,0,0.6-0.1l0,1.1
			c-0.3,0.1-0.7,0.2-1,0.1c-0.5,0-0.9-0.1-1.2-0.5c-0.3-0.5-0.5-1-0.4-1.6V3.8h-0.8V2.7h0.8V1.5L188.8,1.1z"/>
		<path id="패스_61" class="st1" d="M196.2,6.7c0,0.7,0,1.2,0,1.7H195l-0.1-0.9h0c-0.4,0.6-1.1,1-1.8,1c-1,0-2-0.6-2-2.5V2.7h1.4
			v3.1c0,0.9,0.3,1.6,1.1,1.6c0.5,0,0.9-0.3,1.1-0.8c0.1-0.1,0.1-0.3,0.1-0.4V2.7h1.4L196.2,6.7z"/>
		<path id="패스_62" class="st1" d="M197.7,4.6c0-0.8,0-1.3,0-1.8h1.3l0,1.1h0c0.2-0.7,0.8-1.2,1.6-1.2c0.1,0,0.2,0,0.3,0V4
			c-0.1,0-0.3,0-0.4,0c-0.6,0-1.2,0.5-1.3,1.1c0,0.1,0,0.3,0,0.4v2.9h-1.4L197.7,4.6z"/>
		<path id="패스_63" class="st1" d="M202.6,6c0,0.9,0.8,1.5,1.6,1.5c0,0,0.1,0,0.1,0c0.5,0,1.1-0.1,1.6-0.3l0.2,1
			c-0.6,0.2-1.3,0.4-2,0.4c-1.5,0.1-2.8-1-2.9-2.4c0-0.1,0-0.3,0-0.4c-0.1-1.6,1-2.9,2.6-3.1c0.1,0,0.1,0,0.2,0
			c1.4,0,2.5,1.1,2.5,2.5c0,0.1,0,0.2,0,0.3c0,0.2,0,0.4,0,0.6L202.6,6z M205.1,5c0.1-0.7-0.4-1.3-1-1.4c0,0-0.1,0-0.1,0
			c-0.7,0-1.3,0.7-1.3,1.4H205.1z"/>
	</g>
</g>
<g>
	<g>
		<path class="st2" d="M35.7,0C22,0,10.1,7.7,4.1,19.1c19.2-3.6,39.1-5.6,59.3-5.8C56.9,5.2,46.9,0,35.7,0z"/>
		<path class="st3" d="M63.4,13.2c-20.2,0.2-40.1,2.2-59.3,5.8C1.5,24,0,29.7,0,35.7c0,3.7,0.6,7.2,1.6,10.6
			c21.8-8.9,44.9-15.2,68.9-18.6C69.2,22.3,66.8,17.4,63.4,13.2z"/>
		<path class="st4" d="M35.7,71.3c19.7,0,35.7-16,35.7-35.7c0-2.7-0.3-5.4-0.9-8c-24,3.4-47.1,9.7-68.9,18.6
			C6.1,60.8,19.7,71.3,35.7,71.3z"/>
	</g>
	<g>
		<rect x="32.8" y="7.5" class="st5" width="19.5" height="3.8"/>
		<path class="st5" d="M58.2,58.9c0-9.5-0.9-16.2-3.6-24.5c-1.4-4.2-2.2-8-2.7-13c-0.7-6.7-0.5-8.1-0.5-9.1H33.8
			c0,1,0.2,2.4-0.5,9.1c-0.5,5-1.4,8.7-2.7,13c-2.7,8.2-3.6,15-3.6,24.5h-2.4v3.2h35.1v-3.2H58.2z"/>
		<rect x="42.1" y="27.8" class="st6" width="6.4" height="6.4"/>
	</g>
	<g>
		<polygon class="st7" points="42.9,56.2 32.2,53.3 31.3,42.3 21.7,35.2 16.1,24 4.3,19.5 4.6,18.9 16.6,23.5 22.2,34.8 31.8,41.9 
			32.7,52.8 42.6,55.5 48.3,47 48.9,47.3 		"/>
		<path class="st7" d="M22,36.6c-0.9,0-1.7-0.7-1.7-1.6c0-0.9,0.7-1.7,1.6-1.7c0.9,0,1.7,0.7,1.7,1.6C23.6,35.8,22.9,36.6,22,36.6z"
			/>
		<path class="st7" d="M31.6,43.8c-0.9,0-1.7-0.7-1.7-1.6c0-0.9,0.7-1.7,1.6-1.7c0.9,0,1.7,0.7,1.7,1.6C33.2,43,32.5,43.8,31.6,43.8
			z"/>
		<path class="st7" d="M32.5,54.7c-0.9,0-1.7-0.7-1.7-1.6c0-0.9,0.7-1.7,1.6-1.7c0.9,0,1.7,0.7,1.7,1.6
			C34.1,53.9,33.4,54.7,32.5,54.7z"/>
		<path class="st7" d="M42.8,57.5c-0.9,0-1.7-0.7-1.7-1.6c0-0.9,0.7-1.7,1.6-1.7c0.9,0,1.7,0.7,1.7,1.6
			C44.5,56.7,43.7,57.4,42.8,57.5z"/>
		<path class="st7" d="M48.6,48.8c-0.9,0-1.7-0.7-1.7-1.6c0-0.9,0.7-1.7,1.6-1.7c0.9,0,1.7,0.7,1.7,1.6C50.3,48,49.6,48.8,48.6,48.8
			z"/>
		<path class="st7" d="M16.4,26.2c-1.4,0-2.5-1-2.5-2.4c0-1.4,1-2.5,2.4-2.5c1.4,0,2.5,1,2.5,2.4C18.8,25,17.8,26.2,16.4,26.2z"/>
		<path class="st7" d="M4.5,20.9c-0.9,0-1.7-0.7-1.7-1.6c0-0.9,0.7-1.7,1.6-1.7c0.9,0,1.7,0.7,1.7,1.6C6.1,20.1,5.4,20.9,4.5,20.9z"
			/>
	</g>
</g>
</svg>
