<svg xmlns="http://www.w3.org/2000/svg" width="81.751" height="52.872" viewBox="0 0 81.751 52.872">
  <g id="그룹_7737" data-name="그룹 7737" transform="translate(-834.375 -798.021)">
    <path id="패스_2469" data-name="패스 2469" d="M853.279,814.054a8.857,8.857,0,0,0-6.364-15.033h0a8.873,8.873,0,0,0-8.877,8.872v0a8.847,8.847,0,0,0,2.508,6.157,11.528,11.528,0,0,0-5.167,9.613v8.525h23.084v-8.525A11.52,11.52,0,0,0,853.279,814.054Z" fill="#fff" stroke="#232323" stroke-linejoin="round" stroke-width="2"/>
    <path id="패스_2469-2" data-name="패스 2469" d="M881.612,814.054a8.857,8.857,0,0,0-6.364-15.033h0a8.874,8.874,0,0,0-8.877,8.872v0a8.851,8.851,0,0,0,2.508,6.157,11.525,11.525,0,0,0-5.166,9.613v8.525h23.084v-8.525A11.521,11.521,0,0,0,881.612,814.054Z" fill="#a34e00" stroke="#232323" stroke-linejoin="round" stroke-width="2"/>
    <path id="패스_2469-3" data-name="패스 2469" d="M909.946,814.054a8.857,8.857,0,0,0-6.364-15.033h0a8.873,8.873,0,0,0-8.876,8.872v0a8.842,8.842,0,0,0,2.508,6.157,11.526,11.526,0,0,0-5.167,9.613v8.525h23.084v-8.525A11.52,11.52,0,0,0,909.946,814.054Z" fill="#ce983c" stroke="#232323" stroke-linejoin="round" stroke-width="2"/>
    <path id="패스_2986" data-name="패스 2986" d="M840.444,839l-5.069,5.611,5.069,5.611" fill="#fff" stroke="#232323" stroke-linejoin="round" stroke-width="2"/>
    <path id="패스_2987" data-name="패스 2987" d="M910.057,850.222l5.069-5.611L910.057,839" fill="#fff" stroke="#232323" stroke-linejoin="round" stroke-width="2"/>
    <line id="선_1396" data-name="선 1396" x2="79.751" transform="translate(835.375 844.611)" fill="#fff" stroke="#232323" stroke-linejoin="round" stroke-width="2"/>
  </g>
</svg>
