<svg xmlns="http://www.w3.org/2000/svg" width="81.751" height="96.959" viewBox="0 0 81.751 96.959">
  <g id="그룹_7746" data-name="그룹 7746" transform="translate(-919.125 -1332.01)">
    <path id="패스_2469" data-name="패스 2469" d="M853.279,814.054a8.857,8.857,0,0,0-6.364-15.033h0a8.873,8.873,0,0,0-8.877,8.872v0a8.847,8.847,0,0,0,2.508,6.157,11.528,11.528,0,0,0-5.167,9.613v8.525h23.084v-8.525A11.52,11.52,0,0,0,853.279,814.054Z" transform="translate(84.75 595.777)" fill="#ce983c" stroke="#232323" stroke-linejoin="round" stroke-width="2"/>
    <path id="패스_2469-2" data-name="패스 2469" d="M881.612,814.054a8.857,8.857,0,0,0-6.364-15.033h0a8.874,8.874,0,0,0-8.877,8.872v0a8.851,8.851,0,0,0,2.508,6.157,11.525,11.525,0,0,0-5.166,9.613v8.525h23.084v-8.525A11.521,11.521,0,0,0,881.612,814.054Z" transform="translate(84.75 595.777)" fill="#fff" stroke="#232323" stroke-linejoin="round" stroke-width="2"/>
    <path id="패스_2469-3" data-name="패스 2469" d="M909.946,814.054a8.857,8.857,0,0,0-6.364-15.033h0a8.873,8.873,0,0,0-8.876,8.872v0a8.842,8.842,0,0,0,2.508,6.157,11.526,11.526,0,0,0-5.167,9.613v8.525h23.084v-8.525A11.52,11.52,0,0,0,909.946,814.054Z" transform="translate(84.75 595.777)" fill="#a34e00" stroke="#232323" stroke-linejoin="round" stroke-width="2"/>
    <g id="그룹_7741" data-name="그룹 7741" transform="translate(-565.766 1429.42)">
      <path id="패스_2996" data-name="패스 2996" d="M1541.982-89.154c-.037,0-.073.005-.111.006a9.028,9.028,0,0,0,.111-1.345,9.019,9.019,0,0,0-9.019-9.019,8.984,8.984,0,0,0-6.249,2.525,8.991,8.991,0,0,0-6.38-2.645,8.991,8.991,0,0,0-6.38,2.645,8.983,8.983,0,0,0-6.249-2.525,9.019,9.019,0,0,0-9.019,9.019,9.094,9.094,0,0,0,.111,1.345c-.037,0-.073-.006-.111-.006a9.019,9.019,0,0,0-9.019,9.019,9.019,9.019,0,0,0,9.019,9.019c.026,0,.05,0,.076,0a9.079,9.079,0,0,0-.076,1.115,9.019,9.019,0,0,0,9.019,9.019,8.983,8.983,0,0,0,6.249-2.525,8.991,8.991,0,0,0,6.38,2.645,8.991,8.991,0,0,0,6.38-2.645,8.984,8.984,0,0,0,6.249,2.525A9.019,9.019,0,0,0,1541.982-70a9.031,9.031,0,0,0-.076-1.115c.026,0,.05,0,.076,0A9.019,9.019,0,0,0,1551-80.135,9.019,9.019,0,0,0,1541.982-89.154Z" transform="translate(5.099 3.223)" fill="#fff" stroke="#232323" stroke-linecap="round" stroke-linejoin="round" stroke-width="2"/>
      <circle id="타원_236" data-name="타원 236" cx="12.053" cy="12.053" r="12.053" transform="translate(1513.38 -89.079)" fill="#ce983c" stroke="#232323" stroke-linecap="round" stroke-linejoin="round" stroke-width="2"/>
      <g id="그룹_7740" data-name="그룹 7740" transform="translate(1518.855 -79.885)">
        <path id="패스_2997" data-name="패스 2997" d="M1560-63.452a2.7,2.7,0,0,0-2.394-1.769,2.436,2.436,0,0,0-2.255,1.769" transform="translate(-1546.849 65.221)" fill="none" stroke="#232323" stroke-linecap="round" stroke-linejoin="round" stroke-width="2"/>
        <path id="패스_2998" data-name="패스 2998" d="M1540.532-63.452a2.7,2.7,0,0,1,2.394-1.769,2.436,2.436,0,0,1,2.255,1.769" transform="translate(-1540.532 65.221)" fill="none" stroke="#232323" stroke-linecap="round" stroke-linejoin="round" stroke-width="2"/>
      </g>
      <path id="패스_2999" data-name="패스 2999" d="M1553.494-56.721s-1.8,4.447-6.577,4.447-6.837-4.447-6.837-4.447" transform="translate(-21.484 -18.287)" fill="none" stroke="#232323" stroke-linecap="round" stroke-linejoin="round" stroke-width="2"/>
    </g>
    <g id="그룹_7743" data-name="그룹 7743" transform="translate(-1 40)">
      <g id="타원_237" data-name="타원 237" transform="translate(980 1336)" fill="#fff" stroke="#232323" stroke-width="2">
        <circle cx="5" cy="5" r="5" stroke="none"/>
        <circle cx="5" cy="5" r="4" fill="none"/>
      </g>
      <g id="타원_238" data-name="타원 238" transform="translate(956 1337)" fill="#fff" stroke="#232323" stroke-width="2">
        <circle cx="5" cy="5" r="5" stroke="none"/>
        <circle cx="5" cy="5" r="4" fill="none"/>
      </g>
      <g id="타원_239" data-name="타원 239" transform="translate(932 1336)" fill="#fff" stroke="#232323" stroke-width="2">
        <circle cx="5" cy="5" r="5" stroke="none"/>
        <circle cx="5" cy="5" r="4" fill="none"/>
      </g>
    </g>
  </g>
</svg>
