<svg xmlns="http://www.w3.org/2000/svg" xmlns:xlink="http://www.w3.org/1999/xlink" width="233.312" height="166.27" viewBox="0 0 233.312 166.27">
  <defs>
    <linearGradient id="linear-gradient" x1="0.5" x2="0.5" y2="1" gradientUnits="objectBoundingBox">
      <stop offset="0" stop-color="#ce9438"/>
      <stop offset="1" stop-color="#a34e00"/>
    </linearGradient>
  </defs>
  <g id="그룹_7751" data-name="그룹 7751" transform="translate(-1132.688 -800)">
    <circle id="타원_244" data-name="타원 244" cx="80" cy="80" r="80" transform="translate(1165 800)" fill="url(#linear-gradient)"/>
    <g id="그룹_7725" data-name="그룹 7725" transform="translate(38.333 428.541)">
      <line id="선_1383" data-name="선 1383" y2="12.25" transform="translate(1303.667 461.333)" fill="#fff" stroke="#4e1d0e" stroke-linecap="round" stroke-linejoin="round" stroke-width="4"/>
      <line id="선_1384" data-name="선 1384" x2="12.25" transform="translate(1297.542 467.458)" fill="#fff" stroke="#4e1d0e" stroke-linecap="round" stroke-linejoin="round" stroke-width="4"/>
    </g>
    <circle id="타원_148" data-name="타원 148" cx="3.5" cy="3.5" r="3.5" transform="translate(1359 910.875)" fill="#4e1d0e"/>
    <circle id="타원_141" data-name="타원 141" cx="80" cy="80" r="80" transform="translate(1165 800)" fill="url(#linear-gradient)"/>
    <g id="그룹_7719" data-name="그룹 7719" transform="translate(-157.09 485.668)">
      <path id="패스_2981" data-name="패스 2981" d="M1291.778,362.823s19.086-27.636,44.655-27.636,44.656,27.636,44.656,27.636-14.1,21.761-44.656,21.761S1291.778,362.823,1291.778,362.823Z" transform="translate(0)" fill="#fff" stroke="#4e1d0e" stroke-linecap="round" stroke-linejoin="round" stroke-width="4"/>
      <circle id="타원_142" data-name="타원 142" cx="15.924" cy="15.924" r="15.924" transform="translate(1320.51 343.962)" fill="#ce983c" stroke="#4e1d0e" stroke-linecap="round" stroke-linejoin="round" stroke-width="4"/>
      <circle id="타원_143" data-name="타원 143" cx="5.394" cy="5.394" r="5.394" transform="translate(1331.04 354.492)" fill="#4e1d0e" stroke="#4e1d0e" stroke-linecap="round" stroke-linejoin="round" stroke-width="4"/>
    </g>
    <g id="그룹_7720" data-name="그룹 7720" transform="translate(-73.542 442.541)">
      <line id="선_1383-2" data-name="선 1383" y2="12.25" transform="translate(1303.667 461.333)" fill="#fff" stroke="#4e1d0e" stroke-linecap="round" stroke-linejoin="round" stroke-width="4"/>
      <line id="선_1384-2" data-name="선 1384" x2="12.25" transform="translate(1297.542 467.458)" fill="#fff" stroke="#4e1d0e" stroke-linecap="round" stroke-linejoin="round" stroke-width="4"/>
    </g>
    <g id="그룹_7721" data-name="그룹 7721" transform="translate(-95.792 454.416)">
      <line id="선_1383-3" data-name="선 1383" y2="12.25" transform="translate(1303.667 461.333)" fill="#fff" stroke="#fff" stroke-linecap="round" stroke-linejoin="round" stroke-width="4"/>
      <line id="선_1384-3" data-name="선 1384" x2="12.25" transform="translate(1297.542 467.458)" fill="#fff" stroke="#fff" stroke-linecap="round" stroke-linejoin="round" stroke-width="4"/>
    </g>
    <g id="그룹_7723" data-name="그룹 7723" transform="translate(-183.382 437.266)">
      <line id="선_1389" data-name="선 1389" y2="90.802" transform="translate(1482.538 437.154)" fill="#fff" stroke="#4e1d0e" stroke-linejoin="round" stroke-width="4"/>
      <line id="선_1390" data-name="선 1390" x1="37.499" y2="91.089" transform="translate(1445.039 437.154)" fill="#fff" stroke="#4e1d0e" stroke-linejoin="round" stroke-width="4"/>
      <line id="선_1391" data-name="선 1391" x2="37.499" y2="91.089" transform="translate(1482.538 437.154)" fill="#fff" stroke="#4e1d0e" stroke-linejoin="round" stroke-width="4"/>
      <path id="패스_2984" data-name="패스 2984" d="M1441.754,435.541l-18,1.612,6.792-43.294,16.638,7.046Z" fill="#fff" stroke="#4e1d0e" stroke-linejoin="round" stroke-width="4"/>
      <path id="패스_2985" data-name="패스 2985" d="M1490.164,434.558l-53.623-6.934,4.076-25.976,53.169,9.82Z" transform="translate(5.891 3.588)" fill="#fff" stroke="#4e1d0e" stroke-linejoin="round" stroke-width="4"/>
      <rect id="사각형_2038" data-name="사각형 2038" width="20.938" height="8.278" transform="translate(1498.508 422.512) rotate(8.916)" fill="#fff" stroke="#4e1d0e" stroke-linejoin="round" stroke-width="4"/>
      <rect id="사각형_2039" data-name="사각형 2039" width="7.791" height="12.173" transform="translate(1519.495 423.833) rotate(8.916)" fill="#fff" stroke="#4e1d0e" stroke-linejoin="round" stroke-width="4"/>
      <circle id="타원_145" data-name="타원 145" cx="8.525" cy="8.525" r="8.525" transform="translate(1474.013 428.629)" fill="#fff" stroke="#4e1d0e" stroke-linejoin="round" stroke-width="4"/>
      <line id="선_1392" data-name="선 1392" x2="31.08" transform="translate(1466.998 474.902)" fill="#fff" stroke="#4e1d0e" stroke-linejoin="round" stroke-width="4"/>
    </g>
    <circle id="타원_146" data-name="타원 146" cx="3.5" cy="3.5" r="3.5" transform="translate(1300 800)" fill="#4e1d0e"/>
    <circle id="타원_147" data-name="타원 147" cx="3.5" cy="3.5" r="3.5" transform="translate(1219 934)" fill="#fff"/>
    <g id="그룹_7722" data-name="그룹 7722" transform="translate(-19.542 345.207)">
      <line id="선_1383-4" data-name="선 1383" y2="12.25" transform="translate(1303.667 461.333)" fill="#fff" stroke="#4e1d0e" stroke-linecap="round" stroke-linejoin="round" stroke-width="4"/>
      <line id="선_1384-4" data-name="선 1384" x2="12.25" transform="translate(1297.542 467.458)" fill="#fff" stroke="#4e1d0e" stroke-linecap="round" stroke-linejoin="round" stroke-width="4"/>
    </g>
  </g>
</svg>
