<svg xmlns="http://www.w3.org/2000/svg" width="243.664" height="74.74" viewBox="0 0 243.664 74.74">
  <g id="그룹_5700" data-name="그룹 5700" transform="translate(-821.336 -2623.76)">
    <g id="그룹_4531" data-name="그룹 4531" transform="translate(946.267 2651.703)" opacity="0.3">
      <g id="그룹_4328" data-name="그룹 4328" transform="translate(0 0)">
        <path id="패스_96" data-name="패스 96" d="M182.96,387.931l-.079,5.223h92.008v-5.223Z" transform="translate(-161.001 -346.857)" fill="#fff"/>
        <g id="그룹_43" data-name="그룹 43" transform="translate(5.732)">
          <path id="패스_97" data-name="패스 97" d="M159.082,328.265v2.168l0,0c47.057-2.918,84.207,18.24,84.207,18.24s13.341-5.758,28.5-3.51c.094-.189.191-.378.292-.564C216.194,323.559,168.059,327.316,159.082,328.265Z" transform="translate(-159.082 -327.395)" fill="#fff"/>
          <path id="패스_98" data-name="패스 98" d="M175.391,361.675l4.885.108-2.059-17.748-5.621-.063S169.848,353.8,175.391,361.675Z" transform="translate(-163.208 -332.724)" fill="#fff"/>
          <path id="패스_99" data-name="패스 99" d="M173.024,334.906l-.074,3.05s15.393-2.021,53.131,7.964l.413-.413C219.438,342.517,199.8,335.339,173.024,334.906Z" transform="translate(-163.54 -329.81)" fill="#fff"/>
          <path id="패스_100" data-name="패스 100" d="M285.322,367.147l.664,10.428H238.857l-.318-14.77,45.426,2.874A1.46,1.46,0,0,1,285.322,367.147Z" transform="translate(-184.627 -338.779)" fill="#fff"/>
        </g>
        <path id="패스_101" data-name="패스 101" d="M173.734,344.234l2.044,18.784c0,.617-.443.684-.443.684l-6.45-.118.016.041h-.247v3.01H163.16v1.243h-3.6v.787h-3.211v1.025h-2.925V371.4l-2.789.182.054,4.891,19.612-.014.031-4.743,37.809-.016-.256-16.863s-.053-.462.488-.462l21.4,1.58L230,355.5C222.482,353.078,193.579,344.2,173.734,344.234Z" transform="translate(-150.634 -332.809)" fill="#fff"/>
      </g>
    </g>
    <g id="그룹_5699" data-name="그룹 5699">
      <g id="그룹_4532" data-name="그룹 4532" transform="translate(869 2626.76)" opacity="0.3">
        <rect id="사각형_10" data-name="사각형 10" width="25.442" height="4.948" transform="translate(10.71)" fill="#fff"/>
        <path id="제외_2" data-name="제외 2" d="M45.754,64.842H0V60.727H3.11A115.267,115.267,0,0,1,4.141,44.138,91.431,91.431,0,0,1,7.773,28.764a80.891,80.891,0,0,0,2.188-8.1,85.055,85.055,0,0,0,1.368-8.817,79.771,79.771,0,0,0,.7-11.266c-.005-.219-.01-.407-.01-.582H34.873c0,.175,0,.362-.01.58a80.025,80.025,0,0,0,.7,11.268,85.107,85.107,0,0,0,1.368,8.817,80.653,80.653,0,0,0,2.188,8.1,91.448,91.448,0,0,1,3.63,15.374,115.3,115.3,0,0,1,1.031,16.589h1.975v4.115ZM22.787,20.13v8.409H31.2V20.13Z" transform="translate(0 6.398)" fill="#fff" stroke="rgba(0,0,0,0)" stroke-miterlimit="10" stroke-width="1"/>
      </g>
      <g id="그룹_4543" data-name="그룹 4543" transform="translate(821.336 2623.76)" opacity="0.3">
        <path id="패스_5" data-name="패스 5" d="M236.028,375.279l-16.544-4.409-1.41-16.989-14.8-11.068-8.546-17.171-18.158-6.866.334-.883,18.5,7,.083.165,8.578,17.236,14.907,11.087,1.39,16.751,15.25,4.064,8.785-13.1.784.526Z" transform="translate(-174.167 -315.765)" fill="#fff"/>
        <path id="패스_6" data-name="패스 6" d="M198.884,340.763a2.57,2.57,0,1,1,2.5-2.645A2.572,2.572,0,0,1,198.884,340.763Z" transform="translate(-169.275 -311.355)" fill="#fff"/>
        <path id="패스_7" data-name="패스 7" d="M210.757,349.595a2.573,2.573,0,1,1,2.5-2.647A2.575,2.575,0,0,1,210.757,349.595Z" transform="translate(-166.323 -309.159)" fill="#fff"/>
        <path id="패스_8" data-name="패스 8" d="M211.867,363.1a2.572,2.572,0,1,1,2.5-2.649A2.575,2.575,0,0,1,211.867,363.1Z" transform="translate(-166.046 -305.8)" fill="#fff"/>
        <path id="패스_9" data-name="패스 9" d="M224.608,366.495a2.572,2.572,0,1,1,2.5-2.646A2.572,2.572,0,0,1,224.608,366.495Z" transform="translate(-162.877 -304.955)" fill="#fff"/>
        <path id="패스_10" data-name="패스 10" d="M231.8,355.826a2.572,2.572,0,1,1,2.5-2.648A2.573,2.573,0,0,1,231.8,355.826Z" transform="translate(-161.089 -307.609)" fill="#fff"/>
        <path id="패스_11" data-name="패스 11" d="M192.247,328.375a3.81,3.81,0,1,1,3.7-3.921A3.809,3.809,0,0,1,192.247,328.375Z" transform="translate(-171.244 -315.053)" fill="#fff"/>
        <path id="패스_12" data-name="패스 12" d="M177.295,321.33a2.571,2.571,0,1,1,2.495-2.647A2.576,2.576,0,0,1,177.295,321.33Z" transform="translate(-174.646 -316.189)" fill="#fff"/>
      </g>
    </g>
  </g>
</svg>
