<?xml version="1.0" encoding="utf-8"?>
<!-- Generator: Adobe Illustrator 25.4.1, SVG Export Plug-In . SVG Version: 6.00 Build 0)  -->
<svg version="1.1" id="레이어_1" xmlns="http://www.w3.org/2000/svg" xmlns:xlink="http://www.w3.org/1999/xlink" x="0px"
	 y="0px" viewBox="0 0 459.6 50.9" style="enable-background:new 0 0 459.6 50.9;" xml:space="preserve">
<style type="text/css">
	.st0{fill:#CE983C;}
	.st1{fill:#C96100;}
	.st2{fill:#A34E00;}
	.st3{fill:#561908;}
	.st4{fill:#210000;}
	.st5{fill:#FFFFFF;}
	.st6{fill:#302D2C;}
	.st7{fill:#767676;}
	.st8{fill:#5D180E;}
	.st9{fill:#E44126;}
	.st10{fill:#A1460F;}
</style>
<g id="그룹_7765" transform="translate(13299.001 21961)">
	<g id="그룹_33" transform="translate(-13470.223 -22255.531)">
		<g id="그룹_27" transform="translate(171.222 294.531)">
			<g id="그룹_24">
				<path id="패스_1" class="st0" d="M25.5,0C16,0,7.3,5.2,2.9,13.6C16.9,11,31,9.6,45.2,9.4C40.4,3.5,33.1,0,25.5,0z"/>
				<path id="패스_2" class="st1" d="M45.2,9.4C31,9.6,16.9,11,2.9,13.6c-3.1,6-3.8,13-1.8,19.4c15.8-6.4,32.3-10.9,49.1-13.2
					C49.4,16,47.7,12.4,45.2,9.4z"/>
				<path id="패스_3" class="st2" d="M25.5,50.9c14.1,0,25.5-11.4,25.5-25.5c0-1.9-0.2-3.8-0.6-5.6C33.4,22.1,16.9,26.6,1.1,33
					C4.5,43.7,14.3,50.9,25.5,50.9z"/>
			</g>
			<g id="그룹_25" transform="translate(17.566 5.352)">
				<rect id="사각형_10" x="5.9" y="0" class="st3" width="13.9" height="2.7"/>
				<path id="패스_4" class="st3" d="M23.9,36.7c0.1-5.9-0.7-11.8-2.5-17.5c-1-3-1.6-6.1-1.9-9.2c-0.3-2.1-0.4-4.3-0.4-6.5H6.6
					c0,2.2-0.1,4.3-0.4,6.5c-0.3,3.1-1,6.2-1.9,9.2c-1.8,5.6-2.7,11.5-2.5,17.5H0v2.2h25v-2.2H23.9z"/>
				<rect id="사각형_11" x="12.5" y="14.5" class="st4" width="4.6" height="4.6"/>
			</g>
			<g id="그룹_26" transform="translate(1.979 12.515)">
				<path id="패스_5" class="st5" d="M28.6,27.5l-7.7-2l-0.7-7.9l-6.8-5.1l-4-7.9L1.1,1.4L1.3,1l8.6,3.2l0,0.1l4,8l6.9,5.1
					l0.6,7.8l7.1,1.9l4.1-6.1l0.4,0.2L28.6,27.5z"/>
				<path id="패스_6" class="st5" d="M13.7,13.6c-0.7,0-1.2-0.5-1.2-1.2c0-0.7,0.5-1.2,1.2-1.2c0.7,0,1.2,0.5,1.2,1.2
					C14.9,13,14.4,13.6,13.7,13.6z"/>
				<path id="패스_7" class="st5" d="M20.6,18.7c-0.7,0-1.2-0.5-1.2-1.2s0.5-1.2,1.2-1.2c0.7,0,1.2,0.5,1.2,1.2c0,0,0,0,0,0
					C21.7,18.1,21.2,18.7,20.6,18.7z"/>
				<path id="패스_8" class="st5" d="M21.2,26.5c-0.7,0-1.2-0.5-1.2-1.2s0.5-1.2,1.2-1.2c0.7,0,1.2,0.5,1.2,1.2
					C22.4,25.9,21.9,26.5,21.2,26.5z"/>
				<path id="패스_9" class="st5" d="M28.6,28.5c-0.7,0-1.2-0.5-1.2-1.2s0.5-1.2,1.2-1.2c0.7,0,1.2,0.5,1.2,1.2l0,0
					C29.7,27.9,29.2,28.5,28.6,28.5z"/>
				<path id="패스_10" class="st5" d="M32.7,22.3c-0.7,0-1.2-0.5-1.2-1.2c0-0.7,0.5-1.2,1.2-1.2c0.7,0,1.2,0.5,1.2,1.2
					C33.9,21.7,33.4,22.3,32.7,22.3C32.7,22.3,32.7,22.3,32.7,22.3z"/>
				<path id="패스_11" class="st5" d="M9.7,6.2c-1,0-1.8-0.7-1.8-1.7c0-1,0.7-1.8,1.7-1.8c1,0,1.8,0.7,1.8,1.7
					C11.5,5.3,10.7,6.1,9.7,6.2C9.7,6.2,9.7,6.2,9.7,6.2z"/>
				<path id="패스_12" class="st5" d="M1.2,2.4C0.6,2.4,0,1.9,0,1.2C0,0.6,0.5,0,1.2,0c0.7,0,1.2,0.5,1.2,1.2
					C2.4,1.8,1.9,2.4,1.2,2.4z"/>
			</g>
		</g>
		<g id="그룹_32" transform="translate(229.59 307.758)">
			<g id="그룹_30" transform="translate(0)">
				<g id="그룹_28" transform="translate(27.906)">
					<path id="패스_13" class="st6" d="M45.4,8.2h12.1c0.5,0,0.9-0.5,0.9-1V1H44.6v6.3C44.6,7.8,45,8.2,45.4,8.2z M55.4,3.2V6
						h-7.8V3.2L55.4,3.2z"/>
					<path id="패스_14" class="st6" d="M15.5,11.9h1.8c0.5,0,0.9-0.5,0.9-1V0.6h-3v2.3h-4.6c0-0.1,0-0.2,0-0.4l0,0V2.3
						c0.1-0.6-0.3-1.1-0.9-1.1c-0.1,0-0.1,0-0.2,0H1v2.2h6.6C7.3,6.6,2.4,9.2,0,9.8l0.6,1.8c2.8-0.6,7.9-2.3,9.5-6.5h5V7H9.5v2.2
						h5.6v2.4c-1.2-0.5-2.4-0.8-3.7-0.7c-3.8,0-6.8,2.1-6.8,4.9s3,4.9,6.8,4.9s6.8-2.1,6.8-4.9C18.2,14.1,17.1,12.5,15.5,11.9z
						 M11.4,18.5c-2.6,0-3.9-1.5-3.9-2.7s1.3-2.7,3.9-2.7s3.9,1.5,3.9,2.7S14.1,18.5,11.4,18.5L11.4,18.5z"/>
					<path id="패스_15" class="st6" d="M21.1,8.3l0.9,1.8c3-0.4,5.9-1.5,8.5-3.1c2.8,0.3,5.4,1.5,7.5,3.3l1.7-2.4
						c-2.3-1.4-4.9-2.2-7.6-2.4c0.8-0.9,1.2-2.1,1.2-3.3l0,0V2c0-1-1.1-1-1.1-1H22.1v2H30C29.6,5.8,23.8,7.8,21.1,8.3z"/>
					<path id="패스_16" class="st6" d="M83.4,9.7V7.5h-3.5V0.6h-3v13.2h-6.2v-1.7c2.1-0.4,3.6-2.2,3.7-4.2c0-1.4-0.7-2.6-1.9-3.4
						h2.8V2.2h-4.6V0.4C70.6,0,69.7,0,69.7,0h-2.2v2.2h-4.8v2.2h3c-1.1,0.8-1.8,2-1.9,3.4c0.1,2.1,1.6,3.8,3.7,4.2v1.7h-5.1v2.2
						h14.4v4.1H79c0.5,0,0.9-0.5,0.9-1V9.7L83.4,9.7z M66.7,7.7c-0.3-1.3,0.6-2.7,1.9-2.9c1.3-0.3,2.7,0.6,2.9,1.9
						C71.8,8,71,9.4,69.6,9.6c-0.2,0-0.3,0.1-0.5,0.1c-1.2,0.2-2.3-0.7-2.4-1.9C66.7,7.8,66.7,7.7,66.7,7.7L66.7,7.7z"/>
					<path id="패스_17" class="st6" d="M41.8,12.1h8.7V16h2.2c0,0,0.9-0.1,0.9-0.7v-3.2h7.8V9.9H41.8V12.1z"/>
					<path id="패스_18" class="st6" d="M20.5,13.9h8.4v6.2H31c0,0,0.9-0.1,0.9-0.7v-5.5H40v-2.2H20.5V13.9z"/>
					<path id="패스_19" class="st6" d="M47.6,13.7h-3V19c0,0.7,0.9,0.8,0.9,0.8h13.5v-2.2H47.6V13.7z"/>
					<path id="패스_20" class="st6" d="M124.3,6.6h-3.4V0.7h-3v13.9h2.2c0.5,0,0.9-0.5,0.9-1V8.8h3.4L124.3,6.6z"/>
					<path id="패스_21" class="st6" d="M114.9,11.2V8.9l-7.7,0.3V4h7.2V1.8h-10.3v8.7c0,0.5,0.4,0.9,0.9,1h2.2L114.9,11.2z"/>
					<path id="패스_22" class="st6" d="M109.8,13.6h-3V19c0,0.7,0.9,0.8,0.9,0.8h13.2v-2.2h-11V13.6z"/>
					<path id="패스_23" class="st6" d="M98.6,7.9h-1.5V0.6h-3v19.6h2.2c0.5,0,0.9-0.5,0.9-1v-9.1h1.5v10h2.2c0.5,0,0.9-0.5,0.9-1
						V0.6h-3L98.6,7.9z"/>
					<path id="패스_24" class="st6" d="M89.7,10.8c1.3-2.3,1.9-5,1.8-7.6l0,0c0-0.1,0-0.1,0-0.2l0,0V2.8c0.1-0.6-0.3-1.1-0.9-1.1
						c-0.1,0-0.1,0-0.2,0h-6.4v2.2h4.5c0,0,0,0,0,0h0.1C89,8.1,86.8,12,83,14l1,1.9c1.9-0.8,3.6-2.1,4.8-3.8c1.4,0.9,2.4,2.3,3,3.9
						l0.1,0l1.8-1.8c0.3-0.3,0-0.6,0-0.6C92.7,12.3,91.3,11.3,89.7,10.8z"/>
				</g>
				<g id="그룹_29" transform="translate(0 1.379)">
					<path id="패스_25" class="st6" d="M18.5,7.9h-3V0.4h-1.5V19h1.1c0,0,0.4-0.1,0.4-0.9V9.4h3V19h1.1c0,0,0.4-0.1,0.4-0.9V0.4
						h-1.5L18.5,7.9z"/>
					<path id="패스_26" class="st6" d="M23,0l-0.9,0.4c0,0.1,3.1,7.3,0,19.4L23,20C26.3,7.6,23.1,0.3,23,0z"/>
					<path id="패스_27" class="st6" d="M2.4,0.4L1.5,0c-0.1,0.3-3.3,7.6,0,20l0.9-0.2C-0.8,7.7,2.3,0.5,2.4,0.4z"/>
					<path id="패스_28" class="st6" d="M8.1,8.5C9,6.1,9.6,3.6,9.8,1.1H4.1v1.5h4C7.7,5.2,6.5,10.5,3,14l1.1,1
						c1.5-1.5,2.6-3.3,3.5-5.2c1.6,1.3,2.9,2.8,4,4.5l1.3-0.7C11.6,11.7,10,9.9,8.1,8.5z"/>
				</g>
			</g>
			<g id="그룹_31" transform="translate(1.25 23.904)">
				<path id="패스_29" class="st7" d="M4.8,5.8C4.2,6,3.6,6.1,3,6.1C2.2,6.1,1.4,5.9,0.8,5.3C0.3,4.8,0,4,0,3.3
					c0-1.6,1.2-2.9,2.8-2.9c0.1,0,0.2,0,0.3,0c0.5,0,1,0.1,1.5,0.3L4.4,1.4C4,1.3,3.6,1.2,3.1,1.2c-1-0.1-1.9,0.7-2,1.7
					c0,0.1,0,0.2,0,0.3c-0.1,1,0.6,1.9,1.7,2c0.1,0,0.2,0,0.3,0c0.3,0,0.5,0,0.8-0.1V3.7h-1V2.9h2L4.8,5.8z"/>
				<path id="패스_30" class="st7" d="M6.3,2l0.7,2.2c0.1,0.3,0.2,0.6,0.2,0.8h0c0.1-0.2,0.1-0.5,0.2-0.8L8.2,2h1.1l-1,2.8
					C8,5.7,7.5,6.6,6.8,7.3C6.5,7.6,6.2,7.8,5.8,7.9L5.5,7C6,6.9,6.5,6.5,6.7,6.1C6.7,6,6.8,6,6.8,5.9c0-0.1,0-0.1-0.1-0.2L5.2,2
					L6.3,2z"/>
				<path id="패스_31" class="st7" d="M10.4,4.3c0,0.6,0.5,1.1,1.1,1.1c0,0,0.1,0,0.1,0c0.4,0,0.8-0.1,1.1-0.2l0.2,0.7
					C12.5,6,12,6.1,11.5,6.1c-1.1,0.1-2-0.7-2.1-1.7c0-0.1,0-0.2,0-0.3C9.3,2.9,10.1,2,11.3,1.9c0.1,0,0.1,0,0.2,0
					c1,0,1.8,0.8,1.8,1.8c0,0.1,0,0.1,0,0.2c0,0.1,0,0.3,0,0.4L10.4,4.3z M12.2,3.6c0.1-0.5-0.3-0.9-0.7-1c0,0-0.1,0-0.1,0
					c-0.5,0-0.9,0.5-0.9,1H12.2z"/>
				<path id="패스_32" class="st7" d="M17.8,4C17.9,5.1,17,6,15.9,6.1c-0.1,0-0.2,0-0.2,0c-1.1,0-2-0.8-2-1.9c0-0.1,0-0.1,0-0.2
					c-0.1-1.1,0.7-2.1,1.8-2.2c0.1,0,0.2,0,0.3,0c1.1,0,2,0.8,2,1.9C17.8,3.8,17.8,3.9,17.8,4z M14.7,4c0,0.8,0.4,1.4,1,1.4
					c0.6,0,1-0.6,1-1.4c0-0.6-0.3-1.4-1-1.4C15,2.6,14.7,3.3,14.7,4L14.7,4z"/>
				<path id="패스_33" class="st7" d="M18.5,3.2c0-0.5,0-0.9,0-1.2h0.9l0,0.6h0c0.3-0.4,0.8-0.7,1.3-0.7c0.7,0,1.4,0.5,1.4,1.7V6
					h-1V3.7c0-0.6-0.2-1-0.8-1c-0.4,0-0.7,0.3-0.8,0.6c0,0.1,0,0.2,0,0.3V6h-1L18.5,3.2z"/>
				<path id="패스_34" class="st7" d="M26.9,2c0,0.3,0,0.6,0,1.2v2.3c0.2,1.1-0.5,2.1-1.5,2.3c-0.2,0-0.4,0.1-0.6,0
					c-0.5,0-1-0.1-1.4-0.3l0.2-0.8C23.9,6.9,24.3,7,24.7,7c0.6,0.1,1.1-0.4,1.2-1c0-0.1,0-0.2,0-0.3V5.4h0C25.6,5.8,25.2,6,24.7,6
					c-1,0-1.8-0.9-1.7-1.9c0,0,0-0.1,0-0.1c-0.1-1.1,0.7-2,1.7-2.1c0,0,0.1,0,0.1,0c0.5,0,0.9,0.2,1.2,0.6h0l0-0.5L26.9,2z
					 M25.9,3.6c0-0.1,0-0.2,0-0.3c-0.1-0.4-0.4-0.7-0.8-0.7c-0.6,0-1,0.5-1,1.3c0,0.7,0.4,1.3,1,1.3c0.4,0,0.7-0.3,0.8-0.6
					c0-0.1,0-0.2,0-0.4L25.9,3.6z"/>
				<path id="패스_35" class="st7" d="M27,7c0.3,0,0.6-0.1,0.8-0.3c0.2-0.2,0.3-0.5,0.3-1.4V2h1v3.6c0.1,0.6-0.1,1.3-0.5,1.7
					c-0.4,0.3-0.9,0.5-1.4,0.5L27,7z M29.1,0.8c0,0.3-0.2,0.5-0.5,0.6c0,0,0,0,0,0c-0.3,0-0.5-0.2-0.6-0.5c0,0,0,0,0,0
					c0-0.3,0.2-0.6,0.5-0.6c0,0,0,0,0.1,0C28.9,0.2,29.1,0.5,29.1,0.8C29.1,0.8,29.1,0.8,29.1,0.8L29.1,0.8z"/>
				<path id="패스_36" class="st7" d="M33.7,4.8c0,0.5,0,0.9,0,1.2h-0.9l0-0.6h0c-0.3,0.5-0.8,0.7-1.3,0.7c-0.7,0-1.4-0.4-1.4-1.8
					V2h1v2.2c0,0.7,0.2,1.1,0.8,1.1c0.3,0,0.7-0.2,0.8-0.6c0-0.1,0.1-0.2,0.1-0.3V2h1L33.7,4.8z"/>
				<path id="패스_37" class="st7" d="M36.4,0.4h3.2v0.8h-2.2v1.6h2.1v0.8h-2.1V6h-1L36.4,0.4z"/>
				<path id="패스_38" class="st7" d="M44.2,4c0.1,1.1-0.8,2.1-1.9,2.2c-0.1,0-0.2,0-0.2,0c-1.1,0-2-0.8-2-1.9c0-0.1,0-0.1,0-0.2
					c-0.1-1.1,0.7-2.1,1.9-2.2c0.1,0,0.2,0,0.2,0c1.1,0,2,0.8,2,1.9C44.2,3.8,44.2,3.9,44.2,4z M41.1,4c0,0.8,0.4,1.4,1,1.4
					c0.6,0,1-0.6,1-1.4c0-0.6-0.3-1.4-1-1.4C41.4,2.6,41.1,3.3,41.1,4L41.1,4z"/>
				<path id="패스_39" class="st7" d="M48.6,4.8c0,0.5,0,0.9,0,1.2h-0.9l0-0.6h0c-0.3,0.5-0.8,0.7-1.3,0.7c-0.7,0-1.4-0.4-1.4-1.8
					V2h1v2.2c0,0.7,0.2,1.1,0.8,1.1c0.3,0,0.7-0.2,0.8-0.6c0-0.1,0.1-0.2,0.1-0.3V2h1L48.6,4.8z"/>
				<path id="패스_40" class="st7" d="M49.6,3.2c0-0.5,0-0.9,0-1.2h0.9l0,0.6h0c0.3-0.4,0.8-0.7,1.3-0.7c0.7,0,1.4,0.5,1.4,1.7V6
					h-1V3.7c0-0.6-0.2-1-0.8-1c-0.4,0-0.7,0.3-0.8,0.6c0,0.1,0,0.2,0,0.3V6h-1L49.6,3.2z"/>
				<path id="패스_41" class="st7" d="M58.1,0.1v4.8c0,0.4,0,0.9,0,1.1h-0.9l0-0.6h0c-0.3,0.5-0.8,0.8-1.3,0.7
					c-1-0.1-1.8-0.9-1.7-2c0,0,0-0.1,0-0.1c-0.1-1.1,0.6-2,1.7-2.2c0,0,0.1,0,0.1,0c0.4,0,0.9,0.2,1.1,0.5h0V0.1L58.1,0.1z M57,3.6
					c0-0.1,0-0.2,0-0.3c-0.1-0.4-0.5-0.7-0.9-0.7c-0.7,0-1,0.6-1,1.3c0,0.7,0.4,1.3,1,1.3c0.4,0,0.8-0.3,0.9-0.7c0-0.1,0-0.2,0-0.3
					V3.6z"/>
				<path id="패스_42" class="st7" d="M61.4,6l-0.1-0.5h0c-0.3,0.4-0.7,0.6-1.2,0.5c-0.7,0-1.2-0.5-1.3-1.1c0,0,0-0.1,0-0.1
					c0-1,0.9-1.5,2.4-1.5V3.3c0-0.3-0.1-0.7-0.8-0.7c-0.4,0-0.8,0.1-1.1,0.3l-0.2-0.7c0.4-0.2,1-0.4,1.5-0.4
					c0.8-0.1,1.6,0.5,1.7,1.3c0,0.1,0,0.2,0,0.4V5c0,0.3,0,0.7,0.1,1L61.4,6z M61.2,4c-0.7,0-1.4,0.1-1.4,0.8c0,0.3,0.2,0.6,0.5,0.6
					c0,0,0.1,0,0.1,0c0.4,0,0.7-0.2,0.8-0.6c0-0.1,0-0.1,0-0.2L61.2,4z"/>
				<path id="패스_43" class="st7" d="M64.4,0.8V2h1v0.8h-1v1.8c0,0.5,0.1,0.8,0.5,0.8c0.1,0,0.3,0,0.4,0l0,0.8
					c-0.2,0.1-0.5,0.1-0.7,0.1c-0.3,0-0.6-0.1-0.9-0.3c-0.2-0.3-0.4-0.7-0.3-1.1V2.7h-0.6V2h0.6V1L64.4,0.8z"/>
				<path id="패스_44" class="st7" d="M67.1,0.8c0,0.3-0.2,0.6-0.6,0.6c-0.3,0-0.6-0.2-0.6-0.6c0-0.3,0.2-0.6,0.6-0.6c0,0,0,0,0,0
					C66.8,0.2,67.1,0.5,67.1,0.8C67.1,0.8,67.1,0.8,67.1,0.8z M66,6V2h1V6L66,6z"/>
				<path id="패스_45" class="st7" d="M72,4C72,5.1,71.2,6,70.1,6.1c-0.1,0-0.2,0-0.2,0c-1.1,0-2-0.8-2-1.9c0-0.1,0-0.1,0-0.2
					c-0.1-1.1,0.7-2.1,1.9-2.2c0.1,0,0.2,0,0.2,0c1.1,0,2,0.8,2,1.9C72,3.8,72,3.9,72,4z M68.9,4c0,0.8,0.4,1.4,1,1.4
					c0.6,0,1-0.6,1-1.4c0-0.6-0.3-1.4-1-1.4C69.2,2.6,68.9,3.3,68.9,4L68.9,4z"/>
				<path id="패스_46" class="st7" d="M72.7,3.2c0-0.5,0-0.9,0-1.2h0.9l0,0.6h0c0.3-0.4,0.8-0.7,1.3-0.7c0.7,0,1.4,0.5,1.4,1.7V6
					h-1V3.7c0-0.6-0.2-1-0.8-1c-0.4,0-0.7,0.2-0.8,0.6c0,0.1,0,0.2,0,0.3V6h-1V3.2z"/>
				<path id="패스_47" class="st7" d="M79.2,6V2.7h-0.6V2h0.6V1.8c0-0.5,0.1-1,0.5-1.4C79.9,0.1,80.3,0,80.7,0
					c0.2,0,0.4,0,0.7,0.1l-0.1,0.8c-0.1-0.1-0.3-0.1-0.4-0.1c-0.5,0-0.7,0.4-0.7,0.9V2h0.9v0.8h-0.9V6L79.2,6z"/>
				<path id="패스_48" class="st7" d="M85.4,4c0.1,1.1-0.8,2.1-1.9,2.2c-0.1,0-0.2,0-0.2,0c-1.1,0-2-0.8-2-1.9c0-0.1,0-0.1,0-0.2
					c-0.1-1.1,0.7-2.1,1.9-2.2c0.1,0,0.2,0,0.2,0c1.1,0,2,0.8,2,1.9C85.4,3.8,85.4,3.9,85.4,4z M82.3,4c0,0.8,0.4,1.4,1,1.4
					c0.6,0,1-0.6,1-1.4c0-0.6-0.3-1.4-1-1.4C82.6,2.6,82.3,3.3,82.3,4L82.3,4z"/>
				<path id="패스_49" class="st7" d="M86.2,3.3c0-0.6,0-0.9,0-1.3H87l0,0.8h0c0.1-0.5,0.6-0.8,1.1-0.9c0.1,0,0.2,0,0.2,0v1
					c-0.1,0-0.2,0-0.3,0c-0.5,0-0.9,0.3-0.9,0.8c0,0.1,0,0.2,0,0.3V6h-1L86.2,3.3z"/>
				<path id="패스_50" class="st7" d="M91.9,4.4L91.4,6h-1.1l1.8-5.6h1.3L95.3,6h-1.1l-0.5-1.6H91.9z M93.5,3.6L93,2.3
					c-0.1-0.3-0.2-0.7-0.3-1.1h0c-0.1,0.3-0.2,0.7-0.3,1.1L92,3.6H93.5z"/>
				<path id="패스_51" class="st7" d="M95.9,3.3c0-0.6,0-0.9,0-1.3h0.9l0,0.8h0c0.1-0.5,0.6-0.8,1.1-0.9c0.1,0,0.2,0,0.2,0v1
					c-0.1,0-0.2,0-0.3,0c-0.5,0-0.9,0.3-0.9,0.8c0,0.1,0,0.2,0,0.3V6h-1L95.9,3.3z"/>
				<path id="패스_52" class="st7" d="M100.1,0.8V2h1v0.8h-1v1.8c0,0.5,0.1,0.8,0.5,0.8c0.1,0,0.3,0,0.4,0l0,0.8
					c-0.2,0.1-0.5,0.1-0.7,0.1c-0.3,0-0.6-0.1-0.9-0.3c-0.2-0.3-0.4-0.7-0.3-1.1V2.7h-0.6V2h0.6V1L100.1,0.8z"/>
				<path id="패스_53" class="st7" d="M101.7,5.1c0.3,0.2,0.7,0.3,1,0.3c0.5,0,0.7-0.2,0.7-0.5s-0.2-0.4-0.7-0.6
					c-0.8-0.3-1.1-0.7-1.1-1.2c0-0.8,0.7-1.3,1.4-1.3c0,0,0.1,0,0.1,0c0.4,0,0.7,0.1,1.1,0.2l-0.2,0.7c-0.3-0.1-0.6-0.2-0.9-0.2
					c-0.4,0-0.6,0.2-0.6,0.4s0.2,0.4,0.7,0.6c0.7,0.3,1.1,0.6,1.1,1.2c0,0.7-0.6,1.3-1.7,1.3c-0.4,0-0.9-0.1-1.2-0.3L101.7,5.1z"/>
				<path id="패스_54" class="st7" d="M109.1,6l-0.1-0.5h0c-0.3,0.4-0.7,0.6-1.2,0.5c-0.7,0-1.2-0.5-1.3-1.1c0,0,0-0.1,0-0.1
					c0-1,0.9-1.5,2.4-1.5V3.3c0-0.3-0.1-0.7-0.8-0.7c-0.4,0-0.8,0.1-1.1,0.3l-0.2-0.7c0.4-0.2,1-0.4,1.5-0.4
					c0.8-0.1,1.6,0.5,1.7,1.3c0,0.1,0,0.2,0,0.4V5c0,0.3,0,0.7,0.1,1L109.1,6z M109,4c-0.7,0-1.4,0.1-1.4,0.8c0,0.3,0.2,0.6,0.5,0.6
					c0,0,0.1,0,0.1,0c0.4,0,0.7-0.2,0.8-0.6c0-0.1,0-0.1,0-0.2L109,4z"/>
				<path id="패스_55" class="st7" d="M111,3.2c0-0.5,0-0.9,0-1.2h0.9l0,0.6h0c0.3-0.4,0.8-0.7,1.3-0.7c0.7,0,1.4,0.5,1.4,1.7V6
					h-1V3.7c0-0.6-0.2-1-0.8-1c-0.4,0-0.7,0.2-0.8,0.6c0,0.1,0,0.2,0,0.3V6h-1L111,3.2z"/>
				<path id="패스_56" class="st7" d="M119.4,0.1v4.8c0,0.4,0,0.9,0,1.1h-0.9l0-0.6h0c-0.3,0.5-0.8,0.8-1.3,0.7
					c-1-0.1-1.8-0.9-1.7-2c0,0,0-0.1,0-0.1c-0.1-1.1,0.6-2,1.7-2.2c0,0,0.1,0,0.1,0c0.4,0,0.9,0.2,1.1,0.5h0V0.1L119.4,0.1z
					 M118.4,3.6c0-0.1,0-0.2,0-0.3c-0.1-0.4-0.5-0.7-0.9-0.7c-0.7,0-1,0.6-1,1.3c0,0.7,0.4,1.3,1,1.3c0.4,0,0.8-0.3,0.9-0.7
					c0-0.1,0-0.2,0-0.3L118.4,3.6z"/>
				<path id="패스_57" class="st7" d="M126.2,5.9c-0.5,0.2-1,0.3-1.5,0.2c-1.5,0.1-2.7-1-2.9-2.4c0-0.1,0-0.3,0-0.4
					c-0.1-1.6,1.1-2.9,2.7-3c0.1,0,0.2,0,0.3,0c0.5,0,0.9,0.1,1.4,0.2L126,1.4c-0.3-0.1-0.7-0.2-1.1-0.2c-1-0.1-1.9,0.7-2,1.8
					c0,0.1,0,0.2,0,0.3c-0.1,1,0.6,1.9,1.7,2c0.1,0,0.2,0,0.3,0c0.4,0,0.8-0.1,1.1-0.2L126.2,5.9z"/>
				<path id="패스_58" class="st7" d="M130.4,4.8c0,0.5,0,0.9,0,1.2h-0.9l0-0.6h0c-0.3,0.5-0.8,0.7-1.3,0.7
					c-0.7,0-1.4-0.4-1.4-1.8V2h1v2.2c0,0.7,0.2,1.1,0.8,1.1c0.3,0,0.7-0.2,0.8-0.6c0-0.1,0.1-0.2,0.1-0.3V2h1L130.4,4.8z"/>
				<path id="패스_59" class="st7" d="M131.5,0.1h1V6h-1V0.1z"/>
				<path id="패스_60" class="st7" d="M134.7,0.8V2h1v0.8h-1v1.8c0,0.5,0.1,0.8,0.5,0.8c0.1,0,0.3,0,0.4,0l0,0.8
					c-0.2,0.1-0.5,0.1-0.7,0.1c-0.3,0-0.6-0.1-0.9-0.3c-0.2-0.3-0.4-0.7-0.3-1.1V2.7h-0.6V2h0.6V1L134.7,0.8z"/>
				<path id="패스_61" class="st7" d="M140,4.8c0,0.5,0,0.9,0,1.2h-0.9l0-0.6h0c-0.3,0.5-0.8,0.7-1.3,0.7c-0.7,0-1.4-0.4-1.4-1.8
					V2h1v2.2c0,0.7,0.2,1.1,0.8,1.1c0.3,0,0.7-0.2,0.8-0.6c0-0.1,0.1-0.2,0.1-0.3V2h1V4.8z"/>
				<path id="패스_62" class="st7" d="M141,3.3c0-0.6,0-0.9,0-1.3h0.9l0,0.8h0c0.1-0.5,0.6-0.8,1.1-0.9c0.1,0,0.2,0,0.2,0v1
					c-0.1,0-0.2,0-0.3,0c-0.5,0-0.9,0.3-0.9,0.8c0,0.1,0,0.2,0,0.3V6h-1V3.3z"/>
				<path id="패스_63" class="st7" d="M144.6,4.3c0,0.6,0.5,1.1,1.1,1.1c0,0,0.1,0,0.1,0c0.4,0,0.8-0.1,1.1-0.2l0.2,0.7
					c-0.5,0.2-0.9,0.3-1.4,0.2c-1.1,0.1-2-0.7-2.1-1.7c0-0.1,0-0.2,0-0.3c-0.1-1.1,0.7-2.1,1.8-2.2c0.1,0,0.1,0,0.2,0
					c1,0,1.8,0.8,1.8,1.8c0,0.1,0,0.1,0,0.2c0,0.1,0,0.3,0,0.4H144.6z M146.4,3.6c0.1-0.5-0.3-0.9-0.7-1c0,0-0.1,0-0.1,0
					c-0.5,0-0.9,0.5-0.9,1H146.4z"/>
			</g>
		</g>
	</g>
	<g id="그룹_7764" transform="translate(0 -1)">
		<g id="그룹_42" transform="translate(-12967.802 -21949.477)">
			<g id="그룹_34" transform="translate(4.325 24.607)">
				<path id="패스_64" class="st7" d="M6.9,0.7L6.8,2C6.2,1.7,5.4,1.6,4.7,1.6c-0.8,0-1.6,0.3-2.2,0.8c-1,1.2-1,2.9,0,4
					C3,7,3.8,7.3,4.5,7.2c0.4,0,0.7,0,1.1-0.1V5.1H3.9V3.8h3.3v4.2C6.3,8.3,5.4,8.5,4.5,8.5c-1.2,0.1-2.3-0.3-3.3-1
					C0.4,6.8-0.1,5.7,0,4.5c-0.1-1.2,0.4-2.3,1.2-3.1c0.9-0.8,2.1-1.2,3.3-1.1C5.3,0.3,6.2,0.4,6.9,0.7z"/>
				<path id="패스_65" class="st7" d="M9.8,2.5l1.5,4.3h0l1.5-4.3h1.6l-2.3,5.8c-0.2,0.6-0.5,1.2-0.8,1.8c-0.4,0.5-1,0.8-1.7,0.8
					c-0.4,0-0.8-0.1-1.1-0.2l0.1-1.1c0.3,0.1,0.5,0.1,0.8,0.1c0.3,0,0.5-0.1,0.7-0.3c0.2-0.2,0.3-0.5,0.3-0.8L8.1,2.5L9.8,2.5z"/>
				<path id="패스_66" class="st7" d="M20.2,6.8V8c-0.6,0.3-1.4,0.5-2.1,0.5c-0.9,0.1-1.7-0.2-2.3-0.8c-0.6-0.6-0.9-1.4-0.8-2.2
					c0-0.8,0.2-1.6,0.7-2.2c1.2-1.2,3.1-1.2,4.3,0c0,0,0.1,0.1,0.1,0.1c0.5,0.8,0.7,1.6,0.6,2.5h-4.2c0,0.4,0.2,0.8,0.5,1.1
					c0.3,0.3,0.8,0.4,1.2,0.4C18.9,7.4,19.6,7.2,20.2,6.8z M16.5,4.9h2.7c-0.1-0.9-0.5-1.4-1.3-1.4c-0.7-0.1-1.3,0.5-1.4,1.2
					C16.5,4.7,16.5,4.8,16.5,4.9L16.5,4.9z"/>
				<path id="패스_67" class="st7" d="M21.5,5.5c0-0.9,0.3-1.7,0.9-2.3c0.6-0.6,1.4-0.9,2.2-0.8c0.8,0,1.7,0.3,2.3,0.8
					c0.6,0.6,0.9,1.4,0.9,2.3c0,0.8-0.3,1.6-0.8,2.1c-1.3,1.2-3.3,1.2-4.7,0C21.8,7,21.5,6.3,21.5,5.5z M23.2,5.3c0,1.4,0.5,2,1.5,2
					c1,0,1.5-0.7,1.5-2c0-0.4-0.1-0.9-0.4-1.2c-0.3-0.4-0.7-0.6-1.2-0.5c-0.4,0-0.9,0.2-1.1,0.5C23.3,4.4,23.2,4.9,23.2,5.3
					L23.2,5.3z"/>
				<path id="패스_68" class="st7" d="M29.1,8.4V2.5h1.5v0.8h0c0.5-0.6,1.2-1,2-0.9c0.6,0,1.2,0.2,1.6,0.6
					c0.4,0.5,0.5,1.1,0.5,1.6v3.7h-1.6V5.3c0-0.4,0-0.7-0.1-1.1c-0.1-0.4-0.5-0.6-0.9-0.6c-0.5,0-0.9,0.2-1.1,0.7
					c-0.2,0.4-0.3,0.8-0.3,1.2v2.8L29.1,8.4z"/>
				<path id="패스_69" class="st7" d="M40.4,2.5h1.5v5.3c0,2-1.1,3.1-3.2,3.1c-0.7,0-1.4-0.1-2.1-0.4l0.1-1.3
					c0.5,0.3,1.1,0.5,1.8,0.5c0.6,0.1,1.2-0.2,1.6-0.8c0.2-0.5,0.3-1,0.3-1.5h0c-0.2,0.3-0.4,0.5-0.7,0.6c-0.4,0.2-0.8,0.3-1.2,0.3
					c-0.7,0-1.5-0.3-1.9-0.9c-0.8-1.3-0.8-2.9,0-4.1c0.4-0.6,1.2-1,2-1c0.7,0,1.5,0.3,1.9,0.9h0L40.4,2.5z M39,7.2
					c0.4,0,0.8-0.2,1.1-0.5c0.4-0.8,0.4-1.7,0-2.5c-0.2-0.3-0.6-0.5-1-0.5c-0.5,0-0.9,0.2-1.1,0.6c-0.2,0.4-0.3,0.8-0.3,1.2
					c0,0.4,0.1,0.8,0.3,1.2C38.2,7,38.6,7.2,39,7.2L39,7.2z"/>
				<path id="패스_70" class="st7" d="M42.6,10.8l0.1-1.1c0.4,0,0.7-0.1,0.8-0.3c0.1-0.3,0.2-0.5,0.1-0.8V2.5h1.6v6.3
					c0,1.4-0.6,2.1-1.8,2.1C43.1,10.9,42.8,10.9,42.6,10.8z M43.6,1.5V0h1.6v1.5H43.6z"/>
				<path id="패스_71" class="st7" d="M52.4,2.5v5.8h-1.5V7.6h0c-0.5,0.6-1.2,0.9-2,0.9c-0.6,0-1.2-0.2-1.6-0.7
					c-0.4-0.5-0.5-1-0.5-1.6V2.5h1.6v3.1c0,0.4,0,0.7,0.1,1.1c0.1,0.4,0.5,0.6,0.9,0.6c0.5,0,0.9-0.3,1.1-0.7
					c0.2-0.4,0.3-0.8,0.3-1.3V2.5L52.4,2.5z"/>
				<path id="패스_72" class="st7" d="M56.2,8.4l3.2-7.9h1.9l3.2,7.9h-1.8l-0.7-1.8h-3.3l-0.7,1.8H56.2z M61.5,5.3L60.3,2h0
					l-1.2,3.3H61.5z"/>
				<path id="패스_73" class="st7" d="M65.4,8.4V2.5h1.4v1.3h0c0.1-0.4,0.2-0.7,0.5-0.9c0.3-0.3,0.7-0.5,1.2-0.5
					c0.2,0,0.3,0,0.5,0V4c-0.2-0.1-0.5-0.1-0.7-0.1c-0.5,0-1,0.3-1.1,0.9c-0.1,0.5-0.2,1-0.2,1.5v2.1L65.4,8.4z"/>
				<path id="패스_74" class="st7" d="M70.5,6.6v-3h-1.2V2.5h1.2V1.4l1.6-0.5v1.7h1.4v1.1h-1.4v2.7c0,0.6,0.2,1,0.7,1
					c0.3,0,0.5,0,0.7-0.2l0,1.2c-0.4,0.1-0.8,0.1-1.2,0.1c-0.5,0-1-0.1-1.4-0.5C70.7,7.6,70.5,7.1,70.5,6.6z"/>
				<path id="패스_75" class="st7" d="M78.3,2.6l-0.1,1.1c-0.5-0.2-0.9-0.2-1.4-0.3c-0.6,0-0.9,0.2-0.9,0.6c0,0.2,0.2,0.4,0.7,0.6
					C77,4.8,77.5,5,77.9,5.2c0.5,0.3,0.7,0.8,0.7,1.4c0,0.6-0.3,1.2-0.8,1.5c-0.5,0.3-1.1,0.5-1.8,0.4c-0.6,0-1.2-0.1-1.8-0.2
					L74.4,7c0.5,0.2,1,0.4,1.6,0.4c0.2,0,0.5,0,0.7-0.1c0.2-0.1,0.4-0.3,0.4-0.6c0-0.3-0.2-0.5-0.7-0.7c-0.8-0.3-1.2-0.4-1.3-0.5
					c-0.5-0.3-0.7-0.8-0.7-1.3c0-0.6,0.3-1.1,0.7-1.4c0.5-0.3,1.1-0.4,1.7-0.4C77.2,2.4,77.7,2.5,78.3,2.6z"/>
				<path id="패스_76" class="st7" d="M87.8,6.9l0.1,1.3c-0.6,0.1-1.2,0.2-1.9,0.2c-1.2,0.1-2.3-0.3-3.3-1c-0.9-0.7-1.3-1.8-1.3-3
					c-0.1-1.2,0.4-2.3,1.2-3.1c0.9-0.8,2.1-1.2,3.3-1.1c0.6,0,1.3,0.1,1.9,0.3L87.7,2c-0.6-0.3-1.2-0.4-1.8-0.4
					c-0.8,0-1.5,0.3-2,0.8c-0.5,0.6-0.8,1.3-0.8,2c0,0.7,0.2,1.5,0.8,2c0.5,0.5,1.3,0.8,2,0.8C86.6,7.3,87.2,7.2,87.8,6.9z"/>
				<path id="패스_77" class="st7" d="M93.8,6.8V8c-0.6,0.3-1.4,0.5-2.1,0.5c-0.9,0.1-1.7-0.2-2.3-0.8c-0.6-0.6-0.9-1.4-0.8-2.2
					c0-0.8,0.2-1.6,0.7-2.2c1.2-1.2,3.1-1.2,4.3,0c0,0,0.1,0.1,0.1,0.1c0.5,0.8,0.7,1.6,0.6,2.5H90c0,0.4,0.2,0.8,0.5,1.1
					c0.3,0.3,0.8,0.4,1.2,0.4C92.5,7.4,93.2,7.2,93.8,6.8z M90,4.9h2.7c-0.1-0.9-0.5-1.4-1.3-1.4C90.7,3.4,90.1,4,90,4.7
					C90,4.7,90,4.8,90,4.9L90,4.9z"/>
				<path id="패스_78" class="st7" d="M95.5,8.4V2.5H97v0.8h0c0.5-0.6,1.2-1,2-0.9c0.6,0,1.2,0.2,1.6,0.6c0.4,0.5,0.5,1.1,0.5,1.6
					v3.7h-1.6V5.3c0-0.4,0-0.7-0.1-1.1c-0.1-0.4-0.5-0.6-0.9-0.6c-0.5,0-0.9,0.2-1.1,0.7c-0.2,0.4-0.3,0.8-0.3,1.2v2.8L95.5,8.4z"/>
				<path id="패스_79" class="st7" d="M103.2,6.6v-3H102V2.5h1.2V1.4l1.6-0.5v1.7h1.4v1.1h-1.4v2.7c0,0.6,0.2,1,0.7,1
					c0.3,0,0.5,0,0.7-0.2l0,1.2c-0.4,0.1-0.8,0.1-1.2,0.1c-0.5,0-1-0.1-1.4-0.5C103.4,7.6,103.2,7.1,103.2,6.6z"/>
				<path id="패스_80" class="st7" d="M112.2,6.8V8c-0.6,0.3-1.4,0.5-2.1,0.5c-0.9,0.1-1.7-0.2-2.3-0.8c-0.6-0.6-0.9-1.4-0.8-2.2
					c0-0.8,0.2-1.6,0.7-2.2c1.2-1.2,3.1-1.2,4.3,0c0,0,0.1,0.1,0.1,0.1c0.5,0.8,0.7,1.6,0.6,2.5h-4.2c0,0.4,0.2,0.8,0.5,1.1
					c0.3,0.3,0.8,0.4,1.2,0.4C110.9,7.4,111.6,7.2,112.2,6.8z M108.4,4.9h2.7c-0.1-0.9-0.5-1.4-1.3-1.4c-0.7-0.1-1.3,0.5-1.4,1.2
					C108.4,4.7,108.4,4.8,108.4,4.9L108.4,4.9z"/>
				<path id="패스_81" class="st7" d="M113.9,8.4V2.5h1.4v1.3h0c0.1-0.4,0.2-0.7,0.5-0.9c0.3-0.3,0.7-0.5,1.2-0.5
					c0.2,0,0.3,0,0.5,0V4c-0.2-0.1-0.5-0.1-0.7-0.1c-0.5,0-1,0.3-1.1,0.9c-0.1,0.5-0.2,1-0.2,1.5v2.1L113.9,8.4z"/>
			</g>
			<g id="그룹_41" transform="translate(0)">
				<g id="그룹_35" transform="translate(91.911 0.815)">
					<path id="패스_82" class="st6" d="M13.6,13h1.9c0.5-0.1,0.8-0.4,0.8-0.9V0h-2.7v4.4H9.8v2.1h3.8V13z"/>
					<path id="패스_83" class="st6" d="M6.5,16.1v-3.8H3.8v5.2c0,0.7,0.8,0.8,0.8,0.8h11.8v-2.1L6.5,16.1z"/>
					<path id="패스_84" class="st6" d="M5.9,8.3c1.4,1,2.5,2.5,3,4.2l1.9-2.2c-1-1.5-2.4-2.6-4-3.2C7.6,5.5,8,3.7,7.9,1.9l0,0
						c0-0.1,0-0.1,0-0.2l0,0V1.6c0-0.5-0.3-0.9-0.8-1c0,0-0.1,0-0.1,0H0.8v1.9h4.5C5.6,5.8,3.3,8.9,0,9.3L0.9,11
						C2.8,10.7,4.6,9.7,5.9,8.3z"/>
				</g>
				<g id="그룹_36" transform="translate(110.412 0.872)">
					<path id="패스_85" class="st6" d="M9.8,6.2H2.7V2.9h6.7V0.8H0v6.6c0,0.5,0.3,0.8,0.8,0.9h9L9.8,6.2z"/>
					<path id="패스_86" class="st6" d="M18,4.6h-3V0h-2.7v10.3c-1-0.5-2.2-0.8-3.3-0.8c-3.4,0-6,2-6,4.6s2.6,4.6,6,4.6s6-2,6-4.6
						c0-1.4-0.8-2.8-2.1-3.5h1.3c0.5-0.1,0.8-0.4,0.8-0.9V6.7h3L18,4.6z M8.9,16.5c-2.3,0-3.7-1.2-3.7-2.4s1.4-2.4,3.7-2.4
						s3.7,1.2,3.7,2.4S11.3,16.5,8.9,16.5L8.9,16.5z"/>
				</g>
				<path id="패스_87" class="st6" d="M13.9,11.3h1.6c0.5-0.1,0.8-0.4,0.8-0.9V0.7h-2.7v2.2H9.4c0-0.1,0-0.2,0-0.3l0,0V2.3
					c0-1.1-0.9-1.1-0.9-1.1H1.1v2.1h5.7C6.6,6.4,2.1,8.8,0,9.3l0.7,1.7c2.4-0.6,7.1-2.2,8.4-6.2h4.5v1.7h-5v2h5v2.7
					c-1-0.5-2.1-0.7-3.2-0.7c-3.4,0-6,2-6,4.6s2.6,4.6,6,4.6s6-2,6-4.6C16.3,13.5,15.3,12,13.9,11.3z M10.3,17.7
					c-2.3,0-3.7-1.5-3.7-2.6s1.4-2.6,3.7-2.6s3.7,1.5,3.7,2.6S12.6,17.7,10.3,17.7z"/>
				<g id="그룹_37" transform="translate(17.999 1.043)">
					<path id="패스_88" class="st6" d="M0.6,6.9l0.8,1.7c2.7-0.4,5.2-1.4,7.5-2.9c2.5,0.3,4.8,1.4,6.6,3.1L17,6.5
						c-2-1.3-4.3-2.1-6.7-2.3c0.7-0.9,1.1-2,1.1-3.1l0,0V0.9C11.4,0.4,11,0,10.4,0c0,0-0.1,0-0.1,0H1.5v1.9h7
						C8.1,4.5,2.9,6.4,0.6,6.9z"/>
					<path id="패스_89" class="st6" d="M17.2,10.3H0v2h7.3v6.1h1.9c0,0,0.8-0.1,0.8-0.7v-5.4h7.3L17.2,10.3z"/>
				</g>
				<g id="그룹_38" transform="translate(36.584 0.71)">
					<path id="패스_90" class="st6" d="M13.9,0v18.5h1.9c0.5-0.1,0.8-0.4,0.8-0.9V0H13.9z"/>
					<path id="패스_91" class="st6" d="M9.9,3.2H7.4C6.7,1.5,5.5,0.4,4.1,0.4C1.8,0.4,0,3.3,0,7.2s1.8,6.8,4.1,6.8
						c1.5,0,2.7-1.2,3.4-3h2.4v7.4h1.8c0.5-0.1,0.8-0.4,0.8-0.9V0H9.9L9.9,3.2z M4.1,12.1c-0.6,0-1.7-2.2-1.7-4.9s1.1-4.9,1.7-4.9
						s1.7,2.2,1.7,4.9S4.7,12.1,4.1,12.1L4.1,12.1z M8,9c0.2-1.2,0.2-2.4,0-3.6h1.9V9H8z"/>
				</g>
				<g id="그룹_39" transform="translate(54.818)">
					<path id="패스_92" class="st6" d="M17.2,9.3V7.1H0v2.1h7.3v1.3H1.6v2.1h11v1.1H1.8v4.4c0,0.7,0.8,0.8,0.8,0.8h13.1v-2.1H4.4
						v-1h10.9v-4.6c0-0.7-0.8-0.8-0.8-0.8H10V9.3L17.2,9.3z"/>
					<path id="패스_93" class="st6" d="M8.4,3.6c2.3,0.4,4.4,1.5,6.2,3l1.3-1.9c0.3-0.3-0.2-0.6-0.2-0.6c-1.7-1-3.7-1.7-5.7-2
						c0.1-0.1,0.1-0.2,0.2-0.2c0.1-0.2,0.1-0.4,0-0.5c0,0,0,0,0,0L8.3,0C6.9,2.7,2,3.9,0.4,4.1l0.4,1.8C3.5,5.8,6.1,5,8.4,3.6z"/>
				</g>
				<g id="그룹_40" transform="translate(73.84 0.974)">
					<path id="패스_94" class="st6" d="M14.5,17V0h-1.4v17.9h1C14.1,17.9,14.5,17.8,14.5,17z"/>
					<rect id="사각형_40" x="0" y="12.5" class="st6" width="13.4" height="1.4"/>
					<path id="패스_95" class="st6" d="M0.4,5.5c-0.3,2.6,1.6,5,4.3,5.3c2.6,0.3,5-1.6,5.3-4.3c0.3-2.6-1.6-5-4.3-5.3
						c-0.2,0-0.3,0-0.5,0C2.7,1.1,0.6,3,0.4,5.5z M1.8,6.5c-0.4-1.9,0.9-3.7,2.8-4c1.9-0.4,3.7,0.9,4,2.8c0.4,1.9-0.9,3.7-2.8,4
						c-0.2,0-0.4,0.1-0.6,0.1C3.5,9.5,2,8.2,1.8,6.5L1.8,6.5z"/>
				</g>
			</g>
		</g>
		<g id="그룹_44" transform="translate(-13067.927 -21953.047)">
			<path id="패스_96" class="st8" d="M17,31.8l-0.1,4h71.2v-4H17z"/>
			<g id="그룹_43" transform="translate(4.434)">
				<path id="패스_97" class="st0" d="M0,0.7v1.7l0,0c36.4-2.3,65.1,14.1,65.1,14.1c7-2.7,14.6-3.7,22-2.7
					c0.1-0.1,0.1-0.3,0.2-0.4C44.2-3,6.9-0.1,0,0.7z"/>
				<path id="패스_98" class="st9" d="M9.4,22.4l3.8,0.1L11.6,8.7l-4.3,0C7.3,8.7,5.1,16.3,9.4,22.4z"/>
				<path id="패스_99" class="st0" d="M7.3,3.9L7.3,6.3c0,0,11.9-1.6,41.1,6.2l0.3-0.3C35.5,6.9,21.5,4.1,7.3,3.9z"/>
				<path id="패스_100" class="st10" d="M77.9,21.9l0.5,8.1H42l-0.2-11.4l35.1,2.2C77.4,20.9,77.9,21.4,77.9,21.9z"/>
			</g>
			<path id="패스_101" class="st10" d="M17.9,8.8l1.6,14.5c0,0.5-0.3,0.5-0.3,0.5l-5-0.1l0,0h-0.2v2.3H9.7v1H6.9v0.6H4.4v0.8H2.2
				v1.3L0,30l0,3.8l15.2,0l0-3.7l29.2,0l-0.2-13c0,0,0-0.4,0.4-0.4l16.6,1.2l0.2-0.4C55.6,15.7,33.2,8.8,17.9,8.8z"/>
		</g>
	</g>
</g>
</svg>
